<?xml version="1.0" standalone="no"?>
<!DOCTYPE svg PUBLIC "-//W3C//DTD SVG 20010904//EN"
 "http://www.w3.org/TR/2001/REC-SVG-20010904/DTD/svg10.dtd">
<svg version="1.0" xmlns="http://www.w3.org/2000/svg"
 width="700.000000pt" height="700.000000pt" viewBox="0 0 700.000000 700.000000"
 preserveAspectRatio="xMidYMid meet">
<metadata>
Created by potrace 1.11, written by Peter Selinger 2001-2013
</metadata>
<g transform="translate(0.000000,700.000000) scale(0.100000,-0.100000)"
fill="#000000" stroke="none">
<path d="M3215 6989 c-851 -78 -1602 -426 -2190 -1014 -803 -802 -1163 -1934
-974 -3058 227 -1353 1252 -2464 2584 -2801 295 -74 522 -101 860 -101 284 0
391 9 625 51 486 89 939 274 1345 552 774 529 1301 1340 1469 2262 42 234 51
341 51 625 0 284 -9 390 -51 625 -259 1431 -1398 2566 -2825 2815 -256 45
-667 65 -894 44z m78 -1681 c3 -13 67 -447 144 -966 76 -518 141 -934 145
-925 6 17 258 1872 258 1901 0 9 64 12 289 12 l289 0 5 -22 c3 -13 67 -447
143 -965 77 -518 142 -934 145 -925 3 9 64 443 135 964 l129 948 288 0 c186 0
287 -4 287 -10 0 -14 -559 -3589 -565 -3617 l-5 -23 -260 0 -260 0 -5 22 c-7
32 -305 1947 -305 1960 0 53 -28 -124 -150 -962 -77 -531 -143 -977 -146 -992
l-6 -28 -261 0 -262 0 -144 863 c-79 474 -147 870 -151 881 -5 16 -12 11 -42
-30 -44 -59 -137 -149 -198 -191 -170 -115 -330 -153 -651 -153 l-149 0 0
-685 0 -685 -275 0 -275 0 0 1825 0 1825 924 0 924 0 5 -22z"/>
<path d="M1990 4186 l0 -587 208 3 c235 3 262 11 342 91 88 88 100 146 100
492 0 354 -12 416 -97 497 -75 72 -111 81 -345 86 l-208 4 0 -586z"/>
</g>
</svg>
