<svg xmlns="http://www.w3.org/2000/svg" width="334" height="222" viewBox="0 0 334 222">
    <g fill="none" fill-rule="evenodd">
        <path fill="#C5C3CE" d="M0 0h333v222H0z"/>
        <path fill="#E7E5EF" d="M0 18V0h216.904C203.327 14.336 195 33.695 195 54.999 195 99.181 230.815 135 274.997 135c22.831 0 43.427-9.563 58.003-24.9V222H0V94h10.136V65.371h6.42c4.835 0 8.948-1.776 12.346-5.338C32.3 56.476 34 52.191 34 47.175v-11.04c0-5.215-1.492-9.5-4.477-12.859C26.3 19.76 21.98 18 16.557 18H0zm330.907 60.618c-1.153 2.135-2.781 3.848-4.884 5.13-2.363 1.443-4.713 2.168-7.046 2.168H301.71V24.09h13.958c3.68 0 7 .97 9.959 2.908 2.53 1.643 4.337 4.19 5.423 7.643.593 1.841.892 4.024.892 6.554 0 4.145-1.106 7.464-3.307 9.96a9.32 9.32 0 0 1-3.251 2.416c2.066.79 3.823 2.352 5.27 4.683.955 1.58 1.66 3.615 2.123 6.113.227 1.285.342 2.713.342 4.293 0 3.908-.735 7.231-2.213 9.958zm-35.598-45.16H278.1v16.858h12.575v9.37H278.1v16.86h17.21v9.37h-26.53V24.09h26.53v9.368zm-40.023 52.458h-8.872L241.1 51.929l-4.96 33.987h-8.912L216.88 24.138h9.762l4.88 33.084 4.485-33.084h9.764l4.877 33.056 4.523-33.056h9.777l-9.663 61.778zM102.395 18H85v76h11.033V65.371h7.352L110.073 94H122l-8.167-33.18c3.93-3.716 5.893-8.267 5.893-13.645v-11.04c0-5.497-1.265-9.784-3.792-12.859-2.882-3.516-7.396-5.276-13.54-5.276zM128 94h11V18h-11v76zm55.997-18.862c-.04-2.148-.596-4.579-1.665-7.291-.439-1.096-1.014-2.29-1.726-3.588-1.508-2.75-3.652-5.544-6.425-8.38-.834-.89-2.56-2.45-5.178-4.676-2.224-1.863-3.888-3.485-4.997-4.859-2.938-3.605-4.401-7.15-4.401-10.632 0-2.23.435-4.091 1.307-5.59 1.069-1.863 2.637-2.795 4.7-2.795 1.943 0 3.431.629 4.462 1.884 1.43 1.742 2.298 4.17 2.615 7.289l9.162-3.649s.51-4.61-.858-7.162c-1.368-2.553-3.164-4.537-5.386-5.954-2.854-1.822-6.285-2.735-10.291-2.735-4.17 0-7.659 1.077-10.474 3.225C150.282 23.79 148 29.04 148 35.972c0 3.851.834 7.418 2.499 10.702 1.546 2.917 4.187 6.224 7.914 9.91 4.442 4.297 7.775 7.518 9.997 9.666 2.815 3.122 4.22 6.265 4.22 9.424 0 2.19-.374 3.872-1.126 5.05-1.47 2.39-3.431 3.627-5.892 3.707-1.746.08-3.294-.633-4.64-2.14-1.827-1.992-2.974-5.206-3.45-9.645l-9.099 2.436s-.553 5.997.856 9.138c1.408 3.139 3.323 5.618 5.743 7.439 2.894 2.23 6.544 3.341 10.947 3.341 2.38 0 4.46-.283 6.247-.85 3.329-1.054 5.91-2.856 7.734-5.405 2.773-3.767 4.125-8.302 4.047-13.607zM55.579 74.014l-8.565 4.263 6.207-29.572 16.17 25.387-9.491-.887L66.233 94H79L66.467 18h-18.75L35 94h21.838l-1.26-19.986zM315.67 58.257h-3.893v18.438h3.893c3.157 0 5.342-1.628 6.555-4.882.432-1.116.646-2.397.646-3.843 0-3.454-.658-5.968-1.975-7.547-1.181-1.445-2.926-2.166-5.226-2.166zm5.816-13.165c.361-1.05.542-2.351.542-3.893 0-2.567-.62-4.507-1.871-5.82-1.153-1.215-2.647-1.823-4.487-1.823h-3.895v15.776h3.895c2.894 0 4.832-1.414 5.816-4.24zM23.216 36.32v11.1c0 1.816-.62 3.376-1.855 4.67-1.237 1.294-2.739 1.94-4.506 1.94h-6.72V29.708h6.72c1.922 0 3.465.605 4.625 1.817 1.158 1.215 1.736 2.811 1.736 4.794zm85.772 0v11.1c0 1.816-.616 3.376-1.841 4.67-1.222 1.294-2.71 1.94-4.463 1.94h-6.65V29.708h6.65c4.203 0 6.304 2.204 6.304 6.611z"/>
        <path fill="#AAA7B4" d="M54.736 181.824c-1.248 1.056-2.916 1.824-5.004 2.304-2.088.48-4.164.72-6.228.72-2.592 0-5.004-.444-7.236-1.332-2.232-.888-4.188-2.364-5.868-4.428-1.68-2.064-3-4.776-3.96-8.136-.96-3.36-1.44-7.488-1.44-12.384 0-5.088.54-9.312 1.62-12.672 1.08-3.36 2.496-6.036 4.248-8.028 1.752-1.992 3.756-3.396 6.012-4.212 2.256-.816 4.536-1.224 6.84-1.224 2.352 0 4.404.192 6.156.576 1.752.384 3.18.816 4.284 1.296l-1.8 7.992c-.912-.48-1.98-.852-3.204-1.116-1.224-.264-2.676-.396-4.356-.396-3.312 0-5.856 1.44-7.632 4.32-1.776 2.88-2.664 7.392-2.664 13.536 0 2.64.204 5.052.612 7.236.408 2.184 1.056 4.068 1.944 5.652.888 1.584 2.016 2.808 3.384 3.672 1.368.864 3.012 1.296 4.932 1.296 1.68 0 3.12-.228 4.32-.684 1.2-.456 2.28-.996 3.24-1.62l1.8 7.632zm2.88-15.984c0-6.384 1.248-11.136 3.744-14.256 2.496-3.12 5.976-4.68 10.44-4.68 4.8 0 8.376 1.584 10.728 4.752 2.352 3.168 3.528 7.896 3.528 14.184 0 6.432-1.248 11.196-3.744 14.292-2.496 3.096-6 4.644-10.512 4.644-9.456 0-14.184-6.312-14.184-18.936zm8.856 0c0 3.6.408 6.384 1.224 8.352.816 1.968 2.184 2.952 4.104 2.952 1.824 0 3.18-.852 4.068-2.556.888-1.704 1.332-4.62 1.332-8.748 0-3.696-.408-6.504-1.224-8.424-.816-1.92-2.208-2.88-4.176-2.88-1.68 0-2.988.852-3.924 2.556-.936 1.704-1.404 4.62-1.404 8.748zm42.336 18v-21.888c0-2.64-.312-4.488-.936-5.544-.624-1.056-1.68-1.584-3.168-1.584-1.248 0-2.328.384-3.24 1.152a6.29 6.29 0 0 0-1.944 2.88v24.984h-8.568v-36h6.84l1.008 4.176h.216c.864-1.392 2.04-2.58 3.528-3.564s3.432-1.476 5.832-1.476c1.44 0 2.724.216 3.852.648a6.509 6.509 0 0 1 2.844 2.124c.768.984 1.344 2.304 1.728 3.96.384 1.656.576 3.708.576 6.156v23.976h-8.568zm11.952-36h3.888v-2.016c0-4.56.852-7.86 2.556-9.9 1.704-2.04 4.14-3.06 7.308-3.06s5.808.432 7.92 1.296l-1.584 7.272c-.864-.336-1.632-.54-2.304-.612a19.599 19.599 0 0 0-2.088-.108c-1.392 0-2.28.54-2.664 1.62-.384 1.08-.576 2.916-.576 5.508h6.12v7.632h-6.12v28.368h-8.568v-28.368h-3.888v-7.632zm46.08 33.336c-1.2 1.056-2.832 1.92-4.896 2.592a20.798 20.798 0 0 1-6.48 1.008c-2.496 0-4.644-.432-6.444-1.296a11.342 11.342 0 0 1-4.428-3.744c-1.152-1.632-2.004-3.612-2.556-5.94-.552-2.328-.828-4.98-.828-7.956 0-6.48 1.284-11.268 3.852-14.364 2.568-3.096 6.132-4.644 10.692-4.644 1.536 0 3.024.228 4.464.684a9.783 9.783 0 0 1 3.852 2.304c1.128 1.08 2.04 2.52 2.736 4.32.696 1.8 1.044 4.068 1.044 6.804 0 1.056-.06 2.184-.18 3.384-.12 1.2-.3 2.496-.54 3.888h-17.496c.096 2.976.72 5.256 1.872 6.84 1.152 1.584 3 2.376 5.544 2.376 1.536 0 2.94-.24 4.212-.72 1.272-.48 2.244-.984 2.916-1.512l2.664 5.976zm-11.232-27c-1.824 0-3.192.732-4.104 2.196-.912 1.464-1.44 3.516-1.584 6.156h9.936c.144-2.736-.144-4.812-.864-6.228-.72-1.416-1.848-2.124-3.384-2.124zM155.464 132h8.568v2.16l-6.768 8.928h-4.824L155.464 132zm34.848 24.336c-1.152-.432-2.208-.648-3.168-.648-1.296 0-2.412.36-3.348 1.08-.936.72-1.572 1.728-1.908 3.024v24.048h-8.568v-36h6.552l1.008 4.32h.288c.624-1.584 1.524-2.82 2.7-3.708 1.176-.888 2.532-1.332 4.068-1.332 1.152 0 2.28.24 3.384.72l-1.008 8.496zm28.44 24.84c-1.2 1.056-2.832 1.92-4.896 2.592a20.798 20.798 0 0 1-6.48 1.008c-2.496 0-4.644-.432-6.444-1.296a11.342 11.342 0 0 1-4.428-3.744c-1.152-1.632-2.004-3.612-2.556-5.94-.552-2.328-.828-4.98-.828-7.956 0-6.48 1.284-11.268 3.852-14.364 2.568-3.096 6.132-4.644 10.692-4.644 1.536 0 3.024.228 4.464.684a9.783 9.783 0 0 1 3.852 2.304c1.128 1.08 2.04 2.52 2.736 4.32.696 1.8 1.044 4.068 1.044 6.804 0 1.056-.06 2.184-.18 3.384-.12 1.2-.3 2.496-.54 3.888h-17.496c.096 2.976.72 5.256 1.872 6.84 1.152 1.584 3 2.376 5.544 2.376 1.536 0 2.94-.24 4.212-.72 1.272-.48 2.244-.984 2.916-1.512l2.664 5.976zm-11.232-27c-1.824 0-3.192.732-4.104 2.196-.912 1.464-1.44 3.516-1.584 6.156h9.936c.144-2.736-.144-4.812-.864-6.228-.72-1.416-1.848-2.124-3.384-2.124zm35.568 29.664v-21.888c0-2.64-.312-4.488-.936-5.544-.624-1.056-1.68-1.584-3.168-1.584-1.248 0-2.328.384-3.24 1.152a6.29 6.29 0 0 0-1.944 2.88v24.984h-8.568v-36h6.84l1.008 4.176h.216c.864-1.392 2.04-2.58 3.528-3.564s3.432-1.476 5.832-1.476c1.44 0 2.724.216 3.852.648a6.509 6.509 0 0 1 2.844 2.124c.768.984 1.344 2.304 1.728 3.96.384 1.656.576 3.708.576 6.156v23.976h-8.568zm35.712-1.944c-1.2.96-2.64 1.68-4.32 2.16-1.68.48-3.36.72-5.04.72-2.448 0-4.5-.444-6.156-1.332-1.656-.888-3.012-2.16-4.068-3.816-1.056-1.656-1.812-3.648-2.268-5.976-.456-2.328-.684-4.932-.684-7.812 0-6.288 1.128-11.016 3.384-14.184 2.256-3.168 5.568-4.752 9.936-4.752 2.16 0 3.924.192 5.292.576 1.368.384 2.58.864 3.636 1.44l-2.016 7.128a13.57 13.57 0 0 0-2.484-.972c-.792-.216-1.74-.324-2.844-.324-2.016 0-3.528.876-4.536 2.628-1.008 1.752-1.512 4.572-1.512 8.46 0 3.264.516 5.928 1.548 7.992s2.676 3.096 4.932 3.096c1.2 0 2.22-.156 3.06-.468.84-.312 1.62-.708 2.34-1.188l1.8 6.624zm28.296-.72c-1.2 1.056-2.832 1.92-4.896 2.592a20.798 20.798 0 0 1-6.48 1.008c-2.496 0-4.644-.432-6.444-1.296a11.342 11.342 0 0 1-4.428-3.744c-1.152-1.632-2.004-3.612-2.556-5.94-.552-2.328-.828-4.98-.828-7.956 0-6.48 1.284-11.268 3.852-14.364 2.568-3.096 6.132-4.644 10.692-4.644 1.536 0 3.024.228 4.464.684a9.783 9.783 0 0 1 3.852 2.304c1.128 1.08 2.04 2.52 2.736 4.32.696 1.8 1.044 4.068 1.044 6.804 0 1.056-.06 2.184-.18 3.384-.12 1.2-.3 2.496-.54 3.888h-17.496c.096 2.976.72 5.256 1.872 6.84 1.152 1.584 3 2.376 5.544 2.376 1.536 0 2.94-.24 4.212-.72 1.272-.48 2.244-.984 2.916-1.512l2.664 5.976zm-11.232-27c-1.824 0-3.192.732-4.104 2.196-.912 1.464-1.44 3.516-1.584 6.156h9.936c.144-2.736-.144-4.812-.864-6.228-.72-1.416-1.848-2.124-3.384-2.124z"/>
    </g>
</svg>
