<svg xmlns="http://www.w3.org/2000/svg" width="65" height="65" viewBox="0 0 65 65">
    <path fill="#FFF" fill-rule="evenodd" d="M32.332 0c17.857 0 32.334 14.476 32.334 32.333 0 17.858-14.477 32.334-32.334 32.334C14.477 64.667 0 50.191 0 32.333 0 14.476 14.477 0 32.332 0zm13.752 49.195l5.279-33.75h-5.345l-2.467 18.06-2.666-18.06h-5.332L33.1 33.519l-2.666-18.074H13.303v33.777h5.093V36.498h2.938c2.213 0 4.094-.789 5.648-2.372a8.677 8.677 0 0 0 1.036-1.27l2.736 16.339h4.869l2.709-18.569 2.902 18.569h4.85zM21.471 20.648c.879 0 1.586.27 2.115.808.53.54.795 1.25.795 2.13v4.934c0 .807-.283 1.5-.847 2.075a2.789 2.789 0 0 1-2.063.863h-3.074v-10.81h3.074z"/>
</svg>
