<?xml version="1.0" encoding="UTF-8"?>
<svg width="573px" height="365px" viewBox="0 0 573 365" version="1.1" xmlns="http://www.w3.org/2000/svg" xmlns:xlink="http://www.w3.org/1999/xlink">
    <!-- Generator: Sketch 50.2 (55047) - http://www.bohemiancoding.com/sketch -->
    <title>Artboard</title>
    <desc>Created with Sketch.</desc>
    <defs></defs>
    <g id="Artboard" stroke="none" stroke-width="1" fill="none" fill-rule="evenodd">
        <g id="Page-1" transform="translate(114.000000, 19.000000)">
            <path d="M222,128 C221.659701,128.216 221.327363,128.443 221,128.676 C221.327363,128.443 221.659701,128.216 222,128" id="Fill-1" fill="#B264A8"></path>
            <path d="M224,127 C223.661339,127.176 223.327672,127.359 223,127.552 C223.327672,127.359 223.661339,127.176 224,127" id="Fill-2" fill="#B264A8"></path>
            <path d="M161.545938,0 C87.8521791,0 27.5804933,57.1801384 23,129.415163 C23.236598,129.406355 23.473196,129.397547 23.7108996,129.397547 C27.9563967,129.397547 31.8856927,130.734154 35.1085115,133 C40.9814491,125.931617 49.8560858,121.427449 59.7898857,121.427449 C67.2615183,121.427449 74.1294943,123.982857 79.5778822,128.254715 C83.1688652,126.159522 87.3469207,124.953934 91.8091151,124.953934 C91.391199,124.953934 90.9765996,124.968247 90.5642115,124.989166 C96.8163693,91.6125237 126.215442,66.3458057 161.544832,66.3458057 C196.317001,66.3458057 225.346693,90.8209088 232.215774,123.414744 C232.032245,123.440067 231.853138,123.481904 231.670715,123.511631 C232.962053,123.30024 234.282137,123.170323 235.634284,123.170323 C237.836636,123.170323 239.967123,123.468692 241.994791,124.016988 C247.83456,116.240665 257.154753,111.206919 267.654619,111.206919 C280.265072,111.206919 291.169587,118.470178 296.390222,129.023209 C297.544466,128.562993 298.750674,128.208473 300,127.969557 C294.713029,56.4171494 234.747594,0 161.545938,0" id="Fill-3" fill="#B264A8"></path>
            <path d="M222,130 C221.313043,130.318711 220.642029,130.64906 220,131 C220.642029,130.64906 221.313043,130.318711 222,130" id="Fill-4" fill="#B264A8"></path>
            <path d="M231,125 C230.663198,125.073 230.331126,125.16 230,125.25 C230.331126,125.16 230.663198,125.073 231,125" id="Fill-5" fill="#B264A8"></path>
            <path d="M226,126 C225.661827,126.162 225.327071,126.331 225,126.515 C225.327071,126.33 225.662681,126.162 226,126" id="Fill-6" fill="#B264A8"></path>
            <path d="M229,125 C228.322384,125.163 227.654501,125.346 227,125.552 C227.654501,125.346 228.322384,125.164 229,125" id="Fill-7" fill="#B264A8"></path>
            <path d="M222,128 C221.659701,128.216 221.327363,128.443 221,128.676 C221.327363,128.443 221.659701,128.216 222,128" id="Fill-8" fill="#509CAA"></path>
            <path d="M224,127 C223.661339,127.176 223.327672,127.359 223,127.552 C223.327672,127.359 223.661339,127.176 224,127" id="Fill-9" fill="#509CAA"></path>
            <path d="M161.380363,14 C94.2914661,14 39.4962033,66.6900714 36,133 C41.8539534,126.715345 50.1952278,122.78397 59.4556815,122.78397 C66.9397937,122.78397 73.8181335,125.35794 79.2767291,129.661936 C82.8737099,127.551525 87.0587439,126.33607 91.5283913,126.33607 C91.1097771,126.33607 90.6944853,126.350487 90.280301,126.371558 C96.5440089,92.7524806 125.991964,67.3022347 161.380363,67.3022347 C196.210611,67.3022347 225.287682,91.9551157 232.169344,124.7857 C231.984401,124.811207 231.806102,124.853348 231.623374,124.883291 C232.91687,124.670365 234.239159,124.540613 235.593564,124.540613 C237.798486,124.540613 239.93364,124.840041 241.964694,125.392318 C247.814217,117.559511 257.14887,112.490311 267.667381,112.490311 C274.054015,112.490311 280.002101,114.362289 285,117.585018 C274.549043,58.7078833 223.178,14 161.380363,14" id="Fill-10" fill="#509CAA"></path>
            <path d="M222,130 C221.313043,130.318711 220.642029,130.64906 220,131 C220.642029,130.64906 221.313043,130.318711 222,130" id="Fill-11" fill="#509CAA"></path>
            <path d="M231,125 C230.663198,125.073 230.331126,125.16 230,125.25 C230.331126,125.16 230.663198,125.073 231,125" id="Fill-12" fill="#509CAA"></path>
            <path d="M226,126 C225.661827,126.162 225.327071,126.331 225,126.515 C225.327071,126.33 225.662681,126.162 226,126" id="Fill-13" fill="#509CAA"></path>
            <path d="M229,125 C228.322384,125.163 227.654501,125.346 227,125.552 C227.654501,125.346 228.322384,125.164 229,125" id="Fill-14" fill="#509CAA"></path>
            <path d="M162.107549,27 C105.413067,27 58.5490808,69.4192392 51,124.499346 C53.9665788,123.583127 57.1155292,123.088236 60.3805343,123.088236 C67.8500347,123.088236 74.7160509,125.675271 80.162884,130 C83.7528422,127.878876 87.9297055,126.658367 92.3906265,126.658367 C91.9728296,126.658367 91.5583486,126.671742 91.1460782,126.69292 C97.3964518,92.9043017 126.787135,67.3248665 162.106443,67.3248665 C196.868689,67.3248665 225.890097,92.1028892 232.757219,125.100127 C232.573742,125.125763 232.394686,125.168118 232.212314,125.198213 C233.503284,124.983091 234.822992,124.852681 236.174753,124.852681 C238.376476,124.852681 240.506356,125.154743 242.533444,125.709824 C248.371547,117.837257 257.68908,112.74121 268.18595,112.74121 C269.134283,112.74121 270.071563,112.788024 271,112.869391 C258.902681,63.5606803 214.742216,27 162.107549,27" id="Fill-15" fill="#75C378"></path>
            <path d="M222,128 C221.659701,128.216 221.327363,128.443 221,128.676 C221.327363,128.443 221.659701,128.216 222,128" id="Fill-16" fill="#75C378"></path>
            <path d="M222,130 C221.313043,130.318711 220.642029,130.64906 220,131 C220.642029,130.64906 221.313043,130.318711 222,130" id="Fill-17" fill="#75C378"></path>
            <path d="M224,127 C223.661339,127.176 223.327672,127.359 223,127.552 C223.327672,127.359 223.661339,127.176 224,127" id="Fill-18" fill="#75C378"></path>
            <path d="M231,125 C230.663198,125.073 230.331126,125.16 230,125.25 C230.331126,125.16 230.663198,125.073 231,125" id="Fill-19" fill="#75C378"></path>
            <path d="M226,126 C225.661827,126.162 225.327071,126.331 225,126.515 C225.327071,126.33 225.662681,126.162 226,126" id="Fill-20" fill="#75C378"></path>
            <path d="M229,125 C228.322384,125.163 227.654501,125.346 227,125.552 C227.654501,125.346 228.322384,125.164 229,125" id="Fill-21" fill="#75C378"></path>
            <path d="M222,128 C221.659701,128.216 221.327363,128.443 221,128.676 C221.327363,128.443 221.659701,128.216 222,128" id="Fill-22" fill="#EBD652"></path>
            <path d="M160.937034,43 C112.267238,43 71.8630991,78.2517635 64,124.537837 C69.576517,125.389166 74.6806728,127.670773 78.9219674,131 C82.5150099,128.901451 86.6954617,127.693931 91.1602153,127.693931 C90.7420595,127.693931 90.3272224,127.708267 89.9145977,127.729219 C96.1703413,94.2991019 125.586275,68.9919022 160.935928,68.9919022 C195.72804,68.9919022 224.774381,93.5062187 231.647402,126.152275 C231.463768,126.177638 231.284558,126.219543 231.10203,126.249317 C232.394109,126.037588 233.71495,125.908565 235.067873,125.908565 C237.271487,125.908565 239.403197,126.20631 241.432027,126.755483 C245.103612,121.861442 250.150244,118.053618 256,115.897725 C244.870197,73.9366703 206.530398,43 160.937034,43" id="Fill-23" fill="#EBD652"></path>
            <path d="M224,127 C223.661339,127.176 223.327672,127.359 223,127.552 C223.327672,127.359 223.661339,127.176 224,127" id="Fill-24" fill="#EBD652"></path>
            <path d="M222,130 C221.313043,130.318711 220.642029,130.64906 220,131 C220.642029,130.64906 221.313043,130.318711 222,130" id="Fill-25" fill="#EBD652"></path>
            <path d="M231,125 C230.663198,125.073 230.331126,125.16 230,125.25 C230.331126,125.16 230.663198,125.073 231,125" id="Fill-26" fill="#EBD652"></path>
            <path d="M226,126 C225.661827,126.162 225.327071,126.331 225,126.515 C225.327071,126.33 225.662681,126.162 226,126" id="Fill-27" fill="#EBD652"></path>
            <path d="M229,125 C228.322384,125.163 227.654501,125.346 227,125.552 C227.654501,125.346 228.322384,125.164 229,125" id="Fill-28" fill="#EBD652"></path>
            <path d="M161.999013,57 C119.100135,57 83.646536,88.9653064 78,130.4492 C78.7353526,130.936594 79.4497266,131.453897 80.1409138,132 C83.7271377,129.89202 87.8996561,128.679073 92.3559368,128.679073 C91.9385745,128.679073 91.5245246,128.692366 91.1115789,128.713412 C97.3565549,95.1341663 126.716444,69.713235 161.999013,69.713235 C196.725099,69.713235 225.715214,94.3377199 232.576296,127.130489 C232.391906,127.155966 232.21414,127.198059 232.031958,127.227968 C233.321586,127.014179 234.63992,126.884576 235.990275,126.884576 C238.188604,126.884576 240.317372,127.184767 242.342352,127.736408 C243.160514,126.637556 244.050446,125.595197 245,124.612655 C236.975162,86.0043865 202.865182,57 161.999013,57" id="Fill-29" fill="#F68842"></path>
            <path d="M222,128 C221.659701,128.216 221.327363,128.443 221,128.676 C221.327363,128.443 221.659701,128.216 222,128" id="Fill-30" fill="#F68842"></path>
            <path d="M222,130 C221.313043,130.318711 220.642029,130.64906 220,131 C220.642029,130.64906 221.313043,130.318711 222,130" id="Fill-31" fill="#F68842"></path>
            <path d="M226,126 C225.661827,126.162 225.327071,126.331 225,126.515 C225.327071,126.33 225.662681,126.162 226,126" id="Fill-32" fill="#F68842"></path>
            <path d="M224,127 C223.661339,127.176 223.327672,127.359 223,127.552 C223.327672,127.359 223.661339,127.176 224,127" id="Fill-33" fill="#F68842"></path>
            <path d="M231,125 C230.663198,125.073 230.331126,125.16 230,125.25 C230.331126,125.16 230.663198,125.073 231,125" id="Fill-34" fill="#F68842"></path>
            <path d="M229,125 C228.322384,125.163 227.654501,125.346 227,125.552 C227.654501,125.346 228.322384,125.164 229,125" id="Fill-35" fill="#F68842"></path>
            <path d="M88.5669405,116.538878 C84.0699228,116.538878 79.8590789,117.749546 76.2393664,119.852056 C70.7479222,115.564865 63.8267136,113 56.296695,113 C46.2861347,113 37.3407158,117.52056 31.4216681,124.613654 C28.1743131,122.339131 24.2142857,120.998083 19.9360419,120.998083 C8.92553046,120.998083 0,129.848564 0,140.765399 C0,151.683329 8.92553046,160.532715 19.9360419,160.532715 C22.5513836,160.532715 25.0473942,160.028726 27.3356801,159.120451 C32.5973013,169.710789 43.5868192,177 56.296695,177 C66.8784981,177 76.271409,171.949156 82.1562042,164.146095 C84.2003031,164.695005 86.3482644,164.993015 88.5669405,164.993015 C102.061308,164.993015 113,154.146301 113,140.766494 C113,127.385592 102.061308,116.538878 88.5669405,116.538878" id="Fill-36" fill="#FFFFFF"></path>
            <path d="M303.064868,119.465658 C300.448396,119.465658 297.953466,119.970759 295.664053,120.879066 C290.403485,110.288365 279.41386,103 266.703859,103 C256.120848,103 246.72895,108.051017 240.842993,115.854345 C238.799978,115.304321 236.651996,115.005204 234.433298,115.005204 C220.938799,115.005204 210,125.853386 210,139.234746 C210,152.615011 220.938799,163.463192 234.433298,163.463192 C238.93036,163.463192 243.141245,162.251387 246.760993,160.149901 C252.250281,164.437239 259.172662,167 266.703859,167 C276.713413,167 285.658919,162.480381 291.578025,155.387044 C294.825411,157.661645 298.786582,159.002739 303.064868,159.002739 C314.074382,159.002739 323,150.151955 323,139.234746 C323,128.316442 314.074382,119.465658 303.064868,119.465658" id="Fill-37" fill="#FFFFFF"></path>
        </g>
        <g id="4" transform="translate(205.000000, 262.500000) rotate(-11.000000) translate(-205.000000, -262.500000) translate(163.000000, 212.000000)" fill="#0A0A0A">
            <path d="M83.084,73.401 L66.067,73.401 L66.067,101 L47.334,101 L47.334,73.401 L0.287,73.401 L0.287,62.247 L49.479,0.185 L66.067,0.185 L66.067,57.814 L83.084,57.814 L83.084,73.401 Z M47.334,37.222 L48.478,25.639 L47.906,25.639 L42.758,35.363 L26.885,53.81 L18.877,59.101 L28.887,57.814 L47.334,57.814 L47.334,37.222 Z" id="Combined-Shape"></path>
        </g>
        <g id="0" transform="translate(300.500000, 221.000000) rotate(7.000000) translate(-300.500000, -221.000000) translate(262.000000, 168.000000)" fill="#0A0A0A">
            <path d="M0.803,52.807 C0.803,35.742248 4.06813402,22.8247105 10.5985,14.054 C17.128866,5.28328948 26.4952723,0.898 38.698,0.898 C51.758732,0.898 61.3634693,5.21179019 67.5125,13.8395 C73.6615307,22.4672098 76.736,35.4562466 76.736,52.807 C76.736,69.7764182 73.4470329,82.7177888 66.869,91.6315 C60.2909671,100.545211 50.9007277,105.002 38.698,105.002 C32.2153009,105.002 26.5906905,103.786512 21.824,101.3555 C17.0573095,98.9244878 13.1248488,95.444856 10.0265,90.9165 C6.92815118,86.388144 4.61634096,80.9065322 3.091,74.4715 C1.56565904,68.0364678 0.803,60.81504 0.803,52.807 Z M21.395,52.807 C21.395,63.7703881 22.7296533,72.4218016 25.399,78.7615 C28.0683467,85.1011984 32.5013024,88.271 38.698,88.271 C44.9900315,88.271 49.4706533,85.4110286 52.14,79.691 C54.8093467,73.9709714 56.144,65.0097277 56.144,52.807 C56.144,47.3729728 55.8341698,42.4871884 55.2145,38.1495 C54.5948302,33.8118116 53.6176733,30.1176819 52.283,27.067 C50.9483267,24.0163181 49.1608445,21.6806748 46.9205,20.06 C44.6801555,18.4393252 41.9393495,17.629 38.698,17.629 C32.5013024,17.629 28.0683467,20.6081369 25.399,26.5665 C22.7296533,32.5248631 21.395,41.271609 21.395,52.807 Z" id="Combined-Shape"></path>
        </g>
        <g id="4" transform="translate(367.000000, 294.500000) scale(-1, 1) rotate(85.000000) translate(-367.000000, -294.500000) translate(325.000000, 244.000000)" fill="#0A0A0A">
            <path d="M83.11,73.401 L66.093,73.401 L66.093,101 L47.36,101 L47.36,73.401 L0.313,73.401 L0.313,62.247 L49.505,0.185 L66.093,0.185 L66.093,57.814 L83.11,57.814 L83.11,73.401 Z M47.36,37.222 L48.504,25.639 L47.932,25.639 L42.784,35.363 L26.911,53.81 L18.903,59.101 L28.913,57.814 L47.36,57.814 L47.36,37.222 Z" id="Combined-Shape"></path>
        </g>
        <g id="Page-1" transform="translate(7.000000, 57.000000)">
            <polygon id="Fill-1" fill="#B90763" points="122.225 202.5739 106.662 238.3039 101.481 257.3859 95.0121 256.7359 93.5091 239.1629 91.8751 212.0479"></polygon>
            <polygon id="Fill-2" fill="#B90763" transform="translate(171.565000, 108.912500) rotate(29.000000) translate(-171.565000, -108.912500) " points="149.185 122.623 161.152 98.71 190.425 88.84 193.945 95.222 175.081 106.96 162.168 128.985"></polygon>
            <polygon id="Fill-3" fill="#E11A81" points="133.653 56.655 153.952 105.732 100.1998 121.725 107.86 101.556 102.649 55.955"></polygon>
            <polygon id="Fill-4" fill="#E11A81" points="153.952 105.732 168.003 124.86 166.786 141.075 122.225 202.5736 97.4971 219.0806 55.0331 191.6186 57.0831 169.9936 98.1191 109.728"></polygon>
            <polygon id="Fill-5" fill="#E11A81" points="70.0002 223.7433 58.8152 204.7563 55.0332 191.6183 63.9722 166.008 78.8692 156.241 111.173 177.7233 102.374 218.0713 81.1532 253.7183 75.7592 266.3673 66.2542 265.5453 70.5882 244.5523"></polygon>
            <polygon id="Fill-6" fill="#93054F" transform="translate(123.498000, 23.128500) rotate(31.000000) translate(-123.498000, -23.128500) " points="116.4 45.257 116.695 1 130.596 43.183"></polygon>
            <polygon id="Fill-7" fill="#93054F" points="110.705 30.549 91.9197 40.579 91.5857 62.211 84.5537 73.836 94.2417 95.997 82.7777 132.258 104.397 134.424 116.611 109.032 106.145 61.941 112.672 43.99"></polygon>
            <polygon id="Fill-8" fill="#93054F" transform="translate(35.331155, 200.908578) rotate(-13.000000) translate(-35.331155, -200.908578) " points="63.6699294 176.240647 50.3983809 170.163128 31.0993809 181.118028 23.9273809 216.402028 6.99238088 211.440028 29.7603809 231.654028 50.9623809 221.461028 54.1003809 189.956028 56.2105156 198.728859"></polygon>
            <path d="M73.5971,258.606 L90.7651,218.414 L89.7411,187.722 L82.1111,176.308 C82.1111,176.308 92.4341,165.26 92.4331,165.259 L111.173,177.722 L102.373,218.07 L81.1521,253.716 L75.7581,266.368 L66.2531,265.545 L73.5971,258.606 Z" id="Fill-9" fill="#FF52AC"></path>
            <polygon id="Fill-10" fill="#B90763" points="146.748 88.966 115.694 68.569 105.196 56.512 134.997 58.041"></polygon>
            <polygon id="Fill-11" fill="#E11A81" transform="translate(136.125500, 57.814000) rotate(24.000000) translate(-136.125500, -57.814000) " points="104.772 46.998 162.509 39.71 167.786 51.524 159.177 61.781 153.152 59.962 140.466 69.227 121.202 75.918 104.465 71.372"></polygon>
            <polygon id="Fill-12" fill="#B90763" points="151.33 162.406 162.242 146.579 138.119 139.716"></polygon>
            <polygon id="Fill-13" fill="#E11A81" transform="translate(172.376000, 140.303000) rotate(39.000000) translate(-172.376000, -140.303000) " points="154.607 158.656 135.119 147.716 146.264 128.314 163.058 129.915 180.692 121.95 209.633 132.761 208.336 139.934 186.295 137.14 171.77 151.451"></polygon>
            <polygon id="Fill-14" fill="#FF52AC" transform="translate(181.141000, 134.942500) rotate(39.000000) translate(-181.141000, -134.942500) " points="166.976 141.139 146.649 142.093 152.264 132.314 169.058 133.915 186.692 125.951 215.633 136.761 214.336 143.934 210.533 139.315 189.214 134.559"></polygon>
        </g>
        <g id="Page-1" transform="translate(437.500000, 191.500000) rotate(-9.000000) translate(-437.500000, -191.500000) translate(332.000000, 59.000000)">
            <polygon id="Fill-1" fill="#0970A5" transform="translate(95.393248, 228.390932) rotate(22.000000) translate(-95.393248, -228.390932) " points="80.2182477 200.984932 95.7812477 236.714932 100.962248 255.796932 107.431248 255.146932 108.934248 237.573932 110.568248 210.458932"></polygon>
            <polygon id="Fill-2" fill="#0970A5" points="63.4482 120.623 51.4812 96.71 22.2082 86.84 18.6882 93.222 37.5522 104.96 50.4652 126.985"></polygon>
            <polygon id="Fill-3" fill="#058FD6" points="78.9804 54.655 58.6814 103.732 112.433 119.725 104.773 99.556 109.984 53.955"></polygon>
            <polygon id="Fill-4" fill="#058FD6" points="58.681 103.732 38.63 119.86 45.847 139.075 90.408 200.5736 115.136 217.0806 157.6 189.6186 155.55 167.9936 114.514 107.728"></polygon>
            <polygon id="Fill-5" fill="#058FD6" points="142.633 221.7433 153.818 202.7563 157.6 189.6183 148.661 164.008 133.764 154.241 101.46 175.7233 110.259 216.0713 131.48 251.7183 136.874 264.3673 146.379 263.5453 142.045 242.5523"></polygon>
            <polygon id="Fill-6" fill="#036DA4" transform="translate(95.291384, 23.140812) rotate(-8.000000) translate(-95.291384, -23.140812) " points="102.389434 45.2693117 102.094434 1.01231166 88.1933345 43.1953117"></polygon>
            <polygon id="Fill-7" fill="#036DA4" points="101.928 28.549 120.713 38.579 121.047 60.211 128.079 71.836 118.391 93.997 129.855 130.258 108.236 132.424 96.0224 107.032 106.488 59.941 99.9624 41.99"></polygon>
            <polygon id="Fill-8" fill="#036DA4" points="154.562312 167.837466 167.239312 160.073566 186.538312 171.028466 193.710312 206.312466 210.645312 201.350466 187.877312 221.564466 166.675312 211.371466 163.537312 179.866466 156.612312 189.462466"></polygon>
            <path d="M139.036,256.606 L121.868,216.414 L122.892,185.722 L130.522,174.308 C130.522,174.308 120.199,163.26 120.2,163.259 L101.46,175.722 L110.26,216.07 L131.481,251.716 L136.875,264.368 L146.38,263.545 L139.036,256.606 Z" id="Fill-9" fill="#2CACEE"></path>
            <polygon id="Fill-10" fill="#0970A5" points="65.8852 86.966 96.9392 66.569 107.437 54.512 77.6362 56.041"></polygon>
            <polygon id="Fill-11" fill="#058FD6" points="108.861 34.998 51.1237 27.71 45.8467 39.524 54.4557 49.781 60.4807 47.962 73.1667 57.227 92.4307 63.918 109.168 59.372"></polygon>
            <polygon id="Fill-12" fill="#0970A5" points="61.3031 160.406 50.3911 144.579 74.5141 137.716"></polygon>
            <polygon id="Fill-13" fill="#058FD6" points="55.026 148.656 74.514 137.716 63.369 118.314 46.575 119.915 28.941 111.95 0 122.761 1.297 129.934 23.338 127.14 37.863 141.451"></polygon>
            <polygon id="Fill-14" fill="#2CACEE" points="48.6573 127.139 68.9843 128.093 63.3693 118.314 46.5753 119.915 28.9413 111.951 0.0003 122.761 1.2973 129.934 5.1003 125.315 26.4193 120.559"></polygon>
        </g>
    </g>
</svg>