<svg xmlns="http://www.w3.org/2000/svg" xmlns:xlink="http://www.w3.org/1999/xlink" viewBox="0 0 929 252"><defs><path id="a" d="M0 0h929v252H0z"/><path d="M75.604 22.838C68.475 11.548 48.106 3.39 24.118 3.39c-7.498 0-14.642.797-21.139 2.238-3.672.814-3.806.264-.159-.853C12.092 1.935 22.892.298 34.386.298c22.735 0 42.65 6.354 53.589 15.845l.083-.028c5.339-1.953 16.542-3.919 22.576-3.919 26.993 0 43.485 22.268 43.485 48.59 0 26.323-24.215 45.36-51.208 45.36-26.992 0-46.606-19.037-46.606-45.36 0-15.475 7.575-29.239 19.303-37.955" id="c"/><radialGradient cx="50%" cy="100%" fx="50%" fy="100%" r="549.108%" gradientTransform="matrix(.27126 0 0 .19924 .364 .8)" id="b"><stop stop-color="#FF3D91" offset="0%"/><stop stop-color="#EF3E90" offset="16%"/><stop stop-color="#C2418C" offset="31%"/><stop stop-color="#7D55A3" offset="51%"/><stop stop-color="#6F7EBD" offset="62%"/><stop stop-color="#6A8EC8" offset="71%"/><stop stop-color="#1CC6FF" offset="100%"/></radialGradient></defs><g fill="none" fill-rule="evenodd"><g><use fill="#5A24AA" xlink:href="#a"/><use fill-opacity=".77" fill="url(#b)" xlink:href="#a"/></g><path d="M602.309 158.556c-2.848-17.075-9.978-68.375-9.657-74.4.32-6.025 5.336-8.846 9.638-8.841 4.302.004 84.547-4.723 88.482-3.476 4.416 1.4 5.662 3.031 6.943 13.556 1.281 10.526 4.956 65.005 4.956 65.005s34.623 29.712 40.442 33.581c5.818 3.87-5.498 5.44-12.404 5.486-6.906.046-107.189 4.195-112.006 3.983-3.463-.152-7.5-3.047-8.836-5.62-2.23-4.29-4.71-12.199-7.558-29.274z" fill="#FFF"/><path d="M703.67 149.904c3.524 3.022 34.542 29.586 40.015 33.226 1.612 1.073 2.11 2.137 2.063 2.963-.051.884-.73 1.76-2.048 2.398-2.76 1.34-8.692 1.971-12.984 2-6.909.046-107.239 4.194-112.058 3.983-3.804-.168-8.237-3.348-9.706-6.173-2.253-4.336-4.781-12.322-7.659-29.577-2.856-17.126-9.991-68.58-9.67-74.622.355-6.677 5.901-9.817 10.668-9.811 3.44.003 55.468-3.022 78.155-3.592 5.86-.148 9.826-.093 10.638.165 1.472.466 2.617.972 3.551 1.744 1.11.918 1.942 2.211 2.595 4.334.59 1.916 1.05 4.566 1.507 8.33 1.216 9.987 4.585 59.508 4.933 64.632zm-100.345 8.485c-2.84-17.025-9.965-68.172-9.645-74.18.285-5.373 4.772-7.874 8.609-7.87 3.442.004 55.506-3.022 78.209-3.593 5.487-.138 9.2-.172 9.96.07 1.18.373 2.113.749 2.86 1.367.853.705 1.441 1.728 1.943 3.358.565 1.835.993 4.374 1.432 7.978 1.28 10.516 4.95 64.95 4.95 64.95.02.273.147.528.356.707 0 0 34.71 29.778 40.541 33.657.464.308.798.588 1.006.86.08.106.151.189.146.281-.006.106-.112.171-.217.26-.178.15-.408.286-.677.416-2.57 1.246-8.101 1.766-12.096 1.793-6.902.046-107.138 4.196-111.954 3.984-3.122-.137-6.761-2.748-7.967-5.067-2.206-4.245-4.639-12.076-7.456-28.971z" fill="#5A24AA"/><path d="M606.162 82.678l7.533 67.922 83.65-4.688-6.89-66.573z" fill="#FFF"/><path d="M606.128 81.825a.859.859 0 00-.82.946l7.534 67.922c.05.452.446.784.901.759l83.65-4.688a.858.858 0 00.806-.94l-6.89-66.573a.856.856 0 00-.888-.765l-84.293 3.339zm.988 1.67l7.343 66.207 81.94-4.592-6.715-64.886-82.568 3.27zM617.77 190.44c.095 0 125.83-5.477 125.83-5.477a1.027 1.027 0 00.983-1.068 1.028 1.028 0 00-1.074-.978s-125.644 5.474-125.74 5.474c-.567 0-1.028.46-1.028 1.025s.46 1.024 1.029 1.024zM606.44 159.847c.074-.008 97.95-5.985 97.95-5.985.567-.035 1-.521.965-1.085a1.027 1.027 0 00-1.09-.96s-97.956 5.984-98.03 5.992c-.565.057-.978.56-.922 1.122.057.562.562.973 1.127.916z" fill="#5A24AA"/><path d="M607.18 158.617l10.192 30.728a.853.853 0 01-.546 1.078.86.86 0 01-1.083-.543l-10.222-30.816a.868.868 0 01-.039-.178L597.41 82.21a.854.854 0 01.764-.937.857.857 0 01.942.76l8.065 76.584z" fill="#5A24AA"/><path d="M695.06 174.042c-.115-.957-1.073-1.63-2.136-1.5l-4.118.497c-1.064.128-1.833 1.01-1.718 1.966l.419 3.466c.116.956 1.073 1.629 2.137 1.5l4.117-.497c1.064-.129 1.833-1.01 1.718-1.966l-.419-3.466zm-9.506 1.148c-.115-.956-1.073-1.629-2.136-1.5l-4.118.497c-1.064.128-1.833 1.01-1.718 1.966l.419 3.466c.116.957 1.073 1.629 2.137 1.5l4.117-.497c1.064-.129 1.833-1.01 1.718-1.966l-.419-3.466zm-9.594 1.159c-.115-.956-1.072-1.629-2.136-1.5l-4.117.497c-1.064.128-1.834 1.01-1.718 1.966l.418 3.466c.116.957 1.073 1.629 2.137 1.5l4.117-.497c1.064-.129 1.834-1.01 1.718-1.966l-.419-3.466zm28.695-3.466c-.116-.957-1.073-1.63-2.137-1.5l-4.117.497c-1.064.128-1.834 1.01-1.718 1.966l.418 3.466c.116.957 1.074 1.629 2.137 1.5l4.118-.497c1.063-.129 1.833-1.01 1.718-1.966l-.419-3.466zm-66.728 8.06c-.115-.956-1.073-1.629-2.136-1.5l-4.118.497c-1.063.128-1.833 1.01-1.718 1.966l.42 3.466c.115.957 1.072 1.629 2.136 1.5l4.117-.497c1.064-.129 1.833-1.01 1.718-1.966l-.419-3.466zm76.388-9.227c-.116-.956-1.073-1.629-2.137-1.5l-4.117.497c-1.064.128-1.833 1.01-1.718 1.966l.419 3.466c.115.957 1.072 1.629 2.136 1.5l4.117-.497c1.064-.129 1.834-1.01 1.718-1.966l-.418-3.466zm-66.882 8.079c-.115-.957-1.073-1.63-2.136-1.5l-4.118.497c-1.064.128-1.833 1.01-1.718 1.966l.42 3.466c.115.956 1.072 1.629 2.136 1.5l4.117-.497c1.064-.129 1.833-1.01 1.718-1.966l-.419-3.466zm19.255-2.326c-.116-.956-1.073-1.629-2.137-1.5l-4.117.497c-1.064.128-1.833 1.01-1.718 1.966l.419 3.466c.115.957 1.073 1.629 2.136 1.5l4.118-.497c1.064-.129 1.833-1.01 1.718-1.966l-.42-3.466zm56.9-6.873c-.116-.956-1.074-1.629-2.137-1.5l-4.118.497c-1.064.128-1.833 1.01-1.718 1.966l.42 3.466c.115.957 1.072 1.629 2.136 1.5l4.117-.497c1.064-.129 1.833-1.01 1.718-1.966l-.419-3.466zm-66.56 8.04c-.115-.957-1.073-1.63-2.137-1.5l-4.117.497c-1.064.128-1.834 1.01-1.718 1.966l.418 3.466c.116.956 1.074 1.629 2.137 1.5l4.118-.497c1.063-.129 1.833-1.01 1.718-1.966l-.419-3.466zm20.26-11.094c-.116-.957-1.073-1.63-2.137-1.5l-4.117.497c-1.064.128-1.833 1.009-1.718 1.966l.419 3.466c.115.956 1.073 1.628 2.136 1.5l4.118-.497c1.064-.129 1.833-1.01 1.718-1.966l-.419-3.466zm9.506-1.149c-.116-.956-1.073-1.628-2.137-1.5l-4.117.497c-1.064.129-1.834 1.01-1.718 1.966l.418 3.466c.116.957 1.074 1.63 2.137 1.5l4.118-.497c1.063-.128 1.833-1.01 1.718-1.966l-.419-3.466zm-19.1 2.308c-.115-.957-1.073-1.63-2.137-1.5l-4.117.496c-1.064.129-1.833 1.01-1.718 1.966l.42 3.466c.115.957 1.072 1.63 2.135 1.5l4.118-.496c1.064-.129 1.833-1.01 1.718-1.967l-.419-3.465zm38.354-4.633c-.115-.957-1.073-1.63-2.137-1.5l-4.117.497c-1.064.128-1.833 1.009-1.718 1.966l.42 3.466c.115.956 1.072 1.628 2.136 1.5l4.117-.497c1.064-.129 1.833-1.01 1.718-1.966l-.419-3.466zm-66.88 8.078c-.116-.956-1.074-1.629-2.138-1.5l-4.117.497c-1.064.129-1.833 1.01-1.718 1.966l.419 3.466c.115.957 1.073 1.63 2.136 1.5l4.118-.497c1.064-.128 1.833-1.01 1.718-1.966l-.419-3.466zm-9.507 1.149c-.115-.957-1.073-1.63-2.137-1.5l-4.117.497c-1.064.128-1.833 1.009-1.718 1.966l.42 3.466c.115.956 1.072 1.628 2.135 1.5l4.118-.497c1.064-.129 1.833-1.01 1.718-1.966l-.419-3.466zm85.66-10.347c-.115-.957-1.073-1.63-2.137-1.5l-4.117.497c-1.064.128-1.833 1.009-1.718 1.965l.419 3.466c.116.957 1.073 1.63 2.136 1.5l4.118-.496c1.064-.129 1.833-1.01 1.718-1.966l-.419-3.466zm-56.9 6.873c-.115-.957-1.072-1.63-2.136-1.5l-4.117.497c-1.064.128-1.834 1.009-1.718 1.966l.418 3.466c.116.956 1.073 1.628 2.137 1.5l4.117-.497c1.064-.129 1.833-1.01 1.718-1.966l-.419-3.466zm37.967-4.587c-.115-.956-1.072-1.628-2.136-1.5l-4.118.497c-1.063.129-1.833 1.01-1.717 1.966l.418 3.466c.116.957 1.073 1.63 2.136 1.5l4.118-.497c1.064-.128 1.834-1.01 1.718-1.966l-.419-3.466zm-47.627 5.753c-.115-.956-1.072-1.628-2.136-1.5l-4.118.497c-1.063.129-1.833 1.01-1.717 1.966l.418 3.466c.116.957 1.073 1.63 2.137 1.5l4.117-.497c1.064-.128 1.834-1.01 1.718-1.966l-.419-3.466zm73.171-17.303c-.115-.956-1.073-1.629-2.137-1.5l-4.117.497c-1.064.129-1.834 1.01-1.718 1.966l.419 3.466c.115.957 1.073 1.629 2.136 1.5l4.118-.497c1.063-.128 1.833-1.01 1.718-1.966l-.419-3.466zM703 155.971c-.115-.956-1.073-1.629-2.136-1.5l-4.118.497c-1.063.129-1.833 1.01-1.718 1.966l.419 3.466c.115.957 1.073 1.629 2.137 1.5l4.117-.497c1.064-.128 1.834-1.01 1.718-1.966l-.419-3.466zm-47.626 5.753c-.116-.956-1.073-1.629-2.137-1.5l-4.118.497c-1.063.128-1.833 1.01-1.717 1.966l.418 3.466c.116.957 1.073 1.629 2.137 1.5l4.117-.497c1.064-.128 1.834-1.01 1.718-1.966l-.418-3.466zm9.66-1.167c-.116-.956-1.073-1.629-2.137-1.5l-4.118.497c-1.063.129-1.833 1.01-1.717 1.966l.418 3.466c.116.957 1.073 1.629 2.136 1.5l4.118-.497c1.064-.128 1.834-1.009 1.718-1.966l-.419-3.466zm-28.76 3.474c-.116-.956-1.074-1.629-2.137-1.5l-4.118.497c-1.063.129-1.834 1.01-1.718 1.966l.419 3.466c.115.957 1.073 1.629 2.136 1.5l4.118-.497c1.063-.128 1.833-1.009 1.718-1.966l-.419-3.466zm57.132-6.9c-.116-.957-1.073-1.63-2.137-1.501l-4.117.497c-1.064.129-1.834 1.01-1.718 1.966l.418 3.466c.116.957 1.073 1.629 2.137 1.5l4.118-.497c1.063-.128 1.833-1.01 1.717-1.966l-.418-3.466zm19.254-2.327c-.115-.956-1.072-1.629-2.136-1.5l-4.118.497c-1.063.129-1.833 1.01-1.717 1.966l.418 3.466c.116.957 1.073 1.63 2.136 1.5l4.118-.497c1.064-.128 1.834-1.009 1.718-1.966l-.419-3.466zm-66.88 8.079c-.116-.956-1.074-1.629-2.138-1.5l-4.117.497c-1.064.128-1.834 1.01-1.718 1.966l.419 3.466c.115.957 1.073 1.629 2.136 1.5l4.118-.497c1.063-.128 1.833-1.01 1.718-1.966l-.419-3.466zm28.526-3.446c-.115-.956-1.073-1.629-2.136-1.5l-4.118.497c-1.063.129-1.834 1.01-1.718 1.966l.419 3.466c.115.957 1.073 1.629 2.136 1.5l4.118-.497c1.063-.128 1.834-1.01 1.718-1.966l-.419-3.466zm9.594-1.159c-.115-.956-1.073-1.629-2.137-1.5l-4.117.497c-1.064.129-1.834 1.01-1.718 1.966l.419 3.466c.115.957 1.073 1.63 2.136 1.5l4.118-.497c1.063-.128 1.833-1.009 1.718-1.966l-.419-3.466zm-35.043-3.828c-.115-.957-1.072-1.63-2.136-1.5l-4.118.496c-1.063.129-1.833 1.01-1.717 1.966l.418 3.466c.116.957 1.073 1.63 2.136 1.5l4.118-.496c1.064-.129 1.834-1.01 1.718-1.966l-.419-3.466zm9.66-1.167c-.115-.957-1.073-1.63-2.137-1.5l-4.117.497c-1.064.128-1.833 1.01-1.718 1.966l.42 3.466c.115.956 1.072 1.629 2.135 1.5l4.118-.497c1.064-.129 1.833-1.01 1.718-1.966l-.419-3.466zm47.627-5.753c-.115-.957-1.073-1.63-2.137-1.5l-4.117.497c-1.064.128-1.833 1.01-1.718 1.966l.419 3.466c.116.956 1.073 1.629 2.136 1.5l4.118-.497c1.064-.129 1.833-1.01 1.718-1.966l-.419-3.466zm-66.881 8.078c-.116-.956-1.073-1.628-2.137-1.5l-4.117.497c-1.064.129-1.834 1.01-1.718 1.966l.418 3.466c.116.957 1.074 1.63 2.137 1.5l4.118-.497c1.063-.128 1.833-1.009 1.718-1.966l-.419-3.466zm28.527-3.445c-.115-.957-1.073-1.63-2.137-1.5l-4.117.497c-1.064.128-1.834 1.01-1.718 1.966l.418 3.466c.116.956 1.074 1.628 2.137 1.5l4.118-.497c1.063-.129 1.833-1.01 1.718-1.966l-.419-3.466zm28.694-3.466c-.115-.957-1.073-1.63-2.136-1.5l-4.118.497c-1.063.128-1.834 1.01-1.718 1.966l.419 3.466c.115.956 1.073 1.628 2.136 1.5l4.118-.497c1.063-.129 1.833-1.01 1.718-1.966l-.419-3.466zm-19.1 2.307c-.116-.957-1.073-1.63-2.137-1.5l-4.117.497c-1.064.128-1.834 1.01-1.718 1.966l.418 3.466c.116.956 1.074 1.629 2.137 1.5l4.118-.497c1.063-.129 1.833-1.01 1.718-1.966l-.419-3.466zm38.033-4.594c-.116-.957-1.073-1.63-2.137-1.5l-4.117.497c-1.064.128-1.834 1.01-1.718 1.966l.418 3.466c.116.956 1.074 1.628 2.137 1.5l4.118-.497c1.063-.129 1.833-1.01 1.718-1.966l-.419-3.466zm-28.527 3.446c-.116-.957-1.073-1.63-2.137-1.5l-4.117.496c-1.064.129-1.834 1.01-1.718 1.967l.418 3.465c.116.957 1.074 1.63 2.137 1.5l4.118-.496c1.063-.129 1.833-1.01 1.718-1.967l-.42-3.465zm-57.133 6.9c-.115-.956-1.073-1.628-2.137-1.5l-4.117.498c-1.064.128-1.834 1.01-1.718 1.966l.418 3.466c.116.956 1.074 1.629 2.137 1.5l4.118-.497c1.063-.129 1.833-1.01 1.718-1.966l-.419-3.466z" fill="#FF0BB2"/><path d="M720.426 78.186c-1.693.107-3.169 3.006-3.197 3.938-.42 13.853-3.67 70.839-3.202 86.282.088 2.912 3.1 6.04 6.01 6.375 9.432 1.088 41.455.968 50.582.151 2.184-.196 4.021-2.877 4.18-5.052 1.134-15.598 2.672-73.303 2.628-88.535-.003-1.35-1.533-2.781-2.89-2.857-9.5-.526-44.56-.908-54.111-.302z" fill="#FFF"/><path d="M720.295 76.141c-1.18.075-2.379.798-3.3 1.898-1.137 1.358-1.8 3.223-1.824 4.023-.42 13.873-3.671 70.94-3.202 86.406.058 1.918 1.022 3.933 2.508 5.498 1.47 1.549 3.426 2.632 5.322 2.85 9.51 1.097 41.802.98 51.005.156 1.335-.12 2.614-.794 3.649-1.837 1.357-1.367 2.273-3.363 2.4-5.107 1.136-15.625 2.677-73.43 2.633-88.689-.003-1.18-.594-2.431-1.559-3.367-.92-.893-2.146-1.467-3.275-1.529-9.543-.529-44.763-.91-54.357-.302zm.13 2.045c-1.692.107-3.168 3.006-3.196 3.938-.42 13.853-3.67 70.839-3.202 86.282.088 2.912 3.1 6.04 6.01 6.375 9.432 1.088 41.455.968 50.582.151 2.184-.196 4.021-2.877 4.18-5.052 1.134-15.598 2.672-73.303 2.628-88.535-.003-1.35-1.533-2.781-2.89-2.857-9.5-.526-44.56-.908-54.111-.302z" fill="#5A24AA"/><path d="M719.866 81.03c0 .29-1.847 72.85-1.78 87.784.003.635.298 1.251.798 1.75.62.615 1.555 1.033 2.343 1.086 8.671.587 49.842 1.7 49.842 1.7a1.029 1.029 0 001.057-.997 1.027 1.027 0 00-1.001-1.052s-41.102-1.11-49.758-1.695c-.291-.02-.621-.165-.883-.367-.163-.125-.338-.254-.34-.434-.066-14.933 1.781-87.484 1.781-87.775 0-.565-.46-1.024-1.03-1.024-.567 0-1.029.459-1.029 1.024z" fill="#5A24AA"/><ellipse cx="5.069" cy="6.914" rx="4.58" ry="5.961" transform="translate(742.394 155.939)" fill="#5A24AA"/><path d="M724.323 82.958l-.69 77.819 49.406.524.517-77.82z" fill="#FFF"/><path d="M724.332 82.104a.858.858 0 00-.867.846l-.69 77.818a.856.856 0 00.85.862l49.404.524a.862.862 0 00.61-.245.852.852 0 00.258-.603l.517-77.818a.855.855 0 00-.849-.86l-49.233-.524zm.167 77.827l47.687.507.506-76.112-47.519-.506-.674 76.111z" fill="#5A24AA"/><path d="M809.536 85.514c-5.876-11.99-25.252-22.286-49.101-24.86-7.455-.804-14.644-.778-21.258-.043-3.738.416-3.812-.145-.066-.865 9.523-1.828 20.437-2.297 31.864-1.064 22.603 2.44 41.722 10.893 51.58 21.503l.085-.019c5.518-1.369 16.867-2.12 22.867-1.473 26.836 2.896 40.843 26.805 38.02 52.975-2.825 26.17-28.943 42.5-55.78 39.604-26.835-2.896-44.293-23.929-41.47-50.099 1.661-15.386 10.67-28.257 23.264-35.665" fill="#FFF"/><g transform="rotate(6.159 -139.896 6874.782)"><mask id="d" fill="#fff"><use xlink:href="#c"/></mask><g mask="url(#d)"><g fill="#FF0BB2"><path d="M93.408 61.683c-.78 1.45-2.306 2.317-3.876 2.05-1.509-.258-2.716-1.147-3.544-2.684-.84-1.565-1.22-4.402-.897-7.62.436-4.352 1.93-9.472 3.067-11.548.93-1.708 2.112-2.429 2.862-2.678 2.476-.82 3.829.06 4.61.805.64.614 1.092 1.417 1.302 2.423.135.644-.007 2.17-.092 2.965.154.6.266 1.335.257 2.196-.016 3.103-1.253 9.652-2.322 12.06-.39.894-.866 1.553-1.367 2.03zM129.035 45.544c1.669.415 2.61 1.281 3.22 2.218.56.868.895 1.924.91 3.266.01 1.138-.351 2.783-.738 5.047-.461 2.702-.772 6.93-1.812 9.442-1.66 4.008-3.988 4.55-5.181 4.51-1.183-.038-2.363-.575-3.282-1.883-1.037-1.48-1.755-5.339-1.264-8.213l2.026-11.871c.38-2.226 2.324-3.755 4.339-3.411a3.444 3.444 0 011.782.895z"/><path d="M103.56 29.612c-4.908 7.258-6.778 8.931-8.6 19.608-.27 1.578-1.645 2.66-3.075 2.417-1.43-.245-2.367-1.722-2.098-3.3 2.085-12.215 4.135-13.95 9.904-22.544.52-.774 1.561-1.587 3.199-1.934 1.93-.41 5.19-.32 8.772.225 5.17.786 11.037 2.484 14.386 4.51 2.1 1.27 3.334 2.848 3.7 4.26 1.775 6.77 1.658 16.517.354 24.158-.27 1.578-1.644 2.66-3.074 2.417-1.424-.243-2.368-1.722-2.099-3.3 1.154-6.758 1.334-15.37-.212-21.39a5.114 5.114 0 00-.427-.436c-.554-.458-1.301-.885-2.164-1.298-3.04-1.449-7.43-2.595-11.354-3.192-2.808-.427-6.42-.248-7.211-.201zM84.049 44.792c-.688 4.029-1.09 7.967-1.77 11.947-.27 1.577.674 3.056 2.098 3.299 1.43.244 2.805-.84 3.074-2.416.68-3.98 1.082-7.918 1.77-11.947.27-1.578-.668-3.055-2.098-3.3-1.424-.242-2.805.84-3.074 2.417zM130.816 53.634l-1.777 10.408c-.269 1.577.675 3.056 2.099 3.299 1.43.244 2.805-.84 3.074-2.416l1.776-10.408c.27-1.578-.668-3.056-2.098-3.3-1.424-.243-2.805.84-3.074 2.417z"/></g><path d="M126.338 57.408c0 2.517-.423 5.522.296 7.918.795 2.651 2.665 4.887 4.55 7.087 1.694 1.976 3.406 3.917 4.082 6.234.993 3.406.237 7.81.237 11.32 0 .528.353 3.016 1.501 4.625l1.68-1.185c-.855-1.198-1.121-3.047-1.121-3.44 0-3.688.724-8.312-.32-11.89-.753-2.585-2.602-4.789-4.491-6.993-1.697-1.98-3.43-3.958-4.145-6.344-.666-2.218-.21-5.002-.21-7.332h-2.06z" fill="#FF0BB2"/></g></g><path d="M807.95 85.071c-2.38-4.266-6.545-8.267-12.012-11.738-9.008-5.72-21.528-9.969-35.631-11.49-7.363-.795-14.463-.77-20.995-.044-1.759.195-2.83.149-3.197.038-.766-.229-.938-.768-.973-1.117-.03-.312.017-.837.642-1.241.334-.216 1.353-.57 3.098-.906 9.63-1.85 20.666-2.326 32.222-1.079 22.58 2.437 41.713 10.84 51.85 21.37 5.809-1.303 16.783-1.996 22.68-1.36 27.533 2.972 41.984 27.444 39.086 54.293-2.894 26.818-29.6 43.63-57.1 40.663-27.536-2.971-45.434-24.564-42.536-51.416 1.659-15.37 10.467-28.296 22.866-35.973zm2.143 1.502c-12.246 7.225-21.004 19.754-22.62 34.73-2.751 25.488 14.266 45.96 40.403 48.78 26.173 2.825 51.701-13.02 54.456-38.544 2.75-25.492-10.813-48.837-36.954-51.658-5.889-.636-17.03.1-22.446 1.445l-.119.026c-.416.09-.85-.044-1.14-.356-9.709-10.45-28.563-18.723-50.826-21.126-4.5-.486-8.92-.705-13.206-.678.969.077 1.943.169 2.922.275 14.516 1.566 27.394 5.965 36.665 11.851 6.255 3.971 10.878 8.631 13.327 13.55l.02.033a1.19 1.19 0 01-.13 1.397l-.012.012-.012.014a1.191 1.191 0 01-.328.25z" fill="#5A24AA"/><path d="M580.871 140.372s-1.86-15.368-1.86-22.049c0-6.68-1.617-12.018-.068-23.118 1.549-11.1.246-26.524-.765-33.803-.679-4.893-8.12-7.608-10.262-1.978-1.278 8.834-.604 11.444-.532 16.156.073 4.712-3.79 25.168-5.005 28.166-1.214 2.998-4.828 1.705-5.674-.22-.845-1.925-2.664-13.21-9.193-26.818C540.984 63.1 535.916 56.3 534.65 54.174c-1.267-2.126-4.665-2.29-6.281-1.147-1.616 1.143-3.532 3.31-2.289 6.763 1.244 3.454 9.132 23.72 10.246 28.182 1.147 4.594 7.055 20.757 7.055 20.757-4.907-1.548-5.796-2.254-10.185 1.205-4.39 3.46-1.419 9.746-.091 12.797-2.59 2.772-5.12 7.983-6.12 11.108-1.405 4.386 2.945 11.378 3.202 13.553.702 5.946 5.735 20.365 11.27 30.149 5.534 9.783 2.3 21.086 2.3 21.086l33.782-1.668s-.27-8.007 1.148-17.218c1.417-9.21 3.738-10.826 4.707-21.168.969-10.341 2.913-14.127-2.713-18.347" fill="#FFF"/><path d="M572.83 140.086c.142-.231.207-.46.27-.763.07-.153.214-.31.283-.463l.072-.078c.075-.004.15-.007.223-.085.29-.313.578-.626.713-1.008.21-.384.342-.841.402-1.22.263-.913.53-1.751.721-2.586.132-.457.113-.907.17-1.36.056-.454.033-.98.014-1.43-.038-.9-.227-1.794-.42-2.763-.016-.375-.11-.823-.201-1.195l-.01-.225c.047-.678-.215-1.494-.391-2.088-.167-.369-.327-.588-.49-.881-.165-.294-.174-.52-.41-.735-.164-.293-.252-.59-.412-.81l-.482-.655c-.094-.447-.336-.813-.654-1.175-.396-.435-.796-.944-1.334-1.147l-.078-.071c-.157-.144-.318-.363-.55-.503-.315-.288-.626-.5-.94-.787-.243-.366-.63-.575-1.089-.706l-.006-.15a3.352 3.352 0 01-.856-.565 3.768 3.768 0 00-1.465-.69c.076-.003.154.07-.003-.075-.154-.068-.233-.14-.387-.209-.232-.14-.462-.206-.692-.271-.465-.281-.855-.565-1.314-.696-.537-.203-1.069-.255-1.603-.383-1.072-.33-2.302-.804-3.433-.756-.302.013-.525.097-.827.11-.226.01-.38-.059-.607-.05-.61-.124-1.282.055-1.804.228-.446.169-.892.338-1.342.432-.223.085-.446.17-.745.258-.223.084-.521.172-.82.26-.45.094-.974.192-1.42.361-.522.172-.962.492-1.405.736-.666.33-1.175.802-1.76 1.278-.292.238-.66.479-.952.717-.292.238-.581.55-.795.86-1.162 1.102-1.705 2.554-2.556 3.868-.424.695-.77 1.461-1.043 2.15-.27.762-.467 1.447-.74 2.136-.138.306-.198.685-.257 1.063-.066.228-.204.535-.267.838-.06.379-.119.757-.028 1.13-.072.077-.065.227-.135.38-.062.304-.128.532-.115.833l.012.3c-.144.156-.138.306-.128.531.003.076.078.072.082.147.094.447.704.572 1.15.403.079.071.23.065.38.059l.68-.03c.452-.018.826-.11 1.276-.204.525-.097.977-.116 1.502-.214.978-.117 1.965-.008 2.942-.125.45-.094.827-.11 1.28-.13.154.07.452-.019.603-.025.154.069.23.065.38.059a.51.51 0 00.44-.32l.076-.003c.292-.238.352-.616.191-.835-.003-.075-.006-.15.07-.153l.178-1.135c.043-.754.316-1.442.514-2.127.47-1.373 1.171-2.681 2.189-3.626.299-.088.597-.176.892-.339.224-.085.368-.241.594-.25.299-.089.676-.105.978-.117.377-.016.827-.11 1.204-.127.603-.025 1.207-.05 1.679.38.236.216.54.278.7.497.237.215.47.356.705.571.164.294.328.588.488.806.167.37.41.735.573 1.028.16.22.32.438.402.585.082.147.236.215.318.362.34.888.602 1.704.79 2.598.082.147.167.369.17.444l.02.45c.094.447.189.894.208 1.344.038.9.073 1.726-.04 2.633.004.075-.068.153-.065.228-.063.304-.201.61-.264.914l-1.036 2.3c-.21.384-.42.769-.706 1.157-.073.078-.148.081-.22.16-.217.234-.358.466-.5.697-.21.385-.5.698-.867.94-.436.394-.873.788-1.156 1.251-.716.933-1.281 1.859-1.919 2.863-.562 1.001-1.124 2.003-1.837 3.01-.716.933-1.354 1.937-2.07 2.87-.72.857-1.442 1.64-2.161 2.497-1.514 1.718-2.792 3.652-3.998 5.507-.424.695-.927 1.318-1.35 2.012-.5.698-.924 1.393-1.424 2.09-.93 1.243-1.705 2.554-2.56 3.793-.072.078-.144.157-.14.232l.003.075-.073.078c-.144.156-.204.535-.046.678.242.366.619.35.911.112.531.053 1.06.03 1.515.086.604-.026 1.21.024 1.742.076l1.81-.076c.529-.023 1.06.03 1.588.007.607.05 1.21.024 1.735-.073.6-.101 1.207-.052 1.732-.15.6-.1 1.207-.05 1.735-.073.6-.1 1.2-.201 1.726-.299 1.046-.27 2.102-.314 3.23-.438.529-.022.982-.041 1.516.087.607.049 1.213.098 1.814-.002.525-.098.974-.192 1.502-.215.6-.1 1.204-.126 1.808-.151l1.735-.074c.528-.023 1.053-.12 1.584-.067.607.049 1.135.027 1.738.001.227-.01.45-.094.676-.104.374-.091.754-.032 1.132-.048l.226-.01c.079.072.23.066.383.134.305.063.683.047.984.034.302-.013.532.052.833.04.227-.01.374-.091.6-.101.388.21.9-.189.884-.564l-.007-.15c-.006-.15-.016-.375-.176-.594l-.006-.15c.06-.378-.032-.75-.045-1.05l-.242-5.704c-.013-.3-.177-.594-.34-.887a1.494 1.494 0 00-.85-.415c-.307-.138-.61-.125-.914-.187-.38-.059-.758-.043-1.135-.027-.302.013-.6.1-.899.189-.377.016-.757-.043-1.135-.027-.374.09-.669.254-1.043.345-.299.087-.6.1-.899.188-.672.179-1.348.283-2.024.387-.748.182-1.506.139-2.26.17l-2.414.103c-.751.108-1.503.215-2.188.093a14.952 14.952 0 01-1.141-.177c.289-.313.581-.55.87-.864a39.34 39.34 0 001.656-1.95c.578-.625.923-1.392 1.422-2.09.503-.622 1.081-1.248 1.58-1.946.362-.391.65-.704.937-1.092.15-.007.226-.01.295-.163.069-.154.217-.235.364-.316.145-.157.29-.313.43-.545l.858-1.164c.21-.385.421-.77.635-1.08l.216-.234c.286-.388.572-.776.782-1.161.283-.463.647-.78 1.009-1.17.216-.235.204-.535.119-.757.141-.232.355-.542.571-.776.644-.855 1.13-1.853 1.696-2.779z" fill="#FF0BB2" fill-rule="nonzero"/><g fill="#5A24AA"><path d="M545.42 124.467c2.245.37 4.06.809 5.392 1.45.84.406 1.471.88 1.84 1.507.354.601.447 1.331.316 2.221-.133.905-.408 1.632-.933 2.142-.523.509-1.28.78-2.29.867-1.64.141-3.856-.21-6.792-1.051l-.57 1.968c3.428.983 5.98 1.314 7.827 1.095 1.434-.17 2.494-.665 3.264-1.414.82-.796 1.324-1.898 1.532-3.31.21-1.428-.009-2.59-.577-3.554-.554-.94-1.457-1.705-2.72-2.314-1.471-.71-3.47-1.219-5.952-1.628l-.337 2.02zM542.268 139.984c-3.246 1.717-7.38 3.506-7.38 3.506l.823 1.879s4.214-1.826 7.524-3.576l-.967-1.81zM537.39 136.327s-3.098 1.327-5.882.634l-.5 1.987c3.4.847 7.188-.736 7.188-.736l-.806-1.885z"/><path d="M556.668 142.99c-.11 1.296-.864 2.996-2.5 3.359-1.207.267-2.786-.192-4.84-1.735-4.217-3.166-8.72-6.784-11.943-8.842-1.52-.97-2.795-1.597-3.662-1.761l-.384 2.012c.7.133 1.706.689 2.934 1.473 3.189 2.036 7.642 5.62 11.814 8.753 2.74 2.058 4.919 2.456 6.528 2.1 2.586-.574 3.931-3.14 4.105-5.186l-2.052-.173zM560.628 125.07s-1.417-2.972-3.126-5.34c-.79-1.093-1.65-2.055-2.459-2.604-1.177-.8-2.658-2.675-4.452-4.525-1.971-2.032-4.29-4.025-6.9-4.848-3.2-1.01-4.844-1.61-6.666-1.18-1.222.288-2.548 1.044-4.47 2.558-2.52 1.987-2.981 4.767-2.568 7.506.374 2.482 1.481 4.914 2.172 6.5l1.89-.813c-.637-1.464-1.68-3.7-2.025-5.99-.307-2.032-.059-4.124 1.81-5.597 1.59-1.253 2.656-1.932 3.667-2.171.684-.161 1.331-.099 2.108.084.932.218 2.019.6 3.46 1.056 2.297.725 4.304 2.528 6.04 4.318 1.912 1.971 3.52 3.942 4.773 4.794.884.6 1.801 1.832 2.608 3.076a40.31 40.31 0 012.277 4.054l1.861-.877z"/><path d="M544.239 123.279s-1.542-1.26-3.546-2.246c-1.41-.693-3.044-1.236-4.55-1.194-1.224.034-2.619.895-3.94 2.353-2.63 2.904-5.183 8.16-6.2 11.336-.763 2.382-.033 5.48.992 8.269.909 2.472 2.044 4.667 2.168 5.714.712 6.02 5.792 20.626 11.395 30.532 5.33 9.42 2.208 20.304 2.208 20.304l1.98.56s3.347-11.722-2.393-21.869c-5.465-9.661-10.45-23.894-11.145-29.766-.133-1.128-1.3-3.515-2.28-6.179-.862-2.347-1.605-4.938-.963-6.943.817-2.551 2.684-6.536 4.753-9.336.655-.886 1.326-1.65 1.994-2.195.518-.422 1.008-.719 1.49-.732 1.188-.034 2.465.435 3.578.983a18.531 18.531 0 013.153 1.992l1.306-1.583zM568.92 59.685c-1.244 8.653-.578 11.235-.506 15.879.073 4.78-3.848 25.524-5.08 28.565-1.62 4-6.444 2.375-7.572-.193-.845-1.922-2.658-13.194-9.179-26.787-6.505-13.56-11.557-20.335-12.82-22.453-.472-.792-1.361-1.184-2.263-1.306-.935-.127-1.911.03-2.536.472-1.336.944-2.943 2.728-1.915 5.583 1.247 3.465 9.157 23.803 10.275 28.28 1.141 4.572 7.024 20.654 7.024 20.654l-1.936.7s-5.934-16.243-7.086-20.86c-1.11-4.447-8.977-24.642-10.216-28.084-1.459-4.052.765-6.602 2.661-7.943.991-.7 2.523-1.033 4.007-.832 1.518.206 2.961.958 3.757 2.291 1.271 2.134 6.355 8.959 12.907 22.616 6.536 13.625 8.36 24.922 9.207 26.849.237.54.804.99 1.43 1.223.52.195 1.1.248 1.58-.02.32-.177.578-.494.766-.956 1.197-2.956 5.001-23.122 4.93-27.768-.073-4.759-.748-7.395.542-16.316l.056-.217c2.55-6.703 11.437-3.624 12.245 2.2 1.019 7.34 2.327 22.89.765 34.084-1.54 11.032.077 16.337.077 22.977 0 6.644 1.854 21.927 1.854 21.927l-2.045.245s-1.868-15.454-1.868-22.172c0-6.722-1.617-12.091-.058-23.26 1.536-11.007.237-26.302-.765-33.521-.545-3.932-6.455-6.28-8.239-1.857zM560.505 143.537c-.034.065-.143.35-.205.843-.16 1.251-.24 4.538 1.815 8.72l1.85-.898c-1.993-4.06-1.729-7.126-1.58-7.83l.009-.037s-.045.114-.056.137l-1.833-.935z"/><path d="M560.772 144.924c-1.89-.38-8.923-2.038-14.02-6.49-3.17-2.767-4.226-3.957-5.624-6.414-1.515-2.663-.797-5.624.617-7.519 1.05-1.405 2.491-2.181 3.68-2.086 3.204.258 17.623 1.785 23.221 4.954 2.867 1.622 4.68 3.634 6.502 5.8 1.7 2.022 3.412 4.185 6.152 6.24 3.723 2.792 4.457 5.404 4.205 9.517-.154 2.494-.698 5.592-1.087 9.742-.972 10.37-3.293 11.992-4.714 21.228-1.402 9.11-1.137 17.03-1.137 17.03l-2.058.068s-.274-8.096 1.16-17.408c1.412-9.185 3.733-10.795 4.699-21.108.386-4.123.929-7.2 1.081-9.677.206-3.346-.36-5.485-3.389-7.757-2.886-2.164-4.7-4.43-6.491-6.56-1.67-1.986-3.314-3.848-5.941-5.335-5.389-3.05-19.285-4.444-22.369-4.692-.633-.051-1.302.517-1.86 1.265-.996 1.334-1.545 3.415-.479 5.289 1.286 2.26 2.276 3.339 5.19 5.885 5.516 4.816 13.477 6.097 13.477 6.097.312.051.583.241.736.517 1.207 2.176 3.351 3.246 3.351 3.246l-.92 1.833s-2.432-1.205-3.982-3.665z"/><path d="M549.472 139.788s-.417 3.187 3.19 5.425c2.895 1.796 3.35 1.943 3.41 1.96.19.055.262.042.273.042h.05l-.03-1.024.522-.883s-.17.006-3.135-1.833c-2.366-1.468-2.232-3.472-2.232-3.472l-2.048-.215z"/></g><g fill="#5A24AA" fill-rule="nonzero"><path d="M855.536 131.517c.078-.6.248-1.255.326-1.856.083-1.22.147-2.367.138-3.533.065-1.148.11-2.223.174-3.37.046-1.075.09-2.15-.102-3.208-.035-.165-.016-.237-.052-.402-.035-.164-.143-.348-.179-.512l-.268-.768a12.806 12.806 0 01-.393-1.189 6.85 6.85 0 00-.34-1.097c-.089-.256-.16-.585-.249-.84-.214-.677-.428-1.354-.661-1.958-.214-.676-.41-1.426-.624-2.102l-.268-.768c-.054-.092-.163-.275-.144-.348l-.163-.275c-.252-.531-.577-1.081-.81-1.685-.127-.111-.273-.149-.327-.24-.128-.111-.274-.15-.42-.187 0 0 .019-.073-.054-.092-.198-.44-.599-.699-.961-1.104-.382-.332-.764-.664-1.276-.797-.454-.35-1.04-.503-1.513-.781-.292-.076-.566-.225-.839-.374-.22-.056-.55.013-.73-.19l-.22-.056c-.4-.26-.84-.374-1.35-.507-1.097-.285-2.231-.424-3.4-.728-1.023-.266-2.214-.188-3.204.02-.33.07-.771.266-1.137.17-.22-.056-.493-.205-.823-.136-.165.035-.422.123-.66.14-.422.122-.863.318-1.304.514-.44.196-.993.518-1.325.897-.333.38-.628.613-1.088.881-.514.177-.9.465-1.36.733-.48.341-1.142.79-1.585 1.295-.111.127-.203.18-.314.307l-.111.126c.11-.126-.203.18-.295.234-.387.288-.72.667-1.052 1.046-.406.36-.757.812-1.036 1.283-.278.47-.61.85-.943 1.229-.279.47-.557.942-.763 1.432-.205.49-.502 1.033-.78 1.504-.206.49-.43 1.052-.636 1.542-.26.398-.465.888-.651 1.305-.522 1.106-1.17 2.102-1.673 3.135-.503 1.034-.86 2.105-1.143 3.195-.186.418-.246.945-.359 1.382-.295.233-.427.742-.522 1.106-.097.673-.194 1.346-.31 2.092-.002.31.088.566.085.876-.002.31-.024.692-.026 1.002l-.015 1.858c-.048 1.385-.15 2.678-.198 4.062-.043.765-.013 1.549.183 2.298-.095.364-.116.746-.138 1.129.033.474.12 1.04.153 1.514.014.547.138.967.317 1.48.087.565.266 1.077.353 1.643.106.493.304.933.483 1.445s.285 1.005.372 1.571c.054.092.035.164.09.256.034.165.143.348.251.531.523.99 1.065 1.907 1.588 2.896.181.203.344.478.506.753.055.092.128.11.128.11.2.13.381.333.582.462.273.15.455.351.655.481l.763.664c.074.02.328.24.255.222.146.038.22.057.273.148.274.149.528.37.802.52.146.037.273.148.42.186 0 0 .127.11.2.13l.438.113.054.092a.578.578 0 00.328.24c.328.24.766.355 1.186.542.42.186.877.228 1.37.433l2.703.703c.493.206.912.392 1.48.307.33-.069.66-.138.864-.319.422-.123.844-.246 1.285-.441.495-.105.971-.136 1.448-.167.971-.136 1.907-.436 2.79-.827a3.28 3.28 0 00.624-.304c.4.26 1.118-.097 1.54-.22.184-.108.314-.307.424-.433.13-.2.333-.38.444-.506.314-.306.736-.43 1.05-.736.386-.287.7-.594 1.014-.9.313-.307.592-.777.851-1.176.111-.126.15-.271.26-.398.387-.287.847-.556 1.106-.954.092-.054.111-.126.203-.18.184-.107.314-.306.498-.414.83-.793 1.406-1.807 1.982-2.822.648-.995 1.297-1.99 1.727-3.043.503-1.033 1.06-1.975 1.543-2.936.206-.49.265-1.017.543-1.488.225-.563.449-1.125.6-1.707.302-1.163.678-2.307.98-3.47.151-.582.21-1.11.362-1.691zm-11.17 2.451c-.356 1.071-.84 2.032-1.197 3.103-.205.49-.41.98-.597 1.397-.149.272-.205.49-.262.708-.057.218-.26.398-.316.617-.095.363-.354.761-.614 1.16-.26.398-.519.796-.724 1.286-.26.398-.52.796-.76 1.121-.333.38-.665.759-1.071 1.119-.314.306-.72.667-1.125 1.027-.203.18-.479.34-.628.613a4.845 4.845 0 00-1.139.48c-.533.25-1.176.625-1.726.637-.311-.003-.55.013-.768-.044-.293-.076-.477.031-.715.047a.578.578 0 00-.403.05c-.766-.354-1.2-1.088-1.817-1.714-.309-.313-.71-.572-1-.958-.18-.202-.27-.458-.36-.714l-.433-.734c-.542-.917-.808-1.995-.854-3.016-.014-.547.045-1.075.031-1.621l.015-1.86c.064-1.147.129-2.294.1-3.388-.027-1.093.165-2.13.264-3.113.04-.455.246-.945.36-1.381l.453-1.745c.491-1.89 1.183-3.65 1.947-5.392.187-.417.3-.853.487-1.27.167-.345.28-.78.467-1.198.187-.417.373-.834.54-1.179.114-.436.336-.689.43-1.052.241-.326.317-.616.484-.96.26-.399.52-.797.725-1.287.24-.325.554-.632.868-.938.351-.452.61-.85.998-1.138.405-.36.846-.556 1.287-.752.35-.142.717-.357 1.066-.499.33-.07.641-.066.953-.062.33-.07.676.098.988.101l.495-.104.073.019c.219.057.365.095.603.08.238-.016.53.06.731.19.182.202.382.331.601.388.146.038.347.168.474.279.181.202.455.35.636.553.474.279.802.519 1.072.977.271.459.504 1.063.756 1.594.198.44.47.898.575 1.39.198.44.304.933.318 1.48.032.474.046 1.021.06 1.568-.057.218.052.402-.005.62-.002.31-.078.6-.154.891-.156 1.201-.074 2.387-.138 3.534l.054.092c-.28.78-.361 1.69-.496 2.51-.137 1.128-.42 2.218-.704 3.308-.284 1.09-.494 2.2-.905 3.18z"/></g><g fill="#FF0BB2" fill-rule="nonzero"><path d="M764.168 124.145c.163-.217.25-.438.342-.734.084-.146.243-.287.326-.433l.08-.071c.075.004.15.008.23-.063.318-.284.635-.568.807-.934.246-.363.421-.805.517-1.176.35-.884.696-1.692.967-2.505.175-.442.2-.892.299-1.338.1-.446.128-.97.152-1.42.049-.9-.053-1.809-.151-2.792.02-.375-.031-.83-.086-1.208l.012-.225c.112-.671-.07-1.508-.188-2.117-.13-.383-.27-.616-.404-.924-.135-.308-.123-.533-.337-.77-.134-.309-.193-.613-.332-.846l-.416-.7c-.051-.453-.257-.84-.538-1.232-.353-.47-.702-1.016-1.217-1.27l-.072-.078c-.142-.158-.28-.391-.499-.554-.285-.316-.575-.557-.86-.874-.206-.387-.571-.632-1.015-.807l.008-.15a3.352 3.352 0 01-.797-.644 3.768 3.768 0 00-1.392-.828c.075.004.147.083.004-.075-.147-.083-.218-.162-.365-.245-.218-.162-.44-.25-.662-.337-.437-.324-.797-.645-1.242-.819-.515-.254-1.039-.357-1.559-.536-1.035-.432-2.213-1.022-3.344-1.083-.302-.016-.532.047-.833.03-.227-.012-.373-.095-.6-.107-.595-.183-1.281-.07-1.817.052-.46.126-.921.251-1.378.302-.23.063-.46.125-.766.184-.23.063-.536.121-.841.18-.457.05-.989.097-1.45.223-.535.121-1.004.397-1.468.597-.695.264-1.247.685-1.874 1.103-.314.208-.703.413-1.017.622a4.316 4.316 0 00-.874.78c-1.263.985-1.943 2.377-2.917 3.603-.489.65-.906 1.38-1.244 2.04-.342.733-.605 1.396-.943 2.054-.167.292-.263.663-.358 1.034-.088.221-.255.513-.347.809-.095.37-.191.742-.136 1.12-.08.072-.087.222-.17.368-.092.296-.18.517-.196.817l-.016.3c-.16.141-.167.291-.18.516-.004.075.072.08.068.154.05.455.646.637 1.106.512.072.079.223.087.373.095l.679.037c.452.024.833-.03 1.29-.081.532-.047.984-.022 1.516-.069.984-.022 1.956.181 2.94.16.457-.051.834-.031 1.286-.007.147.084.453.025.603.033.147.083.223.087.373.095a.51.51 0 00.469-.275l.075.004c.314-.209.41-.58.271-.813.004-.075.008-.15.084-.146l.287-1.113c.115-.746.453-1.404.716-2.067.6-1.322 1.424-2.556 2.528-3.399.306-.059.611-.117.92-.251.231-.063.39-.205.616-.192.306-.06.683-.039.984-.022.377.02.834-.03 1.21-.01.604.032 1.207.065 1.635.54.214.237.512.328.65.561.215.237.433.4.647.637.134.308.269.616.408.85.13.382.336.77.47 1.078.14.233.278.466.345.62.067.154.214.237.282.391.253.917.434 1.754.536 2.662.068.154.13.383.127.458l-.024.45c.05.454.102.908.077 1.358-.048.9-.093 1.725-.292 2.617-.004.075-.084.146-.088.221-.091.296-.258.588-.35.884l-1.252 2.189c-.247.362-.493.725-.815 1.084-.08.07-.155.067-.235.138a4.13 4.13 0 00-.564.646 2.596 2.596 0 01-.953.851c-.473.35-.945.701-1.271 1.135-.803.86-1.455 1.727-2.186 2.665-.656.943-1.312 1.885-2.118 2.82-.803.859-1.534 1.797-2.337 2.656-.798.784-1.593 1.494-2.391 2.278-1.673 1.564-3.131 3.366-4.51 5.097-.49.65-1.05 1.222-1.538 1.873-.565.646-1.053 1.297-1.618 1.943-1.045 1.147-1.943 2.377-2.912 3.529-.08.07-.16.141-.163.216l-.005.075-.079.071c-.159.142-.255.513-.112.671.206.387.583.408.897.2.524.103 1.051.131 1.5.23.603.033 1.202.14 1.726.244l1.81.098c.527.029 1.05.132 1.579.16.599.108 1.202.14 1.734.094.607-.042 1.206.065 1.738.019.607-.043 1.206.065 1.734.094.607-.043 1.215-.085 1.746-.132 1.068-.168 2.124-.11 3.259-.125.528.029.98.053 1.5.232.599.107 1.198.215 1.805.173.532-.047.988-.097 1.516-.069.607-.042 1.21-.01 1.814.023l1.734.093c.528.029 1.06-.018 1.583.086.6.108 1.127.136 1.73.169.227.012.457-.05.683-.039.381-.054.754.041 1.131.061l.226.013c.072.079.222.087.37.17.297.091.674.112.975.128.302.016.524.103.826.12.226.012.38-.055.607-.043.365.246.913-.1.933-.476l.008-.15c.008-.15.02-.375-.118-.608l.008-.15c.095-.37.04-.75.057-1.05l.307-5.7c.017-.3-.118-.608-.253-.916a1.494 1.494 0 00-.805-.495c-.293-.166-.595-.183-.892-.274-.373-.095-.75-.116-1.127-.136-.302-.016-.607.042-.913.101-.377-.02-.75-.116-1.127-.136-.381.055-.69.188-1.072.243-.305.059-.607.042-.913.101-.686.113-1.369.152-2.052.19-.762.11-1.512-.006-2.266-.047l-2.412-.13c-.758.034-1.516.068-2.187-.119-.448-.099-.821-.194-1.119-.286.318-.283.632-.492.95-.776a39.34 39.34 0 001.835-1.781c.636-.567 1.053-1.297 1.617-1.944.56-.571 1.196-1.139 1.76-1.785.398-.355.716-.638 1.037-.997.151.008.227.012.31-.134.084-.146.238-.213.393-.28.16-.141.318-.283.481-.5l.966-1.076c.246-.363.493-.726.735-1.013l.238-.213c.322-.359.644-.718.89-1.08.326-.434.72-.714 1.117-1.068.238-.213.254-.513.191-.742.163-.217.405-.505.644-.718.723-.788 1.303-1.735 1.955-2.602z"/></g><g fill="#5A24AA" fill-rule="nonzero"><path d="M671.633 106.138c-.2-.572-.341-1.233-.54-1.805-.474-1.127-.93-2.182-1.462-3.22-.457-1.055-.899-2.035-1.356-3.09-.442-.98-.883-1.961-1.53-2.821-.106-.132-.121-.205-.227-.336-.105-.131-.284-.246-.39-.378l-.584-.566a12.806 12.806 0 01-.884-.886 6.85 6.85 0 00-.795-.828c-.195-.189-.406-.451-.6-.64-.495-.509-.99-1.017-1.47-1.452-.494-.509-1.005-1.09-1.5-1.6l-.584-.566c-.09-.057-.269-.173-.285-.246l-.268-.173c-.464-.362-1.001-.708-1.48-1.143-.164-.042-.311-.01-.401-.068-.163-.041-.311-.01-.459.022 0 0-.015-.074-.09-.058-.373-.304-.848-.356-1.353-.555-.49-.126-.98-.251-1.498-.14-.564-.11-1.154.016-1.703-.02-.295.063-.606.053-.917.042-.222.048-.486.258-.738.158l-.222.048c-.474-.052-.917.043-1.434.153-1.108.237-2.184.621-3.365.874-1.034.221-2.063.825-2.855 1.455-.264.21-.57.583-.94.662-.22.048-.532.037-.796.248-.132.105-.322.299-.528.42-.322.3-.628.672-.934 1.045-.307.372-.655.908-.783 1.396-.127.488-.285.83-.576 1.275-.38.389-.597.82-.888 1.266-.274.52-.666 1.218-.835 1.868-.043.163-.1.252-.143.415l-.042.163c.042-.163-.101.252-.16.34-.216.431-.343.92-.47 1.407a5.408 5.408 0 00-.35 1.611c-.038.546-.165 1.034-.293 1.522-.037.546-.075 1.092-.039 1.622s.014 1.149-.023 1.695c.036.53.088 1.133.124 1.663-.053.472-.017 1.002.003 1.458.03 1.223-.103 2.404-.09 3.553.015 1.149.177 2.266.413 3.368.02.457.204.955.298 1.396-.158.34-.048.855.03 1.222.216.645.43 1.29.662 2.01.136.277.331.466.468.744.137.278.29.63.426.907l.82 1.668c.578 1.26 1.067 2.46 1.645 3.72.305.702.684 1.39 1.194 1.971.079.367.231.719.384 1.07.242.41.573.876.815 1.285.258.483.558.803.947 1.18.332.467.722.844 1.053 1.311.316.393.69.697 1.08 1.075.39.377.705.77 1.036 1.237.09.058.106.131.195.19.106.13.285.246.464.36.911.65 1.807 1.227 2.718 1.877.253.1.521.273.79.446.09.057.163.041.163.041.238.026.49.126.728.152.31.01.564.11.801.136l.98.25c.074-.015.401.069.327.085.148-.032.222-.048.311.01.311.01.638.094.95.104.147-.032.31.01.458-.021 0 0 .163.042.237.026l.443-.095.09.058c.09.057.253.1.4.067.4.068.844-.026 1.303-.048.458-.021.886-.19 1.418-.226l2.732-.585c.533-.037.991-.059 1.461-.39.264-.21.528-.42.629-.672.322-.299.644-.598.95-.971.396-.315.807-.557 1.219-.799.807-.556 1.51-1.244 2.122-1.99.19-.194.307-.373.423-.551.474.052.955-.589 1.277-.888.116-.178.143-.414.185-.577.027-.236.128-.488.17-.65.143-.416.465-.715.608-1.13.217-.43.36-.845.503-1.26.142-.414.18-.96.234-1.432.042-.163.01-.31.053-.472.217-.43.507-.877.56-1.35.059-.088.043-.162.101-.251.116-.178.143-.415.26-.593.386-1.081.445-2.246.505-3.411.133-1.18.267-2.362.179-3.495-.014-1.149.06-2.24.062-3.316-.036-.53-.22-1.028-.182-1.574-.052-.603-.104-1.207-.23-1.794-.25-1.175-.428-2.366-.68-3.542-.126-.587-.31-1.085-.435-1.673zm-8.884 7.2c.162 1.118.16 2.194.323 3.311.036.53.072 1.06.092 1.517-.01.31.036.53.084.75.047.22-.054.472-.007.692.079.368.026.84-.028 1.312-.053.473-.107.945-.07 1.475-.054.472-.107.944-.176 1.343-.127.488-.255.976-.456 1.48-.143.415-.344.919-.545 1.423-.1.252-.275.52-.286.829-.322.3-.57.583-.802.94-.365.462-.772 1.086-1.257 1.344-.28.137-.486.257-.707.305-.295.063-.412.241-.617.362a.578.578 0 00-.338.226c-.844.027-1.56-.434-2.393-.717-.416-.141-.89-.193-1.323-.408-.253-.1-.447-.288-.642-.477l-.717-.461c-.895-.577-1.616-1.42-2.116-2.313-.258-.482-.442-.98-.7-1.463l-.82-1.668c-.457-1.054-.914-2.108-1.43-3.074-.515-.965-.808-1.977-1.16-2.9-.169-.425-.205-.955-.299-1.396l-.377-1.762c-.409-1.91-.58-3.794-.678-5.693-.02-.456-.114-.897-.135-1.354-.005-.383-.099-.823-.12-1.28-.02-.456-.04-.913-.045-1.296-.094-.44-.01-.766-.088-1.133.069-.399.006-.693.001-1.076.054-.472.107-.944.071-1.474.07-.4.212-.814.355-1.228.111-.562.165-1.034.382-1.465.2-.503.507-.876.813-1.249.249-.284.481-.64.73-.924.263-.21.543-.347.822-.483.264-.21.65-.216.929-.353l.396-.315.074-.016c.221-.047.369-.079.575-.2.205-.12.5-.184.738-.158.253.1.49.126.712.079.147-.032.384-.006.548.036.253.1.564.11.817.21.548.036.949.103 1.396.392.448.288.927.723 1.39 1.085.375.304.823.592 1.138.985.374.304.69.698.948 1.18.242.41.5.892.757 1.374.047.22.226.336.273.556.137.278.2.572.263.866.399 1.143 1.004 2.166 1.461 3.22l.09.058c.099.824.435 1.674.682 2.466.383 1.07.619 2.171.855 3.273.235 1.102.545 2.188.617 3.248z"/></g><g fill="#FFF"><g fill-rule="nonzero"><path d="M87.03 105.01c-.77-1.649-4.137-5.042-5.964-5.623-3.463-1.067-6.733-1.746-10.484-1.94-7.022-.484-13.947.194-20.968 0-.096-.096-.289 0-.289.194-.192 4.848-.385 9.792-.48 14.64-.193 6.01.384 11.924.384 17.935 0 3.78 0 7.562.096 11.343v5.623c.096 3.199.193 6.592-.385 9.791-.288 1.842 0 3.49.097 5.236-.097.097-.289.29-.289.484s-.096.388-.096.582c-.096.29 0 .582.288.776 0 0 .097 0 .097.097l.288.29c.289.194.673.194.866 0 .288 0 .577.097.865.097.193 0 .289-.097.481-.193h1.636c1.346 0 2.596.29 3.943.29 1.731 0 3.367.97 4.905.097.193-.194.289-.387.289-.581l.192-.194v-.097c.097-.097.097-.097.097-.194v-.097c.096-3.684-.385-7.465-.385-11.246 0-4.266 0-8.628.096-12.991 1.924.29 3.944.29 5.771 0 2.116-.388 4.425-.097 6.637-.582 3.366-.775 7.79-2.133 10.003-5.235.289-.097.48-.29.77-.485 1.827-1.55 3.558-4.847 3.847-7.174.577-4.168.77-8.143.77-12.312 0-3.296-1.732-5.623-3.079-8.532zm-12.12 19.97c-.288.485-.577.873-.865 1.261-1.828.776-3.655 1.939-5.772 2.036-1.058 0-2.02.776-3.174.872-.865.097-1.73 0-2.5-.193 0-3.2-.289-6.399-.481-9.598v-5.526c0-1.648-.193-3.878.096-5.526 3.366.194 6.637.581 9.81 1.745 4.137 1.454 4.714 5.429 4.81 9.404 0 2.133-.866 3.878-1.924 5.526zM137.622 161.724v-1.163c0-.68-.192-1.358-.288-1.94-.096-.775 0-1.454.096-2.132 0-1.551-.096-3.103-.096-4.557 0-1.551-.096-3.2 0-4.75 0-1.454.192-3.006.096-4.46v-6.883c0-.679-.096-1.454-.096-2.133-.096-.679-.096-1.454-.096-2.133 0-.678.096-1.454.096-2.133 0-.678.096-1.26.096-1.842.096-.678 0-1.357-.096-1.939 0-.678-.096-1.26-.096-1.939 0-.678 0-1.357-.193-2.035 0-.291-.288-.388-.48-.388-.193 0-.29.097-.385.194h-1.059c-.48 0-1.058 0-1.538-.097-.481-.097-.962-.194-1.54-.194h-1.538c-.385 0-.77-.097-1.155-.097-.48 0-1.058.194-1.442.097-.866-.291-1.732-.291-2.501 0-.193.097-.385.29-.289.485v.581c0 .291-.096.485-.096.776-.096.581-.192 1.26-.192 1.842-.289-.097-.577-.291-.962-.485a.732.732 0 00-.481-.194c-.289-.29-.577-.485-.77-.678-.673-.582-1.346-1.164-2.116-1.552h-.192c-.192-.097-.48-.29-.673-.387h-.577c-.193-.097-.289-.291-.481-.291-.481-.291-1.058-.388-1.635-.388-.193 0-.385-.097-.577-.097h-.385l-.866-.29c-.577-.098-1.25-.098-1.827-.195a6.398 6.398 0 00-1.924 0c-.481.097-.962.291-1.443.388h-.48c-.77-.097-1.444 0-2.117.194-.673.097-1.25.388-1.827.679-.77.29-1.443.581-2.116.969-.481.29-1.058.388-1.636.679-.673.29-1.25.775-1.635 1.357a11.141 11.141 0 01-1.346 1.648c-.481.485-.77 1.066-1.25 1.648-.482.582-.866 1.164-1.251 1.745-.385.679-.866 1.26-1.154 1.94-.385.58-.674 1.066-1.058 1.647-.385.582-.674 1.26-.77 1.94-.096.775-.192 1.453-.384 2.132-.097.388-.097.873-.097 1.26 0 .388-.096.873-.096 1.26-.096.776-.192 1.455-.288 2.134-.097.775 0 1.648 0 2.423.096 1.454.192 3.006.48 4.557.29 1.454.866 2.908 1.54 4.169.192.29.288.581.48.872.097.291.289.582.481.873.289.678.577 1.357.962 1.939.673 1.357 1.443 2.714 2.501 3.78.962.97 1.731 2.23 2.79 3.2 1.057.872 2.308 1.551 3.558 2.23.577.29 1.25.581 2.02.678.289.097.673.097 1.058.097s.577.194.962.194a7.05 7.05 0 002.02 0h2.404c1.155 0 2.405-.194 3.463-.582.289-.097.577-.193.77-.387.192-.097.288-.194.384-.291.289 0 .577.097.866.097.385 0 .673-.194 1.058-.291.577-.291 1.058-.776 1.635-1.067.385-.193.577-.387.77-.678.192-.097.288-.291.384-.485a.732.732 0 00.481-.194c.289-.097.673-.194.962-.29.192-.195.48-.291.673-.485 0 .484 0 1.066.096 1.648-.192.29-.288.581-.288.872 0 .582.577.776.962.582.77-.388 1.731 0 2.5.097h.578c.288 0 .48.097.77.097.48.097.961.194 1.442.097h.385c.288-.097.48 0 .77 0h1.634c.481 0 .866 0 1.347.097.385 0 .77-.097.962-.388.577.29 1.25 0 1.346-.776 0-.678-.192-1.357-.096-2.036 0-.29.096-.581.096-.872zm-12.504-23.85c.096.486.193 1.067.385 1.552.192.388.385.872.385 1.26 0 .485.192.873.192 1.358.193.581.193 1.066.193 1.55v.68c-.385.387-.481.969-.578 1.55-.192.582-.288 1.26-.384 1.94a10.263 10.263 0 01-1.25 3.393c-.29.484-.77.775-1.059 1.163-.384.485-.77.97-1.058 1.454-.096.097-.288.194-.385.194-.384.194-.673.291-1.154.582-.288.194-.673.485-1.058.678-.577 0-1.058.194-1.539.485a3.377 3.377 0 01-1.635.388c-.288 0-.48-.097-.77-.194-.288-.097-.673-.097-1.057-.194-.289 0-.674-.097-.962-.194-.385-.097-.673-.29-1.058-.388a4.23 4.23 0 01-1.54-.581c-.48-.388-.865-1.067-1.346-1.551l-.577-.873c-.288-.194-.48-.485-.77-.775-.384-.485-.865-1.067-1.25-1.746-.384-.484-.384-1.26-.673-1.842-.289-.581-.385-1.357-.48-1.939 0-.775-.097-1.454-.097-2.132 0-.679.288-1.455.385-2.133.096-.679.288-1.26.384-1.94.097-.58.481-1.163.674-1.744.288-.679.48-1.26.77-1.745.384-.679.769-1.26 1.153-1.745.193-.194.289-.388.385-.485.192-.194.385-.388.577-.485.481-.388.866-.678 1.347-.97.48-.193.962-.29 1.443-.387.384-.097.673-.194.961-.388.193-.097.289-.194.385-.29a8.947 8.947 0 001.539-.389c.289-.096.481 0 .77 0 .288 0 .577 0 .865.097l.866.291c.288 0 .577.097.962.194.288.097.577.194.865.194.289.194.577.485.77.679.385.387.865.581 1.25.872.674.679 1.443 1.26 2.02 1.94.289.387.481.775.673 1.163.193.484.289.969.481 1.454zM175.23 121.103c0-.097-.096-.097-.096-.097 0-.097-.097-.194-.289-.291-.288-.194-.77-.485-1.154-.388-.096 0-.385.097-.481 0-.192-.097-.289-.194-.577-.194-.289 0-.577-.097-.866-.194-.385-.097-.866 0-1.25 0-.962 0-1.732.388-2.693.485 0 0-.097 0-.097.097h-1.154l-.577.291c-.096.097-.192.097-.385.194-.288 0-.577.097-.865.194-.289.097-.577.29-.77.388-.385.29-.77.387-1.154.678-.673.485-1.347 1.067-1.827 1.745-.578.485-.866 1.164-1.155 1.842-.192-.097-.384-.097-.48 0 0-1.454-.097-2.811-.097-4.168 0-.388-.385-.68-.77-.582 0 0 0 .097-.095.097-.097-.097-.193-.097-.385-.097l-.289.194h-2.02c-.77 0-1.635.097-2.5.097-.866 0-1.828.097-2.694 0-.48 0-.961-.097-1.442-.194-.289 0-.577 0-.866.097-.096-.194-.192-.194-.385-.194h-.288c-.289 0-.481.194-.481.485 0 .387.096.678.192 1.066v.097c0 .194-.096.29 0 .485v.194c0 .387-.096.775-.192 1.163-.096.776 0 1.648 0 2.327-.096 1.55-.096 3.102-.096 4.556 0 .679.096 1.357.096 1.94v2.423c-.096 1.648-.096 3.2-.096 4.847v4.75c0 1.358.096 2.812.096 4.266v7.078c0 .775-.096 1.55 0 2.326 0 .291.096.582.192.776v.872c.096.291.193.582.193.776 0 .29-.097.485-.097.776-.096.387-.384.775-.48 1.26 0 .194.096.388.096.582-.097.387.096.775.577.872.192 0 .577.291.962.194.384-.097.769-.194 1.154-.194 1.058-.097 2.116 0 3.174 0 1.058 0 2.116.194 3.078 0 .962-.097 1.923 0 2.885 0 0-.097.096-.097.096-.097.193.388.674.388.77 0 0-.29.096-.581.096-.872v-2.327c0-.873-.096-1.648-.192-2.424-.096-1.454-.096-3.005-.096-4.556 0-1.358.096-2.812.096-4.266 0-.679.096-1.357.096-2.133.096-.29.096-.678.096-1.066s-.096-.776-.192-1.164c-.096-1.454 0-3.005 0-4.46 0-.678.288-1.357.384-2.035v-.873c.097 0 .193-.097.193-.29.096-.582.192-1.067.288-1.649.193-.484.481-1.066.674-1.648.096-.194.288-.388.384-.581.193-.291.385-.485.578-.68a5.534 5.534 0 011.058-1.066c0-.096.096-.096.096-.193.384-.194.673-.388 1.058-.582.577-.29 1.154-.582 1.827-.679.577-.194 1.058-.194 1.635-.194.578.097 1.25-.097 1.828-.097.192 0 .288.097.577.097.192.097.48.097.77.097h.577c.096.097.192.097.288.194h.193c.192.194.384.194.673.194.192.097.385.194.577.388.288.194.577.097.673-.194.096-.194.096-.29 0-.388.193-.194.193-.485.193-.775 0-.194 0-.388.096-.582 0-.194 0-.485.096-.679.096-.97.096-1.939.289-2.811.192-.873.192-1.648.384-2.52.193-.389.193-.776.193-1.164.096-.485.288-.97.288-1.454 0-.194-.096-.388-.192-.388zM195.91 124.108c0-.97.192-2.036.192-3.005a.67.67 0 00-.48-.97c-.097 0-.193 0-.29-.097-.288 0-.48-.194-.769-.194h-.962c-.288 0-.48-.096-.77-.096a2.724 2.724 0 00-1.25 0c-.865 0-1.827-.097-2.693.096-.385 0-.673.194-.962.194-.48.097-.961.097-1.346.097h-2.116c-.481 0-1.058 0-1.443.291-.192.291-.192.485-.096.776 0 .097 0 .194.096.29 0 .098.096.195.096.291 0 .388-.096.68-.096 1.067v.97c0 .387.096.678.096 1.066.096 1.55-.096 3.102-.096 4.653 0 .679 0 1.358.096 2.036.193.582.096 1.26.193 1.94.096.678 0 1.356-.097 2.035 0 .776.097 1.551.193 2.327.192 1.454 0 3.005 0 4.556 0 1.455.096 3.006.096 4.46.096.776.096 1.648.096 2.424-.096.97-.288 1.939-.288 2.908 0 .582-.097 1.163-.097 1.842v1.842c0 1.357 0 2.618-.096 3.975-.096.679-.096 1.26-.096 1.939v.97c0 .096 0 .193-.096.193-.193.194-.193.582-.193.776-.288.194-.192.678.193.775h.192c.962.194 2.02.194 3.078.194h.77c.192.097.48 0 .577.097.48.194.961.291 1.442.291 2.02.194 4.136-.485 6.156-.485.385 0 .866-.387.77-.775 0-.388-.096-.679-.385-.97 0-.097-.192-.194-.289-.194 0-1.066 0-2.132-.096-3.102-.096-.679 0-1.454.096-2.133.097-.775.097-1.55.193-2.327.096-3.005-.096-6.107.096-9.113.096-3.102.192-6.204.192-9.307v-4.556c0-1.551-.096-3.2 0-4.75.097-1.067.097-2.23.193-3.297zm.77-22.492c0-.678-.482-1.357-.866-1.842-.289-.387-.481-.678-.962-1.163-.385-.485-.77-1.066-1.25-1.551-.866-.97-2.213-1.454-3.56-1.648h-.865c0-.291-.289-.388-.577-.291-.193-.097-.385.097-.577.194h-.097s-.192.097-.288.097c-.096.097-.289.097-.385.194h-.096c-.096.097-.289.097-.385.097-.385 0-.577.096-.865.193-.77.388-1.347 1.067-1.828 1.745-.096.097-.192.194-.289.388-.384.194-.577.582-.769.97-.096.194-.385.388-.48.678-.193.291-.29.776-.482 1.164l-.096.29c-.096.098-.096.194-.096.194v.097c-.193.388-.385.873-.193 1.26 0 .098.097.195.097.292v.193c0 .485-.097 1.067 0 1.649.096.484.48.872.865 1.26s.674.775.962 1.163l.577.582c.096.29.289.485.385.679.385.387.866.678 1.25.872a8.134 8.134 0 002.982.873c.481.097 1.058.194 1.539.097l.866-.291c.288-.194.577-.291.865-.388.577-.29 1.058-.873 1.54-1.26a7.68 7.68 0 001.634-1.455c.962-.969 1.54-2.326 1.636-3.684 0-.581-.193-1.163-.193-1.648zM236.596 152.223c0-.872 0-1.648-.097-2.52-.096-.194-.096-.485-.096-.776 0-.388-.096-.679-.192-1.067-.193-.678-.289-1.357-.481-1.939-.385-1.26-.962-2.52-1.924-3.393-.288-.194-.48-.388-.77-.581-.288-.194-.384-.485-.769-.582-.192-.097-.385-.388-.577-.485-.288-.194-.577-.485-.866-.582-.48-.29-1.058-.387-1.442-.678-.097-.097-.289-.194-.385-.194-.192-.194-.385-.29-.577-.485-.866-.581-1.731-1.066-2.693-1.357l-1.443-.582-1.154-.581c-.577-.194-1.25-.291-1.924-.485-.192-.097-.385-.291-.577-.388h-.096l-.289-.29c0-.098-.192-.195-.288-.195-.097-.194-.289-.484-.385-.678-.193-.291-.193-.776-.193-1.164.193-1.163.77-2.23 1.347-3.199.289-.485.577-.582 1.058-.679a1.8 1.8 0 01.77-.194c.288-.096.673-.096.961-.096.578 0 1.058 0 1.54.096.288 0 .576-.096.865 0 .289.097.481.194.77.291 0 .097.096.097.096.097.577.388.865.97 1.442 1.26.289.098.289.485.674.485v.097c.096.194.384.291.577.097.192 0 .288 0 .385-.097l.384-.388c.193-.29.289-.581.481-.872.289-.485.577-.97.962-1.551.385-.485.673-1.067 1.154-1.454.193-.194.385-.485.577-.68.193-.096.289-.193.385-.29.289-.097.481-.679.77-.679l.288-.29c.289-.291.096-.776-.288-.97 0-.097-.097-.097-.193-.097 0-.097-.096-.097-.096-.097h-.096c-.192-.29-.481-.484-.673-.678l-.866-.582c-.481-.194-.77-.29-1.25-.29-.097 0-.193-.098-.289-.098-.48-.29-.962-.582-1.539-.872a18.772 18.772 0 00-1.347-.582c-.48-.097-.865-.194-1.346-.29h-.096c-.289-.195-.674-.195-1.058-.195h-.193c-.288-.097-.577-.097-.865-.097-.289-.097-.577-.097-.866-.097-.192-.097-.289-.097-.385-.097h-1.154c-.096 0-.289-.097-.385-.097-.48 0-.962-.194-1.442-.29-.481 0-.962 0-1.443.096-.481 0-.962.097-1.443.097-.192 0-.48 0-.673.097-.096 0-.193 0-.289.097-.096 0-.096 0-.096.097-.481 0-.866.485-1.347.679-.384.194-.673.485-1.058.679 0 .097-.096.097-.096.097l-.192.193s-.096 0-.193.097c-.48.194-1.058.679-1.539 1.067-.096.097-.096.194-.192.194-.096.097-.192.194-.288.194-.385.387-.77.872-1.058 1.26-.578.775-1.058 1.648-1.636 2.424-.288.29-.48.775-.577 1.163-.288.388-.48.872-.673 1.357-.192.485-.192 1.067-.385 1.454-.288.485-.192 1.067-.288 1.649-.096.387 0 .872 0 1.357a5.313 5.313 0 000 1.745c.096.485.384.872.48 1.357.097.582.29.97.482 1.454.288.873.673 2.036 1.25 2.715.385.388.77.679 1.154.97.289.29.481.678.77.969.096.097.096.194.192.29.096.098.385.195.577.195.096 0 .192.097.289.097l.577.581c.577.291 1.058.485 1.635.776.962.29 2.116.388 2.982.775.865.388 1.539.97 2.404 1.164.385.29.866.485 1.347.678 1.154.485 2.212 1.164 2.885 2.327.385.582.481 1.067.481 1.745v.873c-.096.388-.288.775-.384 1.163-.097.291-.289.582-.385.97-.385.193-.673.484-1.058.678-.193.194-.481.291-.77.388-.384 0-.673 0-1.058.097-.673.194-1.443.097-2.212 0-.673 0-1.347-.194-2.02-.29-.866-.195-1.635-.389-2.308-.97-.289-.194-.577-.388-.77-.582-.288-.194-.673-.29-.962-.388-.673-.388-1.25-.97-1.73-1.551-.097-.194-.193-.194-.386-.194-.096-.097-.192-.097-.384 0-.289-.097-.577 0-.674.29a4.14 4.14 0 01-1.346 1.552c-.481.388-.866 1.067-1.154 1.551-.481.679-1.059 1.358-1.54 2.036-.288.485-.673.873-.865 1.454-.096 0-.096.097-.096.194v.194c-.096.097 0 .194 0 .291 0 .097.096.097.096.194.096.194.192.194.385.29.096.098.192.098.288.195h.096c0 .097.097.194.193.29.096.097.288.291.48.291.097.097.097.194.193.291.385.291.577.582.866.873.288.29.673.484 1.058.678h.096s.096.097.192.097.193.097.289.097c.192.194.288.194.48.291.097.097.29.194.097.097.192.097.289.194.48.194v.097c.097.485.578.679.963.775.577.291 1.154.582 1.731.68.289.096.577.096.866.29.288.097.48.29.77.388.672.29 1.346.194 2.019.194.192.097.385.097.577.097.289 0 .577.193.866.29.288.097.77.097 1.154.194.385.097.673 0 1.058 0 .385-.097.866.097 1.25-.097.289-.097.77 0 1.155-.097.192-.097.384-.193.577-.193h.385c.48.096.865 0 1.25-.194.577-.194 1.154-.194 1.635-.388.481-.097.77-.388 1.25-.485.481-.194.962-.388 1.443-.679l.289-.29c.096 0 .192-.097.288-.194.096 0 .096 0 .193-.097h.096c.48-.097.962-.291 1.346-.582.481-.388 1.058-.679 1.443-1.26.193-.291.577-.582.77-.873l.096-.097c.673-.29 1.154-.678 1.539-1.26.192-.194.288-.485.385-.679.096-.194.192-.387.288-.484 0-.194 0-.388.096-.582.193-.582.385-1.26.577-1.842.289-.582.385-1.26.481-1.842.097-.679.097-1.454.097-2.133zM360.288 98.126c.096-.388-.096-1.066-.673-1.066-1.154 0-2.212-.097-3.27-.097-.481 0-.866.194-1.25.194h-1.732c-.962.097-1.828.194-2.79.29-.961 0-1.827.194-2.693-.193-.096-.097-.192-.097-.384-.097a.66.66 0 00-.674.678c0 .582-.288 1.164-.288 1.745v.194c-.096.291-.193.582-.193.776-.096.194-.192.388-.192.582-.096.678-.288 1.357-.48 2.035-.482 1.455-1.059 2.812-1.444 4.363 0 .291-.192.582-.384.873-.097.29-.289.678-.385.97-.289.678-.385 1.356-.577 2.035-.193.582-.289 1.163-.577 1.745l-.577 2.036c-.385 1.454-.674 2.908-1.058 4.363-.097.581-.289 1.26-.481 1.939 0 .194-.097.387-.193.581-.192.291-.192.679-.288.97-.096.194-.096.485-.193.775-.096.291-.288.582-.288.873-.193.679-.385 1.26-.577 1.939-.193.678-.289 1.357-.481 1.939a72.735 72.735 0 01-.577 2.23c-.385 1.26-.577 2.617-1.058 3.878-.193.29-.385.581-.481.872 0 .29-.096.582-.193.873-.096.193-.096.387-.192.678-.192.485-.48 1.067-.673 1.551-.193.485-.289.97-.385 1.455-.192.387-.192.97-.385 1.26l-.288.582c0 .097-.097.097-.097.193v.194c-.288-.581-.577-1.066-.769-1.648-.289-.581-.48-1.163-.77-1.745-.288-.581-.577-1.163-.769-1.745-.962-2.714-1.635-5.623-2.116-8.434-.192-.679-.289-1.26-.48-1.842-.193-.776-.482-1.455-.77-2.23-.481-1.357-.866-2.812-1.25-4.363-.77-2.811-1.347-5.72-2.31-8.531-.192-.582-.48-1.164-.673-1.648-.192-.582-.288-1.164-.48-1.745-.097-.582-.385-1.164-.578-1.745l-.577-2.036c-.384-1.358-.673-2.715-1.058-4.072-.096-.679-.192-1.26-.48-1.94a6.196 6.196 0 01-.578-1.744c-.096-.388-.577-.485-.865-.388h-.097c-.288 0-.48 0-.769.097 0 0-.289 0-.385-.097-.577-.097-1.154-.194-1.731-.194-.673 0-1.25 0-1.828.097-.673 0-1.25.194-1.923.194-.674.097-.77.776-.481 1.066 0 .194 0 .388-.096.485-.193.291-.289.582-.481.873-.289.678-.385 1.454-.481 2.23-.289 1.357-.481 2.908-1.058 4.265-.674 1.357-1.058 2.812-1.443 4.266-.48 1.454-.866 2.908-1.25 4.363-.674 3.005-1.924 5.72-2.694 8.628-.384 1.551-.577 3.102-.961 4.556-.193.68-.289 1.358-.385 2.036l-.289.873c-.096.388-.192.679-.288 1.066-.096.388-.289.776-.385 1.067-.192.388-.096.775-.192 1.066-.097.291-.289.582-.385.873-.096.29-.192.678-.289.97-.192.29-.288.58-.48.872l-.29 1.163c-.192.679-.48 1.357-.672 2.133-.385 1.454-.674 3.005-1.155 4.363l-.288-1.455c-.096-.678-.289-1.357-.481-2.036-.192-.775-.577-1.357-.673-2.132-.193-.679-.385-1.358-.481-2.036-.193-.679-.577-1.358-.674-2.133-.288-1.454-.673-2.909-1.058-4.363-.48-1.454-.673-3.005-1.154-4.46-.385-1.454-1.058-2.908-1.539-4.265-.48-1.454-.962-2.909-1.346-4.363-.193-.775-.481-1.454-.674-2.133-.192-.775-.48-1.55-.673-2.326-.096-.291-.289-.582-.385-.873-.096-.29-.096-.678-.192-.97-.096-.581-.385-1.163-.673-1.744-.481-1.26-.77-2.618-1.058-3.878-.193-.679-.289-1.26-.385-1.94-.096-.58-.385-1.26-.481-1.841-.192-.97-.577-1.842-.77-2.812 0-.097-.096-.29-.192-.388v-.096c-.096-.291-.288-.388-.48-.388-.29-.097-.482 0-.674.194-.096 0-.289.097-.385.097-.288.097-.577.097-.962.193-.577-.29-1.346 0-2.02 0h-1.635c-.384 0-.673-.096-1.058-.193-.48-.194-.962-.097-1.442-.097-.481 0-1.059.097-1.54.097-.769-.097-1.827-.291-2.596.097v-.097c-.289-.194-.77.097-.481.387v.097c-.097.194 0 .388.096.485 0 .29.096.485.192.582.096.097.096.194.096.29.097.194.193.485.385.68.096.29.192.678.289.969.192.775.384 1.454.577 2.133.192.775.288 1.454.385 2.23.096.678.288 1.357.48 2.035.097.776.289 1.454.578 2.036.288.582.48 1.067.769 1.648.192.582.385 1.26.577 1.94.385 1.356.866 2.714 1.347 4.071.288.679.48 1.26.673 1.939 0 .485.096.97.385 1.454.192.582.384 1.164.48 1.745.193.679.482 1.26.77 1.94.193.678.385 1.453.577 2.229.289 1.26.962 2.52 1.25 3.878.097.582.29 1.163.482 1.745.096.29.288.582.384.872.096.291.193.68.193 1.067.192.679.384 1.26.673 1.842.289.582.385 1.26.577 1.842.481 1.454.77 2.811 1.058 4.266.385 1.454.577 3.005.962 4.46.48 1.26.866 2.52 1.154 3.78.193.679.481 1.26.673 1.842.193.679.481 1.357.674 2.036.096.776.288 1.454.48 2.133.097.679.385 1.357.674 1.939.577 1.26.962 2.618 1.539 3.878.096.29.288.678.48.97v.096c0 .291.097.582.193.873.096.097.193.194.193.388v.581s.192.291.192.388l.288.29c.097.098.289.292.578.389.288.29.77.484 1.25.484.289 0 .577-.097.962-.097 0 0 .192-.096.288-.096h.577c1.059.096 2.02.096 3.078.096h1.443c.481-.096 1.154 0 1.54-.387.288-.388.288-.776 0-1.067 0-.097 0-.194.095-.194.096-.581.193-1.163.385-1.745.289-.581.385-1.26.673-1.842.385-.678.577-1.26.866-1.939.866-2.908 1.924-5.623 2.597-8.628.289-1.357.577-2.811.962-4.266.48-1.357.577-2.908 1.154-4.362.192-.582.48-1.164.577-1.842.289-.679.385-1.455.577-2.23.096-.679.289-1.454.481-2.133.096-.776.193-1.454.481-2.23.096-.29.096-.678.192-1.066.097-.388.193-.776.193-1.26.096-.388.192-.776.385-1.26.096-.389.192-.776.384-1.164.096-.388.193-.776.289-1.26a4.75 4.75 0 01.385-1.067c.096-.29.192-.679.288-1.066 0-.388.192-.68.385-1.067l.577-2.327c.096-.387.192-.775.289-1.26.096.388.096.776.192 1.163l.288 1.746c.193.581.385 1.163.674 1.745-.096.097-.096.193-.096.387.096.097.096.097.096.194.192 1.454 1.058 2.618 1.539 3.975.48 1.26.77 2.618 1.058 3.975.384 1.357.865 2.715 1.25 4.072.192.678.289 1.357.577 1.939.096.29.289.581.385.872.192.291.289.582.385.873.192.678.384 1.26.577 1.939.192.678.288 1.357.48 2.036.193.581.385 1.26.578 1.842.096.775.192 1.55.48 2.23.482 1.357.674 2.714 1.155 4.071.289.679.577 1.358.77 2.036.288.679.48 1.357.673 2.036.192.679.384 1.26.577 1.939l.577 1.745c.096.582.385 1.067.385 1.648 0 .485.096 1.164.384 1.648.097.194.193.388.385.582 0 0 .096.097.096.194 0 .388.289.775.77.775.673 0 1.346-.096 2.02-.29.673-.097 1.442 0 2.212-.097.673 0 1.443-.097 2.212-.097h2.116c.096 0 .193.097.193.097.384.097.673-.097.77-.388v-.776c.288-.097.384-.387.288-.678-.097-.194-.193-.291-.289-.291.096-.194.192-.485.289-.679 0-.097.096-.097.096-.194.288-.194.192-.581 0-.775.096-.097.096-.194.096-.291.192-.388.289-.776.385-1.067.192-.678.384-1.357.48-2.035.097-.194.097-.291.193-.388.48-1.26.866-2.618 1.25-3.975.193-.582.481-1.163.674-1.745.288-.582.384-1.26.673-1.842.289-.582.673-1.067.866-1.648.192-.776.384-1.454.577-2.23.384-1.357.962-2.618 1.25-4.072l.289-.872c.096-.291.192-.679.288-.97.193-.582.481-1.26.674-1.842.192-.679.384-1.26.673-1.842.288-.775.577-1.454.866-2.133.384-1.26.769-2.617 1.154-3.878.288-.29.48-.484.577-.872.096-.582.096-1.067.192-1.648.096-.485.193-.97.385-1.455.192-.096.385-.193.48-.484.193-.582.29-1.26.386-1.842.192-.485.48-1.067.577-1.648.384-1.067.865-2.23 1.25-3.297.385-1.26.77-2.52 1.058-3.78.289-1.26.673-2.521 1.058-3.782.193-.581.481-1.066.673-1.648.289-.484.481-.97.578-1.55a4.75 4.75 0 01.384-1.067c.096-.194.096-.388-.096-.485.289-.679.481-1.454.77-2.133l.577-1.745c0-.097 0-.194.096-.29.385-.873.577-1.843.962-2.812.288-.776.77-1.551.77-2.424v-.194zM397.797 142.625c-.096-.775-.192-1.454-.288-2.23-.096-.775-.192-1.55-.385-2.326-.096-.679-.385-1.455-.48-2.133-.097-.388-.193-.679-.29-.97-.096-.29-.288-.484-.384-.775-.192-.291-.192-.679-.385-.97-.096-.29-.288-.678-.385-.97a15.47 15.47 0 01-.673-1.938c-.288-.582-.577-1.164-.77-1.745-.288-.679-.673-1.26-1.057-1.842-.481-.582-1.155-.97-1.828-1.454-1.154-.873-2.404-1.649-3.559-2.521-.48-.388-1.058-.679-1.731-.873-.289-.097-.673-.193-.962-.29-.288-.194-.577-.291-.962-.485-.288-.097-.577-.097-.865-.194-.289-.097-.674-.194-.962-.29-.77-.195-1.54-.389-2.309-.389-.384 0-.77-.097-1.058-.097-.288 0-.48.097-.77.097h-.384c-.48 0-1.058.097-1.539.194-.577.097-1.058.097-1.635.097-.48 0-1.058 0-1.539.194-.577.097-1.058.097-1.539.194-.577.097-1.154.194-1.635.29-.48.098-.962.486-1.347.68a14.52 14.52 0 00-2.5 1.744c-.193.194-.385.485-.674.68-.48.29-.77.678-1.25 1.066-.577.484-1.154 1.066-1.731 1.55l-.577.873c-.097 0-.193.097-.289.194 0 .097-.096.291-.096.388 0 0 0 .097-.096.097 0 .097-.097.194-.193.29 0 .098-.096.195-.096.195-.288.097-.48.387-.673.678-.289.388-.481.873-.77 1.357a27.98 27.98 0 00-1.731 3.878c-.192.582-.577 1.26-.77 1.94-.192.678-.288 1.454-.384 2.132-.385 1.357-.385 2.812-.193 4.169.097.679.097 1.357.097 2.036 0 .872.192 1.648.288 2.424.193 1.454.577 3.005 1.058 4.46.385 1.356.77 2.81 1.54 4.071.384.582.672 1.066.961 1.745.192.679.385 1.357.866 1.939a11.068 11.068 0 002.116 2.133c.865.582 1.827.97 2.789 1.454l.866.29s.096.098.192.098c.577.388 1.154.678 1.828.97.096 0 .288 0 .384.096.096 0 .193.097.289.194.288.097.48.291.77.388.384 0 .673.097 1.057.097 0 0 .097.097.193.097.096.097.288.194.384.194.385.097.77.097 1.155.097.288.097.673.194 1.058.387.192 0 .288.097.48.194h.578c.77.291 1.635.097 2.404 0h.481c.193 0 .385-.097.577-.097.193 0 .385.097.577 0h.674c.77 0 1.539-.29 2.308-.484.866-.194 1.732-.485 2.693-.679.193 0 .385-.097.577-.097.77-.194 1.54-.485 2.213-.775.577-.291 1.058-.68 1.731-.873.096-.097.289-.194.385-.194.288-.097.577-.29.865-.485.289-.194.674-.29.962-.387.289-.194.481-.291.77-.485.192-.194.48-.291.77-.485.288-.29.48-.582.769-.872.48-.485.577-1.26 1.058-1.842a9.614 9.614 0 001.058-1.649c.288-.581.577-1.066.865-1.648.289-.387.385-.872.481-1.357.097-.097.289-.29.385-.485v-.097c.192-.484-.288-.97-.77-.97h-.673c-.192 0-.48-.193-.673-.29-.192-.097-.48-.097-.77-.194-.288-.097-.577-.194-.865-.194-1.25-.097-2.405.194-3.559 0-.48-.097-.962-.194-1.443-.097-.48 0-.962.097-1.442-.194-.289-.193-.77-.484-1.155-.193-.288.096-.384.387-.384.678l-.097.097-.288.582c-.193.29-.385.678-.673.872a14.534 14.534 0 01-1.924 1.648c-.673.388-1.443.582-2.116.873-.481.194-.866.485-1.347.776-.288.096-.577.193-.865.387h-.289c-.192.097-.385.194-.577.194-.385 0-.77-.097-1.25-.097-.289 0-.578-.097-.866-.29-.385-.194-.673-.485-1.058-.582-.77-.291-1.347-.776-2.02-1.26a3.632 3.632 0 01-1.539-1.843c-.192-.678-.77-1.357-.866-2.035-.096-.485-.096-.873-.192-1.358-.096-.388-.096-.775-.192-1.163-.097-.388-.193-.776-.193-1.163 0-.388-.096-.873-.096-1.26-.096-.389-.096-.873-.096-1.261l-.096-.097c.77.194 1.539.194 2.308.29h1.731c.578 0 1.155-.096 1.636 0 .48.098.865.195 1.25.195.577 0 1.058-.097 1.635-.194 1.154-.291 2.309 0 3.559 0 .962 0 2.02.097 3.078 0 .48 0 .962-.194 1.539-.291.577-.097 1.154-.097 1.827-.194h1.828c.577 0 1.058.194 1.635.194h1.731c.481-.097.962.097 1.443 0 .096 0 .096 0 .192-.097.385.097.866.194 1.347.194.48 0 .866 0 1.154-.291.385 0 .77-.194.866-.679.192-.484-.096-.97-.193-1.55zm-27.22-8.434c.096-.291.289-.582.385-.873.577-.775 1.058-1.648 1.635-2.423.289-.388.481-.68.77-.97.096 0 .288 0 .288-.097.481 0 .866-.29 1.347-.485h.77c.192-.097.288-.097.48-.194.577 0 1.058-.193 1.635-.193.674 0 1.25.193 1.828.29.577.194 1.154.388 1.731.68.289.096.577.193.77.387.192.097.384.29.48.485.578 1.357 1.636 2.423 2.117 3.878.192.775.769 1.357.769 2.23 0 .096 0 .29.096.484-1.154.097-2.212.29-3.27.194-.77-.097-1.443 0-2.212.097-.866 0-1.635 0-2.501-.097-.77-.097-1.443 0-2.212.097-.77 0-1.443-.097-2.213 0s-1.539.194-2.212.388c-.288 0-.673.097-.865 0H370l-.096-.097c.096-.485.096-.97.096-1.454.096-.776.77-1.552.577-2.327zM453.587 144.08c.096-.388-.096-.776-.096-1.164 0-.29-.096-.679-.192-1.066v-.873c0-.388-.193-.679-.193-1.066 0-.388-.192-.873-.192-1.26-.193-1.358-.577-2.715-.866-4.072-.192-.873-.48-1.552-.866-2.327-.288-.679-.673-1.357-.961-2.036-.481-1.357-1.25-2.909-2.597-3.587-.193-.388-.481-.679-.77-1.067-.385-.484-.865-1.066-1.346-1.454-.481-.388-.962-.775-1.443-.97-.385-.29-.77-.484-1.25-.678-.385-.194-.77-.485-1.155-.775-.385-.388-.865-.582-1.346-.776-.481-.194-.962-.194-1.443-.388-.481-.194-.866-.485-1.347-.582-.192-.097-.48-.193-.673-.193-.192 0-.385-.194-.577-.194-1.154-.194-2.212.194-3.367.194-.48 0-.961 0-1.442.096-.193 0-.385.097-.674.097-.192 0-.577-.097-.77 0-.384.194-.769.291-1.153.388-.577.194-1.058.291-1.54.388-.48.194-.961.582-1.346.776-.577.29-1.058.581-1.539.872-.385.194-.77.485-1.058.776l-.096.097c-.48.29-.77.581-1.058 1.066 0 .097-.096.194-.192.29 0-.096 0-.193.096-.29v-1.842c-.096-.679-.193-1.26-.193-1.939 0-.582-.096-1.163-.096-1.648v-5.623c.096-2.52.193-5.138 0-7.659-.096-1.26-.096-2.424-.192-3.587 0-.582 0-1.163-.096-1.842 0-.29 0-.582-.097-.872v-.194c.097-2.424.193-4.945.193-7.368 0-.97.192-2.909-1.347-2.715-.48 0-.962.194-1.442.291-.578 0-1.155.097-1.732.097-.48 0-.962 0-1.539-.097h-3.559c-.48.097-.961.097-1.346-.097-.481-.29-.962 0-1.058.485-.289.097-.385.29-.481.581 0 1.552 0 3.2-.096 4.75v2.328c0 .775-.096 1.55-.096 2.326 0 .679.192 1.358.288 2.036.096.679 0 1.551 0 2.327v4.75c-.096 1.552-.096 3.2-.096 4.75v2.134c0 .872.096 1.648.096 2.423 0 1.552-.096 3.103 0 4.557.192 1.551 0 3.005.096 4.46.096.97-.096 2.035-.192 3.005 0 .485 0 .97.096 1.454 0 .291.096.582.096.776-.096.194-.192.388-.192.581 0 3.2.096 6.399 0 9.598v6.884c-.096.775-.192 1.55-.192 2.326 0 1.455.096 2.909.192 4.363v2.23c0 .775 0 1.454.096 2.23 0 .678-.096 1.357-.096 2.035a3.7 3.7 0 000 1.455c.096.29.288.581.577.775.096.097.289.097.385.194-.193-.097.384.194.192 0 .577.291 1.347.291 2.02.194.673 0 1.347-.097 2.02-.194s1.443 0 2.212 0h2.405c.673 0 1.539.097 2.212-.097.77-.194.962-.97.866-1.648 0 .097.096-.388.096-.582 0-.387-.096-.775-.193-1.26 0-.097-.096-.194-.096-.388.096.291.289.485.481.679.385.582.77 1.163 1.347 1.551.673.485 1.25.97 2.02 1.26.577.291 1.25.485 1.827.485.192.194.481.291.673.388.193.097.385.097.674.194.288.097.577.29.865.388 1.25.484 2.405.678 3.752.775h1.827c.673-.097 1.347-.29 1.924-.388 2.404-.484 4.617-1.454 6.444-3.102.385-.388.866-.582 1.25-.97.385-.387.866-.678 1.25-1.066.963-.678 1.925-1.648 2.502-2.617l1.154-1.745c.385-.68.673-1.455.962-2.133.096-.291.192-.485.288-.776.193-.29.289-.679.481-1.066.096-.291.193-.582.385-.873.096-.29.192-.678.192-.97.193-.678.481-1.357.674-1.938.096-.679.288-1.454.384-2.133a3.51 3.51 0 00.193-1.067c0-.29 0-.581.096-.775.096-.388.096-.776.096-1.067zm-21.545 11.245c-.096 0-.289.097-.385.097-.289 0-.577-.097-.866-.097-.673 0-1.346.097-1.923 0-1.058-.29-2.116-1.066-2.886-1.842-.48-.387-.962-.872-1.443-1.26-.48-.485-.865-.97-1.25-1.454-.192-.097-.289-.291-.385-.485-.192-.29-.384-.582-.48-.872-.385-.582-.385-1.26-.674-1.94-.192-.581-.385-1.26-.577-1.938-.192-.679-.385-1.358-.481-2.036-.192-1.26.289-2.52.48-3.878.097-.679.386-1.26.578-1.94.096-.193.192-.484.289-.775.096-.194.288-.387.288-.678.096-.097.096-.194.096-.291.289-.485.77-.873 1.25-1.26.193-.194.482-.291.674-.485.192-.194.385-.485.673-.582.481-.388.962-.872 1.54-1.163.288-.097.576-.291.769-.582.192-.097.384-.388.48-.485.482-.29 1.155-.388 1.636-.484.288-.097.577-.097.865-.097.385 0 .674-.097 1.058-.194.674 0 1.443.194 2.117.194.577 0 .961.097 1.346.484.481.485.962.97 1.347 1.551.384.485.865 1.067 1.25 1.552.192.29.289.484.481.678.192.388.289.679.48 1.067.29.581.578 1.163.77 1.842.289.678.481 1.454.674 2.133l.288 2.617c.096.776.289 1.551.289 2.424v1.066c0 .388-.193.679-.289 1.067-.096.388-.192.872-.288 1.26-.096.485-.385.873-.481 1.26-.289.776-.673 1.26-1.154 1.842-.289.291-.481.485-.77.679-.385 1.066-1.25 1.842-2.212 2.327a9.17 9.17 0 01-3.174.581v.097z"/></g></g></g></svg>