<svg width="286" height="169" xmlns="http://www.w3.org/2000/svg" xmlns:xlink="http://www.w3.org/1999/xlink"><defs><path d="M59.82 18.13C54.18 9.17 38.06 2.7 19.08 2.7c-5.93 0-11.58.63-16.72 1.78-2.9.64-3.01.2-.13-.68A85.85 85.85 0 0127.21.24c17.98 0 33.74 5.04 42.4 12.58l.06-.03c4.23-1.55 13.1-3.1 17.86-3.1 21.36 0 34.41 17.67 34.41 38.57s-19.16 36.01-40.52 36.01c-21.35 0-36.87-15.11-36.87-36 0-12.3 6-23.22 15.27-30.14" id="a"/></defs><g fill="none" fill-rule="evenodd"><g fill-rule="nonzero" fill="#5A24AA"><path d="M47.68 9.17c-.44-.95-2.38-2.9-3.44-3.23-2-.62-3.88-1-6.04-1.12-4.04-.28-8.03.11-12.08 0-.06-.05-.17 0-.17.11-.1 2.79-.22 5.63-.27 8.42-.11 3.45.22 6.85.22 10.3 0 2.18 0 4.35.05 6.53v3.23c.06 1.84.11 3.79-.22 5.63-.16 1.06 0 2 .06 3-.06.06-.17.17-.17.29 0 .1-.05.22-.05.33-.06.17 0 .33.16.45 0 0 .06 0 .06.05l.16.17c.17.11.4.11.5 0 .17 0 .34.05.5.05.11 0 .17-.05.28-.1h.94c.78 0 1.5.16 2.27.16 1 0 1.94.56 2.83.06.11-.12.17-.23.17-.34l.1-.11v-.06c.06-.05.06-.05.06-.1v-.06c.06-2.12-.22-4.3-.22-6.47 0-2.45 0-4.96.06-7.46 1.1.16 2.27.16 3.32 0 1.22-.23 2.55-.06 3.83-.34 1.93-.45 4.48-1.23 5.76-3 .17-.06.28-.18.44-.29a7.55 7.55 0 002.22-4.12c.33-2.4.44-4.68.44-7.08 0-1.9-1-3.23-1.77-4.9zM40.7 20.65c-.17.28-.34.5-.5.72-1.06.45-2.1 1.12-3.33 1.17-.6 0-1.16.45-1.83.5-.5.06-1 0-1.44-.1 0-1.85-.16-3.69-.27-5.52v-3.18c0-.95-.12-2.23.05-3.18 1.94.11 3.82.34 5.65 1 2.39.84 2.72 3.13 2.77 5.41 0 1.23-.5 2.23-1.1 3.18zM76.83 41.77v-.67c0-.4-.11-.78-.17-1.12-.05-.44 0-.83.06-1.22 0-.9-.06-1.78-.06-2.62 0-.9-.05-1.84 0-2.73 0-.84.11-1.73.06-2.56v-3.96c0-.4-.06-.84-.06-1.23-.05-.39-.05-.83-.05-1.22 0-.4.05-.84.05-1.23s.06-.72.06-1.06c.05-.39 0-.78-.06-1.11 0-.4-.05-.73-.05-1.12 0-.39 0-.78-.11-1.17 0-.16-.17-.22-.28-.22-.11 0-.17.06-.22.11h-.61c-.28 0-.61 0-.89-.05a4.28 4.28 0 00-.88-.12h-.9c-.21 0-.43-.05-.66-.05-.27 0-.6.11-.83.05-.5-.16-1-.16-1.44 0-.1.06-.22.17-.16.28v.34c0 .16-.06.28-.06.44-.06.34-.11.73-.11 1.06-.17-.05-.33-.17-.56-.28a.42.42 0 00-.27-.1c-.17-.18-.33-.29-.45-.4-.38-.33-.77-.67-1.21-.89h-.12c-.1-.06-.27-.17-.38-.22h-.34c-.1-.06-.16-.17-.27-.17a1.81 1.81 0 00-.95-.22c-.1 0-.22-.06-.33-.06h-.22l-.5-.17c-.33-.05-.72-.05-1.05-.1a3.7 3.7 0 00-1.11 0c-.28.05-.55.16-.83.22h-.28c-.44-.06-.83 0-1.22.1-.39.06-.72.23-1.05.4-.44.16-.83.33-1.22.55-.28.17-.6.23-.94.4-.39.16-.72.44-.94.77-.23.34-.5.67-.78.95-.28.28-.44.62-.72.95-.28.33-.5.67-.72 1-.22.4-.5.73-.67 1.12l-.6.94c-.23.34-.4.73-.45 1.12-.05.44-.11.83-.22 1.22-.06.23-.06.5-.06.73 0 .22-.05.5-.05.72l-.17 1.23c-.05.45 0 .95 0 1.4.06.83.11 1.72.28 2.61.17.84.5 1.67.89 2.4.1.17.16.33.27.5.06.17.17.33.28.5.17.4.33.78.55 1.12.4.78.84 1.56 1.45 2.17.55.56 1 1.28 1.6 1.84.61.5 1.33.89 2.05 1.28.34.17.72.33 1.17.39.16.06.39.06.6.06.23 0 .34.1.56.1.39.06.78.06 1.16 0h1.39a6 6 0 002-.33c.16-.05.33-.1.44-.22.11-.06.17-.11.22-.17.17 0 .33.06.5.06.22 0 .39-.11.6-.17.34-.17.62-.44.95-.61.22-.11.33-.22.44-.4.12-.05.17-.16.23-.27.1 0 .22-.06.27-.11.17-.06.4-.11.56-.17.1-.11.27-.17.39-.28 0 .28 0 .62.05.95a.9.9 0 00-.17.5c0 .34.34.45.56.34.44-.23 1 0 1.44.05h.33c.17 0 .28.06.45.06.27.05.55.1.83.05h.22c.16-.05.28 0 .44 0h.94c.28 0 .5 0 .78.06.22 0 .44-.06.55-.22.34.16.72 0 .78-.45 0-.4-.11-.78-.06-1.17 0-.17.06-.34.06-.5zm-7.2-13.71c.05.28.1.61.22.9.1.21.22.5.22.72 0 .27.11.5.11.78.11.33.11.6.11.89v.39c-.22.22-.28.55-.33.89-.11.33-.17.72-.22 1.11-.11.67-.4 1.4-.72 1.95-.17.28-.45.45-.61.67-.23.28-.45.56-.61.84a.42.42 0 01-.23.11c-.22.11-.38.17-.66.33-.17.12-.39.28-.61.4-.33 0-.6.1-.89.27-.33.17-.6.23-.94.23-.16 0-.28-.06-.44-.12-.17-.05-.39-.05-.61-.1-.17 0-.39-.06-.56-.12-.22-.05-.38-.17-.6-.22a2.44 2.44 0 01-.9-.34c-.27-.22-.5-.6-.77-.89l-.33-.5c-.17-.11-.28-.28-.44-.44-.23-.28-.5-.62-.72-1-.23-.29-.23-.73-.4-1.07-.16-.33-.21-.78-.27-1.11 0-.45-.05-.84-.05-1.23s.16-.83.22-1.22c.05-.4.16-.73.22-1.12.05-.33.28-.67.39-1 .16-.4.27-.73.44-1 .22-.4.44-.73.66-1 .12-.12.17-.23.23-.29.1-.1.22-.22.33-.27.28-.23.5-.4.77-.56.28-.11.56-.17.84-.22a1.65 1.65 0 00.77-.4c.33-.05.56-.1.89-.22.17-.05.28 0 .44 0 .17 0 .33 0 .5.06l.5.17c.17 0 .33.05.55.1.17.06.34.12.5.12.17.11.34.28.45.39.22.22.5.33.72.5.38.39.83.72 1.16 1.11.17.23.28.45.39.67.1.28.16.56.28.84zM98.5 18.42c0-.06-.06-.06-.06-.06 0-.05-.05-.1-.16-.16-.17-.12-.45-.28-.67-.23-.05 0-.22.06-.27 0-.12-.05-.17-.1-.34-.1-.16 0-.33-.06-.5-.12-.22-.06-.5 0-.72 0-.55 0-1 .22-1.55.28 0 0-.05 0-.05.05h-.67l-.33.17c-.06.06-.11.06-.22.11-.17 0-.34.06-.5.11-.17.06-.33.17-.45.23-.22.16-.44.22-.66.39-.39.28-.78.61-1.05 1-.34.28-.5.67-.67 1.06-.1-.06-.22-.06-.28 0 0-.84-.05-1.62-.05-2.4a.36.36 0 00-.44-.33s0 .05-.06.05c-.05-.05-.11-.05-.22-.05l-.17.11h-1.16c-.44 0-.94.06-1.44.06s-1.06.05-1.55 0c-.28 0-.56-.06-.84-.12-.16 0-.33 0-.5.06-.05-.11-.1-.11-.22-.11h-.16c-.17 0-.28.11-.28.28 0 .22.06.39.11.61v.06c0 .1-.05.16 0 .27v.12c0 .22-.05.44-.1.66-.06.45 0 .95 0 1.34-.06.9-.06 1.79-.06 2.62 0 .4.05.78.05 1.12v1.39c-.05.95-.05 1.84-.05 2.79v2.73c0 .78.05 1.61.05 2.45v4.07c0 .44-.05.89 0 1.33 0 .17.06.34.11.45v.5c.06.17.11.33.11.45 0 .16-.05.27-.05.44-.06.23-.22.45-.28.73 0 .1.06.22.06.33-.06.22.05.45.33.5.1 0 .33.17.55.11.22-.05.45-.1.67-.1.6-.06 1.22 0 1.83 0 .6 0 1.22.1 1.77 0 .55-.06 1.1 0 1.66 0 0-.06.06-.06.06-.06.1.22.39.22.44 0 0-.17.06-.34.06-.5v-1.34c0-.5-.06-.95-.11-1.4-.06-.83-.06-1.72-.06-2.61 0-.78.06-1.62.06-2.46 0-.39.05-.78.05-1.22.06-.17.06-.4.06-.62 0-.22-.06-.44-.11-.66-.06-.84 0-1.73 0-2.57 0-.39.16-.78.22-1.17v-.5c.05 0 .1-.05.1-.17.06-.33.12-.6.17-.94.12-.28.28-.62.4-.95.05-.11.16-.22.21-.34.11-.16.23-.27.34-.39.16-.22.38-.44.6-.6 0-.06.06-.06.06-.12l.61-.33c.33-.17.67-.34 1.05-.4.34-.1.61-.1.95-.1.33.05.72-.06 1.05-.06.11 0 .17.05.33.05.11.06.28.06.45.06h.33c.05.06.1.06.16.11h.11c.12.11.23.11.4.11.1.06.21.11.33.23.16.1.33.05.38-.12.06-.1.06-.16 0-.22.11-.11.11-.28.11-.44 0-.12 0-.23.06-.34 0-.11 0-.28.05-.39.06-.56.06-1.11.17-1.61.11-.5.11-.95.22-1.45.11-.23.11-.45.11-.67.06-.28.17-.56.17-.84 0-.11-.06-.22-.11-.22zM110.41 20.15c0-.56.12-1.17.12-1.73.1-.22 0-.5-.28-.56-.06 0-.11 0-.17-.05-.16 0-.27-.12-.44-.12h-.56c-.16 0-.27-.05-.44-.05-.22-.06-.5-.06-.72 0-.5 0-1.05-.06-1.55.05-.22 0-.39.12-.56.12-.27.05-.55.05-.77.05h-1.22c-.28 0-.61 0-.83.17-.11.17-.11.28-.06.44 0 .06 0 .12.06.17 0 .06.05.11.05.17 0 .22-.05.39-.05.61v.56c0 .22.05.39.05.61.06.9-.05 1.79-.05 2.68 0 .39 0 .78.05 1.17.11.33.06.72.11 1.11.06.4 0 .78-.05 1.17 0 .45.05.9.11 1.34.11.84 0 1.73 0 2.62 0 .83.06 1.73.06 2.56.05.45.05.95.05 1.4-.05.55-.17 1.1-.17 1.67 0 .33-.05.67-.05 1.06v1.05c0 .78 0 1.5-.06 2.29-.05.39-.05.72-.05 1.11v.56c0 .06 0 .11-.06.11-.1.11-.1.34-.1.45-.17.1-.12.39.1.44h.11a9.2 9.2 0 001.78.12h.44c.11.05.28 0 .33.05.28.11.56.17.83.17 1.17.11 2.39-.28 3.55-.28.22 0 .5-.22.44-.45a.72.72 0 00-.22-.55c0-.06-.1-.11-.16-.11 0-.62 0-1.23-.06-1.79-.05-.39 0-.83.06-1.22.05-.45.05-.9.1-1.34.06-1.73-.05-3.51.06-5.24.06-1.78.11-3.57.11-5.35v-2.62c0-.89-.05-1.84 0-2.73.06-.61.06-1.28.11-1.9zm.45-12.93c0-.4-.28-.78-.5-1.06-.17-.22-.28-.4-.55-.67-.23-.28-.45-.61-.73-.9a3.36 3.36 0 00-2.05-.94h-.5c0-.17-.16-.22-.33-.17-.1-.05-.22.06-.33.12h-.06s-.1.05-.16.05c-.06.06-.17.06-.22.11h-.06c-.05.06-.16.06-.22.06-.22 0-.33.05-.5.11-.44.22-.77.61-1.05 1-.06.06-.11.11-.17.23-.22.1-.33.33-.44.55-.06.11-.22.23-.28.4-.11.16-.16.44-.28.66l-.05.17c-.06.05-.06.11-.06.11v.06c-.1.22-.22.5-.1.72 0 .06.05.11.05.17v.1c0 .29-.06.62 0 .96.05.28.28.5.5.72.22.22.38.45.55.67l.33.33c.06.17.17.28.23.4.22.22.5.38.72.5.55.27 1.1.44 1.71.5.28.05.61.1.89.05l.5-.16c.17-.12.33-.17.5-.23.33-.16.6-.5.88-.72.34-.22.67-.5.95-.84.55-.55.88-1.33.94-2.11 0-.34-.11-.67-.11-.95zM133.86 36.3c0-.5 0-.94-.06-1.44-.05-.11-.05-.28-.05-.45 0-.22-.06-.39-.11-.61-.12-.4-.17-.78-.28-1.12a4.28 4.28 0 00-1.11-1.95c-.17-.1-.28-.22-.44-.33-.17-.11-.22-.28-.45-.33-.1-.06-.22-.23-.33-.28-.17-.11-.33-.28-.5-.34-.27-.16-.6-.22-.83-.39a.42.42 0 00-.22-.1c-.11-.12-.22-.18-.33-.29-.5-.33-1-.61-1.56-.78l-.83-.33-.66-.34c-.33-.1-.72-.16-1.11-.28-.11-.05-.22-.16-.33-.22h-.06l-.16-.17c0-.05-.11-.1-.17-.1l-.22-.4c-.11-.16-.11-.44-.11-.67.1-.66.44-1.28.77-1.83.17-.28.34-.34.61-.4.11-.05.28-.1.45-.1.16-.06.38-.06.55-.06.33 0 .61 0 .89.05.16 0 .33-.05.5 0 .16.06.27.12.44.17 0 .06.05.06.05.06.34.22.5.55.84.72.16.06.16.28.38.28v.06c.06.1.23.16.34.05.1 0 .16 0 .22-.05l.22-.23c.11-.16.17-.33.28-.5.16-.28.33-.56.55-.89.22-.28.39-.61.67-.84.1-.1.22-.27.33-.39.1-.05.16-.1.22-.16.17-.06.28-.4.44-.4l.17-.16c.17-.17.06-.45-.17-.56 0-.05-.05-.05-.1-.05 0-.06-.06-.06-.06-.06h-.06c-.1-.17-.28-.28-.39-.39l-.5-.33a1.7 1.7 0 00-.72-.17c-.05 0-.1-.06-.16-.06-.28-.16-.56-.33-.89-.5-.22-.11-.5-.22-.77-.33l-.78-.17h-.06c-.16-.11-.38-.11-.6-.11h-.12c-.16-.06-.33-.06-.5-.06-.16-.05-.33-.05-.5-.05-.1-.06-.16-.06-.22-.06h-.66c-.06 0-.17-.05-.22-.05-.28 0-.56-.12-.83-.17-.28 0-.56 0-.83.05-.28 0-.56.06-.84.06-.1 0-.27 0-.38.06-.06 0-.11 0-.17.05-.06 0-.06 0-.06.06-.27 0-.5.28-.77.39-.22.1-.39.28-.61.39 0 .05-.06.05-.06.05l-.1.11s-.06 0-.12.06c-.28.11-.6.39-.88.61-.06.06-.06.11-.12.11-.05.06-.1.12-.16.12-.22.22-.45.5-.61.72-.33.45-.61.95-.94 1.4-.17.16-.28.44-.34.66-.16.23-.27.5-.38.78-.11.28-.11.62-.23.84-.16.28-.1.61-.16.95-.06.22 0 .5 0 .78-.06.33-.06.66 0 1 .05.28.22.5.28.78.05.33.16.56.27.84.17.5.39 1.17.72 1.56.22.22.45.39.67.55.16.17.27.4.44.56.06.06.06.11.11.17a.6.6 0 00.33.1c.06 0 .12.06.17.06l.33.34c.34.17.61.28.95.44.55.17 1.21.23 1.71.45s.89.56 1.39.67c.22.17.5.28.77.39.67.28 1.28.67 1.67 1.34.22.33.27.6.27 1v.5c-.05.22-.16.45-.22.67-.05.17-.16.33-.22.56-.22.1-.39.28-.6.39-.12.1-.29.16-.45.22-.22 0-.39 0-.61.06-.39.1-.83.05-1.28 0-.38 0-.77-.12-1.16-.17-.5-.11-.94-.22-1.33-.56a3.08 3.08 0 01-.44-.33c-.17-.11-.4-.17-.56-.23a3.83 3.83 0 01-1-.89c-.05-.1-.1-.1-.22-.1-.05-.06-.1-.06-.22 0-.16-.06-.33 0-.39.16-.16.33-.44.67-.77.89-.28.22-.5.61-.67.9-.27.38-.6.77-.88 1.16-.17.28-.4.5-.5.84-.06 0-.06.05-.06.1v.12c-.05.06 0 .11 0 .17 0 .05.06.05.06.1.05.12.1.12.22.18.05.05.11.05.17.1h.05c0 .06.06.12.11.17.06.06.17.17.28.17.05.06.05.11.1.17.23.17.34.33.5.5.17.17.4.28.62.4h.05s.06.05.11.05c.06 0 .11.05.17.05.11.11.17.11.28.17.05.06.16.11.05.06.11.05.17.1.28.1v.06c.06.28.33.4.55.45.34.17.67.33 1 .39.17.05.33.05.5.17.17.05.28.16.44.22.4.17.78.11 1.17.11.1.06.22.06.33.06.17 0 .33.1.5.16.17.06.44.06.66.11.23.06.4 0 .61 0 .23-.05.5.06.72-.05.17-.06.45 0 .67-.06.11-.05.22-.1.33-.1h.22c.28.05.5 0 .72-.12.34-.11.67-.11.95-.22.27-.06.44-.23.72-.28.27-.11.55-.22.83-.4l.16-.16c.06 0 .11-.05.17-.11.06 0 .06 0 .11-.06h.06c.27-.05.55-.16.77-.33.28-.22.61-.4.83-.73.11-.16.34-.33.45-.5l.05-.05c.39-.17.67-.4.89-.73.11-.1.17-.28.22-.39.06-.1.11-.22.17-.28 0-.1 0-.22.05-.33l.33-1.06c.17-.33.23-.72.28-1.06.06-.39.06-.83.06-1.22zM205.13 5.21c.05-.22-.06-.61-.39-.61-.66 0-1.27-.06-1.88-.06-.28 0-.5.11-.72.11h-1l-1.6.17c-.56 0-1.06.11-1.56-.11-.06-.06-.11-.06-.22-.06a.38.38 0 00-.4.4c0 .33-.16.66-.16 1v.1c-.05.18-.1.34-.1.45a.8.8 0 00-.12.34c-.05.39-.17.78-.28 1.17-.27.84-.6 1.62-.83 2.5 0 .17-.1.34-.22.5-.05.18-.17.4-.22.57-.17.39-.22.78-.33 1.17-.11.33-.17.66-.34 1l-.33 1.17c-.22.84-.39 1.67-.6 2.5-.06.34-.17.73-.28 1.12 0 .11-.06.22-.12.34-.1.16-.1.39-.16.55-.06.11-.06.28-.11.45-.06.17-.17.33-.17.5l-.33 1.12c-.11.39-.17.78-.28 1.11-.1.45-.22.9-.33 1.28-.22.73-.33 1.5-.61 2.23-.11.17-.22.33-.28.5 0 .17-.05.34-.1.5-.06.11-.06.23-.12.4-.11.27-.28.6-.39.89-.1.27-.16.55-.22.83-.11.22-.11.56-.22.73l-.17.33c0 .06-.05.06-.05.11v.11c-.17-.33-.34-.61-.45-.94-.16-.34-.27-.67-.44-1-.17-.34-.33-.68-.44-1.01a29.56 29.56 0 01-1.22-4.85c-.11-.39-.17-.72-.28-1.06-.11-.44-.28-.83-.44-1.28a27 27 0 01-.72-2.5c-.45-1.62-.78-3.3-1.33-4.91-.11-.34-.28-.67-.4-.95-.1-.33-.16-.67-.27-1-.05-.34-.22-.67-.33-1l-.33-1.17c-.22-.78-.4-1.57-.61-2.35a4.1 4.1 0 00-.28-1.11 3.56 3.56 0 01-.33-1c-.06-.23-.33-.28-.5-.23h-.06c-.16 0-.27 0-.44.06 0 0-.17 0-.22-.06a6.33 6.33 0 00-2.05-.06c-.39 0-.72.12-1.11.12-.39.06-.44.45-.28.61 0 .11 0 .23-.05.28-.11.17-.17.34-.28.5a4.8 4.8 0 00-.28 1.28c-.16.79-.27 1.68-.6 2.46-.4.78-.62 1.61-.84 2.45-.28.83-.5 1.67-.72 2.5-.39 1.73-1.1 3.3-1.55 4.97-.22.89-.33 1.78-.55 2.62a8.7 8.7 0 00-.23 1.17l-.16.5-.17.61c-.05.22-.17.45-.22.61-.11.23-.06.45-.11.62-.06.16-.17.33-.22.5-.06.16-.11.39-.17.55-.11.17-.17.34-.28.5l-.16.67c-.11.4-.28.79-.4 1.23-.21.84-.38 1.73-.66 2.5l-.16-.83c-.06-.39-.17-.78-.28-1.17-.11-.44-.33-.78-.39-1.22-.1-.4-.22-.78-.27-1.17-.11-.4-.34-.78-.4-1.23-.16-.84-.38-1.67-.6-2.5-.28-.84-.39-1.73-.67-2.57-.22-.84-.6-1.67-.88-2.45-.28-.84-.56-1.67-.78-2.51-.11-.45-.28-.84-.39-1.23-.1-.44-.27-.89-.39-1.33-.05-.17-.16-.34-.22-.5-.05-.17-.05-.4-.1-.56a3.75 3.75 0 00-.4-1c-.27-.73-.44-1.51-.6-2.23a7.93 7.93 0 01-.23-1.12c-.05-.33-.22-.72-.27-1.06-.11-.56-.34-1.06-.45-1.61a.42.42 0 00-.1-.23v-.05c-.06-.17-.17-.23-.29-.23-.16-.05-.27 0-.38.12-.06 0-.17.05-.22.05-.17.06-.34.06-.56.11-.33-.16-.78 0-1.16 0h-.95c-.22 0-.38-.05-.6-.1-.28-.12-.56-.06-.84-.06-.27 0-.6.05-.88.05-.45-.05-1.06-.17-1.5.06v-.06c-.17-.11-.44.06-.28.22v.06c-.05.11 0 .22.06.28 0 .17.05.28.11.33.06.06.06.11.06.17.05.11.1.28.22.39.05.17.1.4.16.56.11.44.23.83.34 1.22.1.45.16.84.22 1.29.05.39.16.78.27 1.17.06.44.17.83.34 1.17l.44.94.33 1.12c.22.78.5 1.56.78 2.34.17.39.28.72.39 1.11 0 .28.05.56.22.84.1.33.22.67.28 1 .1.4.27.73.44 1.12l.33 1.28c.17.72.56 1.45.72 2.23.06.33.17.67.28 1 .05.17.17.33.22.5.06.17.11.4.11.61.11.4.22.73.39 1.06.17.34.22.73.33 1.06.28.84.45 1.62.61 2.45.22.84.33 1.73.56 2.57.27.72.5 1.45.66 2.17.11.4.28.73.39 1.06.11.39.28.78.39 1.17.05.45.16.84.27 1.23.06.39.23.78.4 1.11.32.72.55 1.5.88 2.23.05.17.16.39.28.56v.05c0 .17.05.34.1.5.06.06.12.12.12.23v.33s.1.17.1.22l.17.17c.06.06.17.17.34.22.16.17.44.28.72.28.16 0 .33-.05.55-.05 0 0 .11-.06.17-.06h.33c.61.06 1.16.06 1.77.06h.84c.27-.06.66 0 .88-.23.17-.22.17-.44 0-.6 0-.06 0-.12.06-.12.05-.33.1-.67.22-1 .17-.34.22-.73.39-1.06.22-.4.33-.73.5-1.12.5-1.67 1.1-3.23 1.5-4.96.16-.78.32-1.61.55-2.45.27-.78.33-1.67.66-2.5.11-.34.28-.67.33-1.06.17-.4.23-.84.34-1.29.05-.39.16-.83.27-1.22.06-.45.11-.84.28-1.28.06-.17.06-.4.11-.62.06-.22.11-.44.11-.72.06-.22.11-.45.22-.73.06-.22.11-.44.23-.66l.16-.73c.06-.22.11-.39.22-.61.06-.17.11-.4.17-.62 0-.22.11-.39.22-.6l.33-1.35.17-.72c.06.22.06.45.11.67l.17 1c.1.34.22.67.39 1-.06.06-.06.12-.06.23.06.05.06.05.06.1.1.85.6 1.51.88 2.3.28.72.45 1.5.61 2.28.22.78.5 1.56.72 2.34.11.39.17.78.33 1.11.06.17.17.34.23.5.1.17.16.34.22.5.1.4.22.73.33 1.12.11.4.17.78.28 1.17l.33 1.06c.06.45.11.9.28 1.28.27.78.39 1.56.66 2.34.17.4.33.78.45 1.17.16.4.27.78.38 1.17.11.4.23.73.34 1.12l.33 1c.05.33.22.61.22.95 0 .28.06.67.22.95.06.1.11.22.22.33 0 0 .06.06.06.11 0 .22.17.45.44.45.4 0 .78-.06 1.17-.17.38-.06.83 0 1.27-.06.39 0 .83-.05 1.28-.05h1.22c.05 0 .1.05.1.05.23.06.4-.05.45-.22v-.44c.17-.06.22-.23.17-.4-.06-.1-.12-.16-.17-.16l.17-.4c0-.05.05-.05.05-.1.17-.11.11-.34 0-.45.06-.06.06-.11.06-.17.1-.22.16-.44.22-.6.1-.4.22-.79.28-1.18.05-.11.05-.17.1-.22.28-.73.5-1.5.73-2.29.1-.33.27-.67.38-1 .17-.33.23-.72.4-1.06.16-.33.38-.61.5-.95l.32-1.28c.23-.78.56-1.5.72-2.34l.17-.5.17-.56c.1-.33.27-.72.38-1.06.12-.39.23-.72.4-1.06.16-.44.33-.83.5-1.22.21-.73.43-1.5.66-2.23.16-.17.27-.28.33-.5.05-.34.05-.61.11-.95.06-.28.11-.56.22-.83.11-.06.22-.12.28-.28.1-.34.16-.73.22-1.06.11-.28.28-.62.33-.95.22-.61.5-1.28.72-1.9.22-.72.45-1.44.61-2.17.17-.72.4-1.45.61-2.17.11-.34.28-.61.39-.95.17-.28.28-.56.33-.89.06-.22.11-.39.22-.61.06-.11.06-.23-.05-.28.17-.4.28-.84.44-1.23l.34-1c0-.06 0-.11.05-.17.22-.5.33-1.06.55-1.61.17-.45.45-.9.45-1.4v-.1zM226.74 30.79l-.17-1.28c-.05-.45-.1-.9-.22-1.34-.05-.39-.22-.84-.27-1.23a7.04 7.04 0 00-.17-.55c-.06-.17-.17-.28-.22-.45-.11-.17-.11-.39-.22-.56l-.23-.55a8.88 8.88 0 01-.38-1.12c-.17-.33-.34-.67-.45-1-.16-.4-.39-.72-.6-1.06-.28-.33-.67-.56-1.06-.84-.66-.5-1.39-.94-2.05-1.44a2.8 2.8 0 00-1-.5c-.16-.06-.39-.12-.55-.17-.17-.11-.33-.17-.56-.28-.16-.06-.33-.06-.5-.11-.16-.06-.38-.11-.55-.17-.44-.11-.89-.22-1.33-.22-.22 0-.44-.06-.6-.06-.18 0-.29.06-.45.06h-.22c-.28 0-.61.05-.9.1-.32.06-.6.06-.93.06-.28 0-.61 0-.89.12-.33.05-.6.05-.89.1l-.94.17c-.28.06-.55.28-.77.4-.5.27-1 .6-1.45 1-.1.1-.22.28-.38.39-.28.16-.45.39-.72.61-.34.28-.67.61-1 .9l-.33.5c-.06 0-.11.05-.17.1 0 .06-.06.17-.06.23 0 0 0 .05-.05.05 0 .06-.06.12-.11.17 0 .06-.06.11-.06.11-.16.06-.27.23-.39.4-.16.22-.27.5-.44.77-.39.73-.72 1.45-1 2.23-.1.34-.33.73-.44 1.12-.11.39-.17.83-.22 1.22a5.84 5.84 0 00-.11 2.4c.05.39.05.78.05 1.17 0 .5.11.95.17 1.4.11.83.33 1.72.6 2.56.23.78.45 1.61.9 2.34.22.33.38.6.55 1 .11.39.22.78.5 1.11.33.45.77.9 1.22 1.23.5.33 1.05.56 1.6.84l.5.16s.06.06.12.06c.33.22.66.39 1.05.56.05 0 .16 0 .22.05.06 0 .11.06.17.11.16.06.27.17.44.23.22 0 .39.05.6.05 0 0 .06.06.12.06.06.05.17.1.22.1.22.06.44.06.67.06.16.06.38.12.6.23.12 0 .17.05.28.1h.34c.44.18.94.06 1.38 0h.28c.1 0 .22-.05.33-.05.11 0 .22.06.33 0h.4c.43 0 .88-.16 1.32-.28.5-.1 1-.27 1.55-.39.11 0 .23-.05.34-.05.44-.11.88-.28 1.27-.45.33-.16.61-.39 1-.5a.42.42 0 01.22-.11c.17-.06.33-.17.5-.28.16-.11.39-.17.55-.22l.45-.28c.1-.11.27-.17.44-.28.17-.17.28-.33.44-.5.28-.28.34-.73.61-1.06.22-.28.45-.61.61-.95l.5-.94c.17-.23.22-.5.28-.78.05-.06.16-.17.22-.28v-.06c.11-.28-.17-.56-.44-.56h-.4c-.1 0-.27-.1-.38-.16-.11-.06-.28-.06-.44-.11a1.61 1.61 0 00-.5-.12c-.72-.05-1.39.12-2.05 0-.28-.05-.56-.1-.83-.05-.28 0-.56.05-.83-.11-.17-.11-.45-.28-.67-.11-.17.05-.22.22-.22.39l-.06.05-.16.34c-.11.16-.22.39-.4.5-.38.39-.71.67-1.1.94-.39.23-.83.34-1.22.5-.28.12-.5.28-.77.45-.17.06-.34.11-.5.22h-.17c-.11.06-.22.12-.33.12-.22 0-.45-.06-.72-.06a.9.9 0 01-.5-.17c-.22-.1-.39-.28-.61-.33-.44-.17-.78-.45-1.17-.73a2.09 2.09 0 01-.88-1.05c-.11-.4-.45-.78-.5-1.17-.06-.28-.06-.5-.11-.79-.06-.22-.06-.44-.11-.66a2.81 2.81 0 01-.11-.67c0-.23-.06-.5-.06-.73-.05-.22-.05-.5-.05-.72l-.06-.06c.44.11.89.11 1.33.17h1c.33 0 .66-.06.94 0 .28.06.5.11.72.11.33 0 .61-.05.94-.11.67-.17 1.33 0 2.05 0 .56 0 1.17.06 1.78 0 .27 0 .55-.11.88-.17.34-.05.67-.05 1.06-.1h1.05c.33 0 .6.1.94.1h1c.28-.05.55.06.83 0 .06 0 .06 0 .11-.05.22.05.5.1.78.1.27 0 .5 0 .66-.16.22 0 .45-.11.5-.39.11-.28-.05-.56-.1-.89zm-15.68-4.85c.05-.17.16-.33.22-.5.33-.45.6-.95.94-1.4.17-.22.28-.38.44-.55.06 0 .17 0 .17-.06.28 0 .5-.16.78-.27h.44c.11-.06.17-.06.28-.12.33 0 .6-.1.94-.1.39 0 .72.1 1.05.16.33.11.67.22 1 .39.17.06.33.11.44.22.11.06.22.17.28.28.33.78.94 1.4 1.22 2.23.11.45.44.78.44 1.28 0 .06 0 .17.06.28-.67.06-1.28.17-1.89.11-.44-.05-.83 0-1.27.06-.5 0-.94 0-1.44-.06-.45-.05-.83 0-1.28.06-.44 0-.83-.06-1.27 0-.45.05-.89.1-1.28.22-.16 0-.38.06-.5 0h-.1l-.06-.06c.05-.27.05-.55.05-.83.06-.45.45-.9.34-1.34zM258.89 31.63c.05-.23-.06-.45-.06-.67 0-.17-.05-.4-.11-.62v-.5c0-.22-.11-.39-.11-.61 0-.22-.11-.5-.11-.72-.11-.79-.33-1.57-.5-2.35-.11-.5-.28-.89-.5-1.33-.17-.4-.39-.78-.55-1.17-.28-.78-.72-1.67-1.5-2.06-.11-.23-.28-.4-.44-.62-.23-.28-.5-.61-.78-.83-.28-.23-.55-.45-.83-.56a2.98 2.98 0 00-.72-.4c-.22-.1-.44-.27-.67-.44-.22-.22-.5-.33-.77-.44-.28-.11-.56-.11-.83-.23-.28-.1-.5-.27-.78-.33a1.02 1.02 0 00-.39-.11c-.1 0-.22-.11-.33-.11-.66-.11-1.27.1-1.94.1-.28 0-.55 0-.83.06-.11 0-.22.06-.39.06-.11 0-.33-.06-.44 0-.22.11-.45.17-.67.22-.33.11-.6.17-.88.23-.28.1-.56.33-.78.44-.33.17-.6.34-.89.5-.22.11-.44.28-.6.45l-.06.05c-.28.17-.44.34-.61.62 0 .05-.06.1-.11.16 0-.05 0-.1.05-.16V19.2c-.05-.4-.1-.73-.1-1.12 0-.33-.06-.66-.06-.94V13.9c.05-1.44.1-2.95 0-4.4-.06-.72-.06-1.4-.11-2.06 0-.33 0-.67-.06-1.06 0-.17 0-.33-.05-.5v-.11a108 108 0 00.1-4.24c0-.55.12-1.67-.77-1.56-.28 0-.55.11-.83.17-.33 0-.67.06-1 .06-.28 0-.55 0-.89-.06h-2.05c-.27.06-.55.06-.77-.06-.28-.16-.56 0-.61.28-.17.06-.22.17-.28.34 0 .89 0 1.84-.05 2.73v1.34c0 .44-.06.89-.06 1.33 0 .4.11.78.17 1.17.05.4 0 .9 0 1.34v2.73c-.06.9-.06 1.84-.06 2.73v1.23c0 .5.06.95.06 1.4 0 .88-.06 1.77 0 2.61.1.9 0 1.73.05 2.56.06.56-.05 1.17-.1 1.73 0 .28 0 .56.05.84 0 .16.05.33.05.44a.8.8 0 00-.1.34c0 1.84.05 3.68 0 5.51v3.96c-.06.45-.12.9-.12 1.34 0 .83.06 1.67.11 2.5v1.29c0 .44 0 .83.06 1.28 0 .39-.06.78-.06 1.17-.05.28-.05.56 0 .84.06.16.17.33.33.44.06.06.17.06.23.11-.11-.05.22.11.1 0 .34.17.78.17 1.17.11.39 0 .78-.05 1.16-.1.4-.06.84 0 1.28 0h1.38c.4 0 .9.05 1.28-.06.44-.11.55-.56.5-.95 0 .06.05-.22.05-.33 0-.23-.05-.45-.1-.73 0-.06-.06-.11-.06-.22a1 1 0 00.27.39 3 3 0 00.78.89c.39.28.72.56 1.16.72.34.17.72.28 1.06.28.1.11.27.17.38.23.12.05.23.05.4.1.16.06.33.17.5.23.71.28 1.38.39 2.15.45h1.06c.38-.06.77-.17 1.1-.23a7.71 7.71 0 003.72-1.78c.22-.22.5-.33.72-.56.22-.22.5-.39.72-.61a5.3 5.3 0 001.44-1.5l.66-1c.23-.4.4-.84.56-1.23.05-.17.11-.28.17-.45.1-.17.16-.39.27-.61.06-.17.11-.34.22-.5.06-.17.11-.4.11-.56.12-.4.28-.78.4-1.12.05-.39.16-.83.21-1.22.06-.17.12-.4.12-.62 0-.16 0-.33.05-.44.06-.22.06-.45.06-.61zm-12.42 6.46c-.05 0-.16.06-.22.06-.17 0-.33-.06-.5-.06-.39 0-.77.06-1.1 0a4.05 4.05 0 01-1.67-1.06c-.28-.22-.55-.5-.83-.72-.28-.28-.5-.56-.72-.84-.11-.05-.17-.17-.22-.28-.11-.17-.22-.33-.28-.5-.22-.33-.22-.72-.39-1.11a28.27 28.27 0 01-.6-2.29c-.12-.72.16-1.45.27-2.23.05-.39.22-.72.33-1.11.06-.11.11-.28.17-.45.05-.1.16-.22.16-.39.06-.05.06-.11.06-.17.17-.27.44-.5.72-.72.11-.11.28-.17.39-.28.1-.11.22-.28.39-.33.27-.23.55-.5.88-.67a.86.86 0 00.45-.34c.1-.05.22-.22.27-.27.28-.17.67-.23.95-.28.16-.06.33-.06.5-.06.22 0 .38-.05.6-.11.4 0 .84.11 1.22.11.34 0 .56.06.78.28.28.28.55.56.77.9l.73.88c.1.17.16.28.27.4l.28.6c.17.34.33.67.44 1.06.17.4.28.84.4 1.23l.16 1.5c.05.45.16.9.16 1.4v.61c0 .22-.1.4-.16.61l-.17.73c-.05.28-.22.5-.28.72-.16.45-.38.73-.66 1.06-.17.17-.28.28-.44.4a2.5 2.5 0 01-1.28 1.33 5.3 5.3 0 01-1.83.33v.06z"/></g><path d="M61.96 136.71c-2.25-13.55-7.9-54.28-7.64-59.07.25-4.78 4.22-7.02 7.62-7.01 3.4 0 66.9-3.75 70.01-2.76 3.5 1.1 4.48 2.4 5.5 10.76 1 8.36 3.92 51.6 3.92 51.6s27.39 23.6 32 26.67c4.6 3.07-4.36 4.32-9.82 4.36-5.46.03-84.8 3.33-88.62 3.16-2.74-.12-5.93-2.42-7-4.46-1.76-3.41-3.72-9.69-5.97-23.25z" fill="#FFF"/><path d="M142.16 129.84c2.78 2.4 27.33 23.5 31.66 26.38 1.27.86 1.67 1.7 1.63 2.36-.04.7-.58 1.4-1.62 1.9-2.19 1.06-6.88 1.57-10.27 1.59-5.47.04-84.85 3.33-88.67 3.16-3-.13-6.51-2.66-7.68-4.9-1.78-3.44-3.78-9.78-6.05-23.48-2.26-13.6-7.91-54.45-7.66-59.25.28-5.3 4.67-7.8 8.44-7.79 2.73 0 43.9-2.4 61.84-2.85 4.64-.12 7.78-.07 8.42.13a8.1 8.1 0 012.8 1.39c.89.73 1.54 1.75 2.06 3.44.47 1.52.83 3.62 1.2 6.61.96 7.93 3.62 47.25 3.9 51.31zm-79.4 6.74c-2.24-13.52-7.88-54.12-7.63-58.9.23-4.26 3.78-6.24 6.81-6.24 2.73 0 43.92-2.4 61.88-2.85 4.34-.11 7.28-.14 7.88.05.94.3 1.67.6 2.27 1.09a5.24 5.24 0 011.53 2.66c.45 1.46.79 3.48 1.14 6.34 1 8.35 3.91 51.56 3.91 51.56.02.22.12.42.28.56 0 0 27.47 23.65 32.08 26.73.37.24.63.46.8.68.06.08.12.15.11.22 0 .09-.09.14-.17.2a2.6 2.6 0 01-.54.34c-2.03.99-6.4 1.4-9.57 1.42-5.46.04-84.76 3.33-88.57 3.17-2.47-.11-5.35-2.19-6.3-4.03-1.75-3.37-3.68-9.58-5.9-23z" fill="#5A24AA"/><path d="M65 76.47l5.97 53.93 66.18-3.72-5.45-52.86z" fill="#FFF"/><path d="M64.98 75.8a.68.68 0 00-.65.75l5.96 53.92c.04.36.36.62.72.6l66.18-3.72a.68.68 0 00.64-.74l-5.45-52.86a.68.68 0 00-.7-.6l-66.7 2.64zm.78 1.32l5.81 52.56 64.83-3.64-5.3-51.52-65.34 2.6zM74.2 162.03l99.55-4.35a.81.81 0 10-.07-1.62l-99.49 4.34a.81.81 0 100 1.63zM65.23 137.73l77.5-4.73a.81.81 0 00-.1-1.62l-77.57 4.73a.81.81 0 10.17 1.62z" fill="#5A24AA"/><path d="M65.81 136.76l8.07 24.4a.68.68 0 11-1.3.42l-8.08-24.46a.7.7 0 01-.03-.14L58.08 76.1a.68.68 0 011.35-.14l6.38 60.8z" fill="#5A24AA"/><path d="M135.35 149.02c-.1-.76-.85-1.3-1.7-1.2l-3.25.4c-.84.1-1.45.8-1.36 1.56l.33 2.75c.1.76.85 1.3 1.7 1.2l3.25-.4c.84-.1 1.45-.8 1.36-1.56l-.33-2.75zm-7.52.9c-.1-.75-.85-1.29-1.7-1.19l-3.25.4c-.84.1-1.45.8-1.36 1.56l.33 2.75c.1.76.85 1.3 1.7 1.19l3.25-.4c.84-.1 1.45-.8 1.36-1.55l-.33-2.76zm-7.6.92c-.09-.76-.84-1.3-1.68-1.19l-3.26.4c-.84.1-1.45.8-1.36 1.55l.33 2.76c.1.75.85 1.29 1.7 1.19l3.25-.4c.84-.1 1.45-.8 1.36-1.56l-.33-2.75zm22.7-2.74c-.08-.76-.84-1.3-1.68-1.2l-3.26.4c-.84.1-1.45.8-1.36 1.56l.33 2.75c.1.76.85 1.3 1.7 1.2l3.25-.4c.84-.1 1.45-.8 1.36-1.56l-.33-2.75zm-52.79 6.38c-.09-.76-.85-1.3-1.69-1.2l-3.25.4c-.85.1-1.46.8-1.36 1.56l.33 2.75c.1.76.85 1.3 1.69 1.2l3.26-.4c.84-.1 1.45-.8 1.36-1.56l-.34-2.75zm60.44-7.3c-.09-.76-.85-1.3-1.69-1.2l-3.26.4c-.84.1-1.45.8-1.36 1.56l.34 2.75c.09.76.85 1.3 1.69 1.2l3.26-.4c.84-.1 1.45-.8 1.35-1.56l-.33-2.75zm-52.92 6.39c-.09-.76-.84-1.3-1.69-1.2l-3.25.4c-.85.1-1.45.8-1.36 1.56l.33 2.75c.1.76.85 1.3 1.7 1.2l3.25-.4c.84-.1 1.45-.8 1.36-1.56l-.34-2.75zm15.24-1.84c-.1-.76-.85-1.3-1.7-1.2l-3.25.4c-.84.1-1.45.8-1.36 1.56l.33 2.75c.1.76.85 1.3 1.7 1.2l3.25-.4c.84-.1 1.45-.8 1.36-1.56l-.33-2.75zm45.02-5.44c-.1-.76-.85-1.3-1.7-1.2l-3.25.4c-.84.1-1.45.8-1.36 1.56l.33 2.75c.1.76.85 1.3 1.7 1.2l3.25-.4c.84-.1 1.45-.8 1.36-1.56l-.33-2.75zm-52.66 6.36c-.1-.76-.85-1.3-1.7-1.2l-3.25.4c-.84.1-1.45.8-1.36 1.56l.33 2.75c.1.76.85 1.3 1.7 1.2l3.25-.4c.84-.1 1.45-.8 1.36-1.56l-.33-2.75zm16.02-8.8c-.09-.76-.85-1.3-1.69-1.2l-3.26.4c-.84.1-1.45.8-1.35 1.56l.33 2.75c.09.76.85 1.3 1.69 1.2l3.26-.4c.84-.1 1.45-.8 1.36-1.56l-.34-2.75zm7.52-.9c-.09-.77-.85-1.3-1.69-1.2l-3.25.4c-.85.1-1.45.8-1.36 1.55l.33 2.76c.1.75.85 1.29 1.7 1.19l3.25-.4c.84-.1 1.45-.8 1.36-1.56l-.34-2.75zm-15.1 1.82c-.1-.76-.86-1.3-1.7-1.2l-3.26.4c-.84.1-1.45.8-1.35 1.56l.33 2.75c.09.76.85 1.3 1.69 1.2l3.26-.4c.84-.1 1.45-.8 1.36-1.56l-.34-2.75zm30.34-3.67c-.1-.76-.85-1.3-1.7-1.2l-3.25.4c-.84.1-1.45.8-1.36 1.56l.33 2.75c.1.76.85 1.3 1.7 1.2l3.25-.4c.84-.1 1.45-.8 1.36-1.56l-.33-2.75zm-52.92 6.4c-.09-.77-.85-1.3-1.69-1.2l-3.26.4c-.84.1-1.45.8-1.36 1.56l.34 2.75c.09.76.85 1.29 1.69 1.19l3.26-.4c.84-.1 1.45-.8 1.35-1.56l-.33-2.75zm-7.52.9c-.1-.76-.85-1.3-1.69-1.19l-3.26.4c-.84.1-1.45.8-1.36 1.55l.34 2.76c.09.75.85 1.29 1.69 1.19l3.25-.4c.85-.1 1.45-.8 1.36-1.56l-.33-2.75zm67.78-8.18c-.1-.76-.85-1.3-1.7-1.2l-3.25.4c-.84.1-1.45.8-1.36 1.56l.33 2.75c.1.76.85 1.3 1.7 1.2l3.25-.4c.84-.1 1.45-.8 1.36-1.56l-.33-2.75zm-45.02 5.43c-.1-.76-.85-1.3-1.7-1.19l-3.25.4c-.84.1-1.45.8-1.36 1.55l.33 2.76c.1.76.85 1.29 1.7 1.19l3.25-.4c.84-.1 1.45-.8 1.36-1.56l-.33-2.75zm30.04-3.63c-.1-.76-.85-1.29-1.7-1.19l-3.25.4c-.84.1-1.45.8-1.36 1.56l.33 2.75c.1.76.85 1.3 1.7 1.19l3.25-.4c.84-.1 1.45-.8 1.36-1.55l-.33-2.76zm-37.69 4.56c-.09-.76-.85-1.3-1.69-1.2l-3.26.4c-.84.1-1.45.8-1.35 1.56l.33 2.75c.09.76.85 1.3 1.69 1.2l3.26-.4c.84-.1 1.45-.8 1.36-1.56l-.34-2.75zm57.9-13.72c-.1-.76-.86-1.3-1.7-1.19l-3.26.4c-.84.1-1.45.8-1.35 1.55l.33 2.76c.09.76.85 1.29 1.69 1.19l3.26-.4c.84-.1 1.45-.8 1.36-1.56l-.34-2.75zm-14.99 1.81c-.09-.76-.85-1.3-1.69-1.19l-3.26.4c-.84.1-1.45.8-1.35 1.55l.33 2.76c.09.76.85 1.29 1.69 1.19l3.26-.4c.84-.1 1.45-.8 1.36-1.56l-.34-2.75zm-37.68 4.55c-.1-.76-.85-1.29-1.69-1.19l-3.26.4c-.84.1-1.45.8-1.36 1.56l.34 2.75c.09.76.85 1.3 1.69 1.19l3.25-.4c.85-.1 1.46-.8 1.36-1.55l-.33-2.76zm7.64-.92c-.09-.76-.85-1.3-1.69-1.2l-3.25.4c-.85.1-1.46.8-1.36 1.56l.33 2.75c.1.76.85 1.3 1.69 1.2l3.26-.4c.84-.1 1.45-.8 1.36-1.56l-.34-2.75zm-22.75 2.75c-.1-.76-.85-1.3-1.7-1.2l-3.25.4c-.84.1-1.45.8-1.36 1.56l.33 2.75c.1.76.85 1.3 1.7 1.2l3.25-.4c.84-.1 1.45-.8 1.36-1.56l-.33-2.75zm45.2-5.46c-.09-.76-.85-1.3-1.69-1.2l-3.26.4c-.84.1-1.45.8-1.36 1.56l.34 2.75c.09.76.85 1.3 1.69 1.2l3.26-.4c.84-.1 1.45-.8 1.35-1.56l-.33-2.75zm15.24-1.84c-.1-.76-.85-1.3-1.7-1.2l-3.25.4c-.84.1-1.45.8-1.36 1.56l.33 2.75c.1.76.85 1.3 1.7 1.2l3.25-.4c.84-.1 1.45-.8 1.36-1.56l-.33-2.75zm-52.92 6.4c-.1-.77-.85-1.3-1.7-1.2l-3.25.4c-.84.1-1.45.8-1.36 1.55l.33 2.75c.1.76.85 1.3 1.7 1.2l3.25-.4c.84-.1 1.45-.8 1.36-1.56l-.33-2.75zm22.57-2.74c-.1-.75-.85-1.29-1.69-1.19l-3.26.4c-.84.1-1.45.8-1.36 1.56l.34 2.75c.09.76.85 1.3 1.69 1.19l3.25-.4c.85-.1 1.45-.8 1.36-1.55l-.33-2.76zm7.6-.91c-.1-.76-.86-1.3-1.7-1.2l-3.26.4c-.84.1-1.45.8-1.36 1.56l.34 2.75c.09.76.85 1.3 1.69 1.2l3.26-.4c.84-.1 1.45-.8 1.35-1.56l-.33-2.75zm-27.74-3.05c-.09-.76-.85-1.3-1.69-1.2l-3.26.4c-.84.1-1.45.8-1.35 1.56l.33 2.75c.09.76.85 1.3 1.69 1.2l3.26-.4c.84-.1 1.45-.8 1.36-1.56l-.34-2.75zm7.65-.93c-.1-.76-.85-1.29-1.7-1.19l-3.25.4c-.84.1-1.45.8-1.36 1.56l.33 2.75c.1.76.85 1.3 1.7 1.19l3.25-.4c.84-.1 1.45-.8 1.36-1.55l-.33-2.76zm37.68-4.55c-.1-.76-.85-1.3-1.7-1.19l-3.25.4c-.84.1-1.45.8-1.36 1.55l.33 2.76c.1.76.85 1.29 1.7 1.19l3.25-.4c.84-.1 1.45-.8 1.36-1.56l-.33-2.75zm-52.92 6.4c-.09-.77-.85-1.3-1.69-1.2l-3.26.4c-.84.1-1.45.8-1.36 1.56l.34 2.75c.09.76.85 1.3 1.69 1.19l3.26-.4c.84-.1 1.45-.8 1.35-1.55l-.33-2.76zm22.57-2.73c-.09-.76-.85-1.3-1.69-1.2l-3.26.4c-.84.1-1.45.8-1.36 1.56l.34 2.75c.09.76.85 1.3 1.69 1.2l3.26-.4c.84-.1 1.45-.8 1.35-1.56l-.33-2.75zm22.7-2.74c-.09-.76-.84-1.3-1.69-1.2l-3.25.4c-.84.1-1.45.8-1.36 1.56l.33 2.75c.1.76.85 1.3 1.7 1.2l3.25-.4c.84-.1 1.45-.8 1.36-1.56l-.33-2.75zm-15.1 1.82c-.1-.76-.86-1.3-1.7-1.2l-3.26.4c-.84.1-1.45.8-1.35 1.56l.33 2.75c.09.76.85 1.3 1.69 1.2l3.26-.4c.84-.1 1.45-.8 1.36-1.56l-.34-2.75zm30.09-3.63c-.1-.76-.85-1.3-1.7-1.2l-3.25.4c-.85.1-1.45.8-1.36 1.56l.33 2.75c.1.76.85 1.3 1.7 1.2l3.25-.4c.84-.1 1.45-.8 1.36-1.56l-.33-2.75zm-22.58 2.72c-.09-.76-.85-1.3-1.69-1.19l-3.25.4c-.85.1-1.46.8-1.36 1.55l.33 2.76c.1.76.85 1.29 1.69 1.19l3.26-.4c.84-.1 1.45-.8 1.36-1.56l-.34-2.75zm-45.2 5.46c-.1-.76-.85-1.3-1.7-1.19l-3.25.4c-.84.1-1.45.8-1.36 1.55l.34 2.76c.09.76.84 1.29 1.69 1.19l3.25-.4c.85-.1 1.45-.8 1.36-1.56l-.33-2.75z" fill="#FF0BB2"/><path d="M155.41 72.9c-1.34.09-2.5 2.4-2.53 3.13-.33 11-2.9 56.24-2.53 68.5.07 2.32 2.45 4.8 4.76 5.07 7.46.86 32.8.76 40.02.12 1.72-.16 3.18-2.29 3.3-4.01.9-12.39 2.12-58.2 2.08-70.3 0-1.07-1.2-2.2-2.28-2.27-7.52-.41-35.26-.72-42.82-.23z" fill="#FFF"/><path d="M155.31 71.28a3.9 3.9 0 00-2.61 1.5 6.55 6.55 0 00-1.44 3.2c-.34 11.02-2.9 56.32-2.54 68.6a6.9 6.9 0 001.99 4.37 7.19 7.19 0 004.2 2.26c7.53.87 33.08.78 40.36.13a4.72 4.72 0 002.9-1.46 6.81 6.81 0 001.89-4.06c.9-12.4 2.12-58.3 2.08-70.41 0-.94-.47-1.93-1.23-2.67a4.21 4.21 0 00-2.6-1.22c-7.54-.42-35.4-.72-43-.24zm.1 1.63c-1.34.08-2.5 2.38-2.53 3.12-.33 11-2.9 56.24-2.53 68.5.07 2.32 2.45 4.8 4.76 5.07 7.46.86 32.8.76 40.02.12 1.72-.16 3.18-2.29 3.3-4.01.9-12.39 2.12-58.2 2.08-70.3 0-1.07-1.2-2.2-2.28-2.27-7.52-.41-35.26-.72-42.82-.23z" fill="#5A24AA"/><path d="M154.97 75.16c0 .23-1.46 57.84-1.4 69.7 0 .5.23 1 .62 1.39a3.1 3.1 0 001.86.86c6.86.47 39.43 1.35 39.43 1.35a.82.82 0 00.05-1.63s-32.52-.88-39.37-1.34c-.23-.02-.5-.13-.7-.3-.13-.1-.27-.2-.27-.34-.05-11.85 1.41-69.46 1.41-69.69a.81.81 0 00-1.63 0z" fill="#5A24AA"/><ellipse cx="4.01" cy="5.49" rx="3.62" ry="4.73" transform="translate(172.8 134.64)" fill="#5A24AA"/><path d="M158.5 76.7l-.55 61.78 39.1.41.4-61.78z" fill="#FFF"/><path d="M158.5 76.02a.68.68 0 00-.68.67l-.55 61.78c0 .37.3.68.67.68l39.1.42a.68.68 0 00.68-.67l.4-61.79c.01-.37-.29-.67-.66-.68l-38.96-.41zm.14 61.79l37.73.4.4-60.43-37.6-.4-.53 60.43z" fill="#5A24AA"/><path d="M225.93 78.72c-4.65-9.51-19.98-17.68-38.85-19.72a77.38 77.38 0 00-16.82-.03c-2.95.33-3.01-.11-.05-.68a85.85 85.85 0 0125.21-.86c17.89 1.93 33.01 8.64 40.81 17.06l.07-.02c4.36-1.08 13.34-1.68 18.1-1.17 21.22 2.29 32.3 21.27 30.06 42.04-2.24 20.78-22.91 33.75-44.15 31.46-21.23-2.29-35.04-18.98-32.8-39.76a37.55 37.55 0 0118.42-28.32" fill="#FFF"/><g transform="rotate(6.16 -420.22 1592.12)"><mask id="b" fill="#fff"><use xlink:href="#a"/></mask><g mask="url(#b)"><g fill="#FF0BB2"><path d="M73.9 48.98a2.97 2.97 0 01-3.07 1.63c-1.2-.2-2.15-.91-2.8-2.13-.67-1.24-.97-3.5-.71-6.05.35-3.46 1.53-7.52 2.43-9.17a4.26 4.26 0 012.27-2.13c1.96-.65 3.03.05 3.64.64.51.49.87 1.13 1.03 1.92.11.52 0 1.73-.07 2.36.12.47.21 1.06.2 1.74-.01 2.46-1 7.66-1.84 9.58-.31.7-.69 1.23-1.08 1.6zM102.1 36.15a4.02 4.02 0 012.54 1.76c.44.69.7 1.53.72 2.6 0 .9-.28 2.2-.59 4-.36 2.14-.61 5.5-1.43 7.5-1.32 3.18-3.16 3.6-4.1 3.58a3.22 3.22 0 01-2.6-1.5c-.82-1.17-1.39-4.23-1-6.51l1.61-9.43c.3-1.77 1.84-2.98 3.44-2.7.54.08 1.02.34 1.4.7z"/><path d="M81.94 23.51c-3.88 5.77-5.36 7.1-6.81 15.57-.21 1.26-1.3 2.12-2.43 1.92-1.14-.19-1.88-1.36-1.66-2.61 1.65-9.7 3.28-11.08 7.84-17.9a3.97 3.97 0 012.54-1.54c1.52-.33 4.1-.26 6.94.17 4.09.62 8.73 1.97 11.38 3.58 1.66 1 2.64 2.26 2.92 3.38 1.4 5.37 1.3 13.1.27 19.17-.21 1.26-1.3 2.12-2.43 1.92-1.13-.19-1.87-1.36-1.66-2.61.92-5.37 1.06-12.2-.16-16.98a4.05 4.05 0 00-.33-.35 8.44 8.44 0 00-1.72-1.03 34.62 34.62 0 00-8.98-2.53 31.4 31.4 0 00-5.7-.16zM66.5 35.57c-.55 3.2-.87 6.33-1.4 9.49-.22 1.25.52 2.43 1.65 2.62 1.13.2 2.22-.67 2.43-1.92.54-3.16.86-6.29 1.41-9.49.21-1.25-.53-2.42-1.66-2.62-1.12-.19-2.22.67-2.43 1.92zM103.5 42.57l-1.41 8.27c-.21 1.25.53 2.42 1.66 2.61 1.13.2 2.22-.66 2.43-1.92l1.41-8.26c.22-1.25-.52-2.42-1.66-2.62-1.12-.19-2.22.67-2.43 1.92z"/></g><path d="M99.96 45.58c0 2-.34 4.38.23 6.29.63 2.1 2.11 3.87 3.6 5.62 1.34 1.57 2.7 3.11 3.23 4.95.79 2.7.2 6.2.2 8.99 0 .42.27 2.4 1.18 3.67l1.33-.94a5.98 5.98 0 01-.89-2.73c0-2.93.57-6.6-.25-9.44-.6-2.05-2.06-3.8-3.56-5.55-1.34-1.58-2.7-3.15-3.27-5.04-.53-1.76-.17-3.97-.17-5.82h-1.63z" fill="#FF0BB2"/></g></g><path d="M224.67 78.37c-1.88-3.38-5.17-6.56-9.5-9.31-7.12-4.54-17.03-7.91-28.19-9.12a76.43 76.43 0 00-16.61-.02c-1.4.15-2.24.12-2.53.03-.6-.18-.74-.61-.77-.89-.02-.25.01-.66.51-.98a8.8 8.8 0 012.45-.72 86.81 86.81 0 0125.5-.87c17.86 1.93 33 8.6 41.02 16.95 4.6-1.04 13.28-1.59 17.94-1.09 21.79 2.36 33.21 21.78 30.91 43.1-2.3 21.29-23.43 34.64-45.19 32.3-21.79-2.36-35.94-19.5-33.64-40.81a38.46 38.46 0 0118.1-28.57zm1.7 1.2a36.6 36.6 0 00-17.91 27.57c-2.18 20.24 11.27 36.49 31.95 38.72 20.71 2.23 40.92-10.35 43.1-30.62 2.19-20.24-8.54-38.77-29.22-41-4.66-.5-13.48.09-17.76 1.15l-.1.03a.95.95 0 01-.9-.29c-7.68-8.29-22.6-14.85-40.2-16.75a91.85 91.85 0 00-10.46-.54c.77.06 1.54.14 2.32.22 11.48 1.24 21.67 4.73 29 9.4 4.95 3.15 8.6 6.85 10.54 10.75l.02.03c.21.36.16.8-.1 1.1l-.01.02h-.01a.94.94 0 01-.26.2z" fill="#5A24AA"/><path d="M45 122.28s-1.48-12.2-1.48-17.5c0-5.31-1.27-9.55-.05-18.36 1.23-8.82.2-21.06-.6-26.84-.54-3.88-6.43-6.04-8.12-1.57-1.01 7.01-.48 9.08-.42 12.83.05 3.74-3 19.98-3.96 22.36-.96 2.38-3.82 1.35-4.5-.18-.66-1.52-2.1-10.48-7.27-21.29-5.16-10.8-9.17-16.2-10.17-17.89-1-1.69-3.7-1.82-4.97-.9-1.28.9-2.8 2.62-1.81 5.36.98 2.74 7.22 18.83 8.1 22.37.9 3.65 5.58 16.48 5.58 16.48-3.88-1.22-4.58-1.79-8.05.96-3.48 2.75-1.13 7.74-.08 10.16-2.05 2.2-4.05 6.34-4.84 8.82-1.11 3.48 2.33 9.03 2.53 10.76.56 4.72 4.54 16.17 8.92 23.94 4.38 7.76 1.82 16.74 1.82 16.74l26.73-1.33s-.21-6.35.9-13.67c1.13-7.3 2.97-8.6 3.73-16.8.77-8.21 2.3-11.22-2.14-14.57" fill="#FFF"/><path d="M38.63 122.05c.11-.19.17-.37.22-.61.05-.12.16-.25.22-.37l.06-.06c.06 0 .12 0 .17-.07.23-.25.46-.5.57-.8.16-.3.27-.67.31-.97.21-.72.42-1.39.57-2.05.1-.36.1-.72.14-1.08.04-.36.03-.78.01-1.13-.03-.72-.18-1.43-.33-2.2-.02-.3-.09-.65-.16-.95l-.01-.17c.04-.54-.17-1.2-.31-1.66-.13-.3-.26-.47-.39-.7-.13-.24-.14-.41-.32-.59-.13-.23-.2-.46-.33-.64l-.38-.52a2.06 2.06 0 00-.52-.93c-.31-.35-.63-.75-1.05-.91l-.06-.06c-.13-.11-.26-.29-.44-.4-.25-.23-.5-.4-.74-.62-.2-.3-.5-.46-.86-.56l-.01-.12c-.24-.11-.49-.28-.68-.45a2.98 2.98 0 00-1.16-.55c.06 0 .13.05 0-.06-.12-.05-.18-.11-.3-.17-.19-.1-.37-.16-.55-.21-.37-.22-.68-.45-1.04-.55-.43-.16-.85-.2-1.27-.3-.85-.27-1.82-.65-2.72-.6-.24 0-.41.07-.65.08-.18 0-.3-.05-.48-.04-.48-.1-1.02.04-1.43.18-.35.13-.7.27-1.06.34-.18.07-.35.14-.59.2-.18.07-.41.14-.65.21-.35.08-.77.16-1.12.29-.42.14-.76.4-1.11.58-.53.27-.93.64-1.4 1.02-.23.19-.52.38-.75.57-.23.19-.46.44-.63.68-.92.88-1.35 2.03-2.02 3.07-.34.55-.6 1.16-.82 1.7-.22.61-.37 1.16-.59 1.7-.11.25-.16.55-.2.85-.06.18-.17.42-.21.66-.05.3-.1.6-.03.9-.05.06-.05.18-.1.3-.05.24-.1.42-.1.66l.02.24c-.12.13-.11.24-.1.42 0 .06.06.06.06.12.07.35.56.45.9.32.07.06.2.05.31.05l.54-.03c.36-.01.65-.08 1-.16.42-.08.78-.1 1.2-.17.77-.1 1.55 0 2.32-.1.36-.07.66-.08 1.02-.1.12.05.35-.02.47-.02.12.05.18.05.3.05a.4.4 0 00.35-.26h.06c.23-.19.28-.49.15-.66 0-.06 0-.12.06-.12l.14-.9c.03-.6.25-1.15.4-1.7a6.99 6.99 0 011.74-2.87c.23-.07.47-.14.7-.27.18-.07.3-.2.47-.2.24-.07.54-.08.78-.1.3 0 .65-.08.95-.1.48-.01.95-.03 1.33.3.18.18.43.23.55.4.19.17.37.29.56.46.13.23.26.46.39.64.13.29.32.58.45.81l.32.47c.06.11.18.17.25.28.27.71.47 1.36.62 2.07.07.11.14.29.14.35l.01.36c.08.35.15.7.17 1.06.03.72.06 1.37-.03 2.1 0 .05-.06.12-.05.18-.05.24-.16.48-.21.72l-.82 1.83c-.17.3-.33.6-.56.92-.06.06-.12.06-.17.12-.18.19-.29.37-.4.56-.17.3-.4.55-.69.74-.34.31-.69.63-.91 1-.57.74-1.01 1.47-1.52 2.27-.44.8-.89 1.59-1.45 2.39-.57.74-1.07 1.54-1.64 2.28-.57.68-1.14 1.3-1.7 1.98-1.2 1.36-2.22 2.9-3.17 4.37-.34.55-.73 1.05-1.07 1.6-.4.55-.73 1.1-1.12 1.66-.74.98-1.35 2.02-2.03 3-.06.07-.11.13-.11.2v.05l-.06.06c-.11.13-.16.43-.03.54.19.3.49.28.72.09.42.04.84.02 1.2.07.47-.02.95.02 1.37.06l1.44-.06c.42-.02.84.02 1.25 0 .48.04.96.02 1.38-.05.47-.08.95-.04 1.37-.12.47-.08.95-.04 1.37-.06l1.36-.24c.83-.21 1.67-.25 2.56-.34.42-.02.78-.04 1.2.06.48.04.96.08 1.44 0 .41-.07.77-.15 1.18-.17.48-.08.96-.1 1.43-.12l1.38-.05c.41-.02.83-.1 1.25-.06.48.04.9.02 1.38 0 .17 0 .35-.07.53-.08.3-.07.6-.02.9-.04h.17c.07.05.19.05.3.1.25.05.55.04.79.03.24-.01.42.04.66.03.17 0 .3-.07.47-.08.3.17.71-.15.7-.45v-.12a.8.8 0 00-.15-.47v-.12c.05-.3-.03-.6-.04-.83l-.19-4.53a1.7 1.7 0 00-.27-.7 1.18 1.18 0 00-.67-.33c-.24-.11-.48-.1-.72-.15-.3-.05-.6-.04-.9-.02-.24 0-.48.08-.71.15-.3 0-.6-.04-.9-.03-.3.08-.53.2-.83.28-.23.07-.47.08-.7.15-.54.14-1.07.22-1.6.3-.6.15-1.2.11-1.8.14l-1.9.08c-.6.09-1.2.17-1.74.07-.36-.04-.66-.09-.9-.14.23-.24.46-.43.69-.68.46-.5.91-1.06 1.3-1.55.47-.5.74-1.1 1.13-1.66.4-.5.86-.99 1.25-1.54.29-.31.52-.56.74-.87.12 0 .18 0 .24-.13.05-.12.17-.19.29-.25.11-.13.22-.25.34-.43l.67-.93c.17-.3.34-.6.5-.85l.18-.2c.22-.3.45-.6.62-.91.22-.37.5-.62.8-.93a.57.57 0 00.09-.6c.11-.19.28-.43.45-.62.51-.68.9-1.47 1.34-2.2z" fill="#FF0BB2" fill-rule="nonzero"/><g fill="#5A24AA"><path d="M16.95 109.65c1.77.3 3.21.64 4.26 1.15.67.32 1.17.7 1.46 1.2.28.47.35 1.05.25 1.76-.1.72-.32 1.3-.74 1.7-.41.4-1.01.62-1.81.69-1.3.11-3.05-.17-5.37-.84l-.46 1.57c2.72.78 4.74 1.04 6.2.87a4.29 4.29 0 002.58-1.13 4.44 4.44 0 001.21-2.62c.17-1.14 0-2.06-.45-2.83a4.81 4.81 0 00-2.16-1.83 17.9 17.9 0 00-4.7-1.3l-.27 1.6zM14.45 121.97c-2.56 1.36-5.83 2.78-5.83 2.78l.65 1.5s3.33-1.46 5.95-2.85l-.77-1.43zM10.6 119.07s-2.46 1.05-4.66.5l-.4 1.58c2.7.67 5.7-.59 5.7-.59l-.65-1.5z"/><path d="M25.85 124.36c-.09 1.02-.69 2.37-1.98 2.66-.96.21-2.2-.15-3.83-1.37-3.34-2.52-6.9-5.4-9.45-7.02a9.57 9.57 0 00-2.9-1.4l-.3 1.6c.55.1 1.35.54 2.32 1.16 2.52 1.62 6.05 4.47 9.35 6.95 2.17 1.64 3.89 1.95 5.16 1.67 2.05-.46 3.11-2.5 3.25-4.12l-1.62-.13zM28.98 110.13s-1.12-2.36-2.47-4.24a8.74 8.74 0 00-1.95-2.07c-.93-.63-2.1-2.12-3.52-3.6-1.56-1.6-3.4-3.19-5.46-3.84-2.53-.8-3.83-1.28-5.27-.94-.97.23-2.02.83-3.54 2.03-2 1.58-2.36 3.79-2.03 5.96.3 1.97 1.17 3.9 1.72 5.16l1.5-.64c-.51-1.16-1.34-2.94-1.61-4.76-.24-1.61-.05-3.27 1.43-4.44 1.26-1 2.1-1.54 2.9-1.72a3.5 3.5 0 011.67.06c.74.17 1.6.48 2.74.84 1.82.58 3.4 2 4.78 3.43 1.5 1.56 2.78 3.13 3.77 3.8.7.48 1.43 1.46 2.07 2.45 1.02 1.58 1.8 3.22 1.8 3.22l1.47-.7z"/><path d="M16.01 108.7s-1.22-1-2.8-1.78a8.02 8.02 0 00-3.6-.94c-.97.02-2.07.7-3.12 1.86-2.08 2.3-4.1 6.48-4.9 9-.6 1.9-.03 4.35.78 6.57.72 1.96 1.62 3.7 1.72 4.54.56 4.78 4.58 16.37 9.01 24.24 4.22 7.47 1.75 16.12 1.75 16.12l1.57.44s2.64-9.3-1.9-17.36c-4.32-7.67-8.27-18.97-8.82-23.63-.1-.9-1.03-2.8-1.8-4.91-.68-1.86-1.27-3.92-.76-5.51a29.06 29.06 0 013.76-7.41 9.7 9.7 0 011.58-1.75c.4-.33.8-.57 1.17-.58.94-.03 1.96.35 2.84.78 1.4.7 2.49 1.58 2.49 1.58l1.03-1.25zM35.54 58.22c-.98 6.87-.46 8.92-.4 12.6.06 3.8-3.04 20.27-4.02 22.68-1.28 3.18-5.1 1.89-5.99-.15-.67-1.53-2.1-10.48-7.26-21.27-5.15-10.76-9.15-16.14-10.15-17.82-.37-.63-1.07-.94-1.79-1.04-.74-.1-1.5.02-2 .37-1.06.75-2.33 2.17-1.52 4.44.99 2.75 7.25 18.9 8.13 22.45.9 3.63 5.56 16.4 5.56 16.4l-1.53.55s-4.7-12.9-5.6-16.56c-.89-3.53-7.11-19.56-8.1-22.3-1.15-3.21.61-5.24 2.11-6.3.79-.56 2-.82 3.17-.66a4 4 0 012.98 1.82c1 1.69 5.02 7.1 10.2 17.95 5.18 10.82 6.62 19.79 7.3 21.32a2 2 0 001.13.97c.4.15.86.2 1.25-.02.25-.14.45-.39.6-.76.95-2.34 3.96-18.35 3.9-22.04-.06-3.78-.59-5.87.43-12.96l.04-.17c2.02-5.32 9.05-2.88 9.7 1.75.8 5.83 1.83 18.17.6 27.06-1.22 8.76.06 12.97.06 18.24 0 5.28 1.47 17.41 1.47 17.41l-1.62.2s-1.48-12.27-1.48-17.6c0-5.34-1.28-9.6-.05-18.47 1.22-8.74.2-20.89-.6-26.62-.43-3.12-5.1-4.98-6.52-1.47zM28.88 124.79c-.02.05-.11.28-.16.67-.13 1-.19 3.6 1.44 6.92l1.46-.71c-1.58-3.22-1.37-5.66-1.25-6.22v-.03l-.04.11-1.45-.74z"/><path d="M29.1 125.9c-1.5-.31-7.07-1.63-11.1-5.16-2.5-2.2-3.34-3.14-4.45-5.1a5.5 5.5 0 01.49-5.96c.83-1.12 1.97-1.74 2.91-1.66 2.54.2 13.95 1.42 18.37 3.93 2.27 1.3 3.7 2.89 5.15 4.6 1.34 1.61 2.7 3.33 4.87 4.96 2.94 2.22 3.52 4.3 3.32 7.56-.12 1.98-.55 4.44-.86 7.73-.77 8.24-2.6 9.52-3.73 16.86-1.1 7.23-.9 13.52-.9 13.52l-1.62.05s-.22-6.43.91-13.82c1.12-7.3 2.96-8.57 3.72-16.76.3-3.27.74-5.71.86-7.68.16-2.66-.29-4.36-2.68-6.16-2.29-1.72-3.72-3.52-5.14-5.2-1.32-1.58-2.62-3.06-4.7-4.24-4.26-2.42-15.26-3.53-17.7-3.73-.5-.04-1.03.41-1.47 1a3.87 3.87 0 00-.38 4.2c1.02 1.8 1.8 2.66 4.1 4.68 4.37 3.82 10.67 4.84 10.67 4.84.25.04.46.19.58.4a6.92 6.92 0 002.65 2.59l-.72 1.45s-1.93-.96-3.16-2.9z"/><path d="M20.15 121.81s-.33 2.53 2.53 4.31a18.82 18.82 0 002.7 1.56c.15.04.2.03.21.03h.04l-.02-.81.41-.7s-.13 0-2.48-1.46c-1.87-1.16-1.77-2.76-1.77-2.76l-1.62-.17z"/></g><g fill="#5A24AA" fill-rule="nonzero"><path d="M262.33 115.27c.07-.48.2-1 .26-1.47.07-.97.12-1.88.12-2.8.05-.92.08-1.77.14-2.68.03-.86.07-1.7-.08-2.55-.03-.13-.02-.19-.04-.32-.03-.13-.12-.27-.15-.4l-.2-.61c-.12-.28-.22-.61-.32-.95-.05-.26-.15-.6-.27-.87-.07-.2-.12-.46-.2-.67-.16-.53-.33-1.07-.51-1.55l-.5-1.67-.2-.6c-.05-.08-.14-.22-.12-.28l-.13-.22c-.2-.42-.46-.86-.64-1.34-.1-.09-.22-.12-.26-.19a.76.76 0 00-.33-.15s.01-.05-.04-.07c-.16-.35-.48-.55-.76-.87-.3-.27-.6-.53-1.01-.64-.36-.27-.83-.4-1.2-.62-.23-.06-.45-.17-.66-.3-.18-.04-.44.02-.58-.14l-.18-.05a3.5 3.5 0 00-1.06-.4c-.87-.22-1.77-.33-2.7-.57a5.76 5.76 0 00-2.53.02c-.26.05-.61.2-.9.13-.17-.04-.39-.16-.65-.1-.13.02-.33.1-.52.1-.34.1-.69.26-1.04.41-.34.16-.78.42-1.04.72-.27.3-.5.48-.87.7-.4.14-.7.37-1.07.58-.38.27-.9.63-1.26 1.03l-.25.24-.08.1c.08-.1-.17.15-.24.19-.3.23-.57.53-.83.83-.32.29-.6.64-.82 1.02-.22.37-.49.67-.75.97-.22.38-.44.75-.6 1.14-.17.39-.4.82-.62 1.2-.17.38-.34.83-.5 1.22-.21.32-.37.7-.52 1.04-.42.88-.93 1.67-1.33 2.49-.4.82-.68 1.67-.9 2.53-.15.33-.2.75-.29 1.1-.23.19-.34.59-.41.88l-.25 1.66c0 .25.07.45.07.7l-.03.79v1.48c-.05 1.1-.13 2.12-.17 3.22-.03.6 0 1.23.14 1.82-.07.3-.09.6-.1.9.02.38.09.82.12 1.2 0 .44.1.77.25 1.18.06.44.2.85.27 1.3.09.4.24.74.38 1.15.15.4.23.8.3 1.24.04.08.03.13.07.2.03.14.11.28.2.43.41.78.84 1.51 1.25 2.3.15.16.27.37.4.6.05.07.1.08.1.08.16.1.3.26.46.37.22.11.36.27.52.38l.6.52c.06.02.26.2.2.18.12.03.18.04.22.12.22.12.42.3.64.4.11.04.21.13.33.16 0 0 .1.08.16.1l.34.09.05.07c.04.08.14.16.26.2.26.18.6.27.93.42.34.15.7.18 1.09.35l2.14.55c.39.16.72.31 1.17.24.26-.05.52-.1.68-.25.34-.1.67-.2 1.02-.35.4-.08.77-.1 1.14-.13a8.27 8.27 0 002.7-.9c.32.2.9-.08 1.23-.18.14-.09.24-.24.33-.34.1-.16.27-.3.35-.4.25-.25.59-.35.84-.6.3-.22.55-.46.8-.7.25-.25.47-.62.67-.94.1-.1.12-.22.2-.32.32-.22.68-.44.88-.75.08-.05.1-.1.17-.15.14-.08.24-.24.39-.33a9.45 9.45 0 001.57-2.24c.51-.79 1.03-1.58 1.37-2.41.4-.82.84-1.57 1.22-2.34.17-.38.21-.8.43-1.18.18-.44.36-.9.48-1.35.24-.93.54-1.83.78-2.76.12-.46.16-.88.28-1.34zm-8.84 1.95c-.28.85-.66 1.62-.95 2.47-.16.39-.32.78-.47 1.1-.12.22-.16.4-.2.57-.05.17-.21.31-.26.49-.07.29-.28.6-.48.92-.21.32-.42.63-.58 1.02-.2.32-.41.63-.6.9-.26.3-.53.6-.85.88l-.89.82c-.16.14-.38.27-.5.48-.33.1-.6.21-.9.38-.42.2-.93.5-1.37.51-.24 0-.43.01-.6-.03-.23-.06-.38.02-.57.03a.46.46 0 00-.32.05c-.6-.29-.95-.87-1.43-1.36-.25-.25-.57-.46-.8-.76-.14-.16-.2-.37-.28-.57l-.34-.58a5.23 5.23 0 01-.68-2.4c0-.43.04-.85.03-1.28l.01-1.48c.05-.91.1-1.82.08-2.69-.02-.87.14-1.69.21-2.47.04-.36.2-.75.29-1.1l.36-1.38c.39-1.5.94-2.9 1.55-4.28.14-.33.23-.68.38-1.01.13-.28.22-.62.37-.95l.43-.94c.09-.35.27-.55.34-.83.2-.26.25-.5.38-.77.21-.31.42-.63.58-1.02.19-.26.44-.5.69-.74.27-.36.48-.68.79-.9.32-.3.67-.45 1.02-.6.27-.12.56-.29.84-.4.26-.06.5-.06.75-.05.27-.06.54.07.79.08l.39-.09.06.02c.17.04.28.07.47.06.2-.01.42.05.58.15.14.16.3.27.48.31.11.03.27.13.37.22.14.16.36.28.5.44.38.22.64.41.85.78.22.36.4.84.6 1.26.16.35.37.71.45 1.1.16.35.24.74.25 1.18.03.37.04.8.05 1.24-.04.18.04.32 0 .5 0 .24-.07.47-.13.7-.12.95-.06 1.9-.1 2.8l.03.08c-.22.62-.28 1.34-.39 2-.1.89-.33 1.75-.56 2.62-.22.86-.4 1.75-.72 2.52z"/></g><g fill="#FF0BB2" fill-rule="nonzero"><path d="M190.03 109.4c.13-.17.2-.35.27-.58.06-.12.19-.23.26-.35l.06-.05c.06 0 .12 0 .18-.05.25-.23.5-.45.64-.75.2-.28.33-.63.4-.93.29-.7.56-1.34.77-1.99.14-.35.16-.7.24-1.06.08-.35.1-.77.12-1.13.04-.71-.04-1.43-.12-2.21.02-.3-.02-.66-.07-.96l.01-.18c.1-.53-.05-1.2-.14-1.68-.1-.3-.22-.5-.32-.74-.11-.24-.1-.42-.27-.6-.1-.25-.15-.5-.26-.68l-.33-.55c-.04-.36-.2-.67-.43-.98-.28-.38-.55-.8-.96-1.01l-.06-.06c-.11-.13-.22-.31-.4-.44-.22-.25-.45-.44-.67-.7-.17-.3-.45-.5-.8-.64v-.12a2.65 2.65 0 01-.63-.5 2.98 2.98 0 00-1.1-.66c.06 0 .12.06 0-.06-.11-.07-.17-.13-.29-.2-.17-.13-.34-.2-.52-.27-.35-.25-.63-.5-.98-.65-.41-.2-.82-.28-1.24-.42-.81-.34-1.75-.81-2.64-.86-.24-.01-.42.04-.66.02-.18 0-.3-.07-.47-.08a2.89 2.89 0 00-1.44.04c-.37.1-.73.2-1.1.24l-.6.15c-.18.05-.42.1-.67.14-.36.04-.78.08-1.14.18-.43.1-.8.31-1.16.47-.55.21-1 .55-1.49.88-.25.16-.55.32-.8.5-.25.16-.5.38-.7.61-1 .78-1.53 1.89-2.3 2.86-.39.52-.72 1.1-.99 1.62-.27.58-.48 1.1-.74 1.63-.13.23-.21.53-.29.82-.07.18-.2.41-.27.65-.08.29-.15.58-.1.89-.07.05-.08.17-.14.29-.08.23-.15.4-.16.65l-.01.23c-.13.12-.13.23-.14.41 0 .06.05.07.05.13.04.36.51.5.88.4.05.06.17.07.3.08l.53.03c.36.02.66-.03 1.02-.07.42-.04.78-.02 1.2-.05.78-.02 1.55.14 2.32.12a5.8 5.8 0 011.02 0c.12.06.36.02.48.02.12.07.17.07.3.08.17 0 .3-.1.36-.22h.06c.25-.16.33-.46.22-.64 0-.06 0-.12.06-.12l.23-.88c.1-.6.36-1.12.57-1.64a6.99 6.99 0 012-2.7c.24-.05.48-.1.73-.2.18-.05.3-.16.49-.15.24-.05.54-.03.77-.02.3.02.66-.03.96 0 .48.02.96.04 1.3.42.16.19.4.26.51.44.17.2.34.32.51.51.1.24.21.49.32.67.1.3.27.62.38.86.1.19.22.37.27.5.05.12.17.18.22.3.2.73.34 1.4.43 2.12.05.12.1.3.1.36l-.02.36c.04.36.08.72.06 1.08-.04.71-.08 1.37-.23 2.07 0 .06-.07.12-.07.18-.08.23-.2.47-.28.7l-1 1.74c-.19.29-.38.58-.64.86-.06.06-.12.05-.18.1-.2.18-.32.35-.45.52-.2.3-.45.52-.75.68-.38.28-.75.56-1.01.9-.63.68-1.15 1.37-1.73 2.12-.52.74-1.04 1.5-1.68 2.23-.63.69-1.21 1.43-1.84 2.11-.64.63-1.27 1.19-1.9 1.81a37.17 37.17 0 00-3.57 4.05c-.38.52-.83.97-1.21 1.49-.45.51-.84 1.03-1.28 1.54-.83.91-1.54 1.89-2.3 2.8-.07.06-.13.11-.14.17v.06l-.06.06c-.13.11-.2.4-.1.53.17.31.47.33.72.16.41.08.83.1 1.18.18.48.03.95.12 1.37.2l1.43.07c.42.03.83.11 1.25.13.47.09.95.11 1.37.08.48-.04.96.05 1.38.01.48-.03.95.05 1.37.07l1.38-.1c.85-.13 1.68-.09 2.58-.1.42.02.78.04 1.19.18.47.09.94.17 1.43.14.42-.04.78-.08 1.2-.05.48-.04.95-.01 1.43.01l1.37.08c.42.02.84-.02 1.25.07.48.08.9.1 1.37.13.18 0 .36-.04.54-.03.3-.04.6.03.9.05h.18c.05.07.17.08.29.14.23.07.53.1.77.1.24.02.42.09.65.1.18 0 .3-.04.48-.03.3.19.73-.09.74-.38l.01-.12c0-.12.02-.3-.1-.48l.01-.12c.08-.3.03-.6.05-.84l.24-4.52c.01-.24-.1-.49-.2-.73a1.18 1.18 0 00-.63-.4c-.24-.13-.48-.14-.71-.21-.3-.08-.6-.1-.9-.1-.23-.02-.47.03-.72.07-.3-.01-.59-.09-.89-.1-.3.04-.54.14-.84.19-.25.04-.49.03-.73.08-.54.09-1.08.12-1.62.15-.6.09-1.2 0-1.8-.04l-1.9-.1c-.6.03-1.2.05-1.73-.1a11.8 11.8 0 01-.89-.22c.25-.23.5-.4.75-.62.5-.45 1.01-.96 1.46-1.41.5-.45.83-1.03 1.28-1.55.44-.45.94-.9 1.39-1.41.31-.29.56-.51.82-.8.12.01.18.01.24-.1.07-.12.2-.17.32-.22.12-.12.25-.23.38-.4l.76-.86c.2-.28.39-.57.58-.8l.2-.17c.25-.28.5-.57.7-.86.25-.34.56-.56.88-.85.19-.16.2-.4.15-.58.13-.18.32-.4.51-.57.57-.63 1.03-1.38 1.55-2.07z"/></g><g fill="#5A24AA" fill-rule="nonzero"><path d="M116.8 95.08c-.17-.46-.28-.98-.44-1.43-.37-.9-.73-1.74-1.16-2.56l-1.07-2.46c-.35-.77-.7-1.55-1.21-2.24-.09-.1-.1-.16-.18-.26-.09-.1-.23-.2-.31-.3l-.46-.45c-.23-.2-.47-.45-.7-.7-.17-.21-.4-.47-.63-.66-.16-.15-.32-.36-.48-.51-.39-.4-.78-.81-1.16-1.16-.4-.4-.8-.86-1.19-1.27l-.46-.45c-.07-.04-.22-.13-.23-.2l-.21-.13c-.37-.29-.8-.56-1.17-.9-.13-.04-.25-.02-.32-.06-.13-.03-.25-.01-.36.02 0 0-.01-.06-.07-.05-.3-.24-.67-.28-1.08-.44-.38-.1-.77-.2-1.18-.11-.45-.1-.91 0-1.35-.02-.23.05-.48.04-.72.03-.18.04-.39.2-.59.13l-.17.03a3.5 3.5 0 00-1.14.13c-.87.18-1.73.49-2.66.69-.82.17-1.63.65-2.26 1.15-.2.17-.45.46-.74.53-.18.03-.42.03-.63.2-.1.08-.26.23-.42.33-.25.23-.5.53-.74.82-.24.3-.52.72-.62 1.11-.1.39-.22.66-.45 1.01-.3.31-.47.65-.7 1-.22.42-.53.97-.66 1.5l-.12.32-.03.13c.03-.13-.08.2-.13.27-.17.34-.27.73-.37 1.12-.16.4-.24.84-.27 1.27-.03.44-.13.83-.23 1.21-.03.44-.06.87-.03 1.29.02.42 0 .91-.02 1.35l.1 1.32c-.04.37-.02.8 0 1.15.03.97-.08 1.91-.07 2.82.01.92.14 1.8.33 2.68.02.36.16.76.24 1.1-.13.28-.04.68.02.98l.53 1.6c.1.21.26.36.37.58l.33.72.65 1.33c.46 1 .85 1.95 1.3 2.95.25.56.55 1.1.95 1.57.07.29.19.57.3.85.2.32.46.7.65 1.02.2.38.45.63.75.93.27.37.58.67.84 1.05.25.3.54.55.85.85.31.3.56.61.82.98.08.05.09.1.16.15.08.1.22.2.37.29.72.52 1.43.97 2.15 1.49.2.08.41.22.62.35.07.05.13.04.13.04.19.02.39.1.58.12.24 0 .44.09.63.1l.78.2c.06 0 .32.06.26.07.11-.02.17-.03.24.01.25.01.5.08.75.08.12-.02.25.01.37-.01 0 0 .13.03.18.02l.36-.08.07.05c.07.05.2.08.31.05.32.06.67-.02 1.03-.03.37-.02.7-.15 1.13-.18l2.16-.47c.42-.02.78-.04 1.15-.3.21-.17.42-.34.5-.54.26-.23.51-.47.75-.77.32-.25.64-.44.97-.63.63-.44 1.19-.99 1.67-1.58.15-.15.25-.3.34-.44.37.04.75-.46 1-.7.1-.14.12-.33.16-.46.02-.19.1-.39.13-.52.11-.32.37-.56.48-.9.17-.33.28-.66.4-1 .1-.32.14-.75.18-1.13.03-.13 0-.24.04-.37.17-.34.4-.7.45-1.07.04-.07.03-.13.08-.2.09-.14.1-.33.2-.47.3-.86.35-1.79.4-2.71.1-.94.2-1.88.14-2.78-.01-.9.04-1.77.05-2.63-.03-.42-.18-.81-.15-1.25-.04-.48-.08-.96-.18-1.42-.2-.93-.34-1.88-.54-2.81-.1-.47-.25-.87-.35-1.33zm-7.03 5.7c.12.9.12 1.75.25 2.64l.08 1.2c-.01.25.03.42.06.6.04.17-.04.37 0 .55.06.29.02.66-.02 1.04-.04.37-.09.75-.06 1.17-.04.37-.08.75-.14 1.06-.1.4-.2.78-.36 1.18-.1.33-.27.73-.43 1.13-.08.2-.21.41-.22.66-.26.23-.45.46-.64.74-.28.37-.6.86-.99 1.07-.22.1-.38.2-.56.24-.23.05-.33.2-.49.29a.46.46 0 00-.27.18c-.66.02-1.23-.35-1.89-.57-.33-.12-.7-.16-1.05-.33-.2-.08-.35-.23-.5-.38l-.57-.36a5.23 5.23 0 01-1.68-1.84c-.2-.38-.35-.78-.55-1.16l-.65-1.33c-.36-.84-.73-1.67-1.14-2.44-.4-.76-.64-1.57-.92-2.3-.13-.34-.16-.76-.23-1.11l-.3-1.4a28.4 28.4 0 01-.54-4.52c-.02-.36-.1-.71-.1-1.07-.01-.3-.09-.66-.1-1.02-.02-.36-.04-.72-.04-1.03-.08-.35 0-.6-.07-.9.05-.31 0-.55 0-.85.04-.38.08-.75.05-1.17.06-.32.17-.65.28-.98.1-.44.13-.82.3-1.16.16-.4.4-.7.65-1 .2-.22.38-.5.57-.72.21-.17.43-.28.66-.39.2-.16.5-.17.73-.28l.31-.25h.06c.18-.05.3-.07.46-.17.16-.1.4-.14.58-.12.2.08.39.1.56.06.12-.02.3 0 .44.03.2.08.44.09.64.17.44.03.76.08 1.11.3.35.24.73.58 1.1.87.3.24.65.47.9.78.3.25.55.56.75.94.2.33.4.7.6 1.1.04.17.18.26.22.43.1.22.16.46.2.7.32.9.8 1.71 1.17 2.55l.07.04c.07.66.34 1.33.54 1.96.3.85.49 1.73.68 2.6.18.88.43 1.74.49 2.58z"/></g></g></svg>