<svg viewBox="0 0 2476 1673" xmlns="http://www.w3.org/2000/svg" xml:space="preserve" style="fill-rule:evenodd;clip-rule:evenodd;stroke-linejoin:round;stroke-miterlimit:2">
  <rect style="fill:url(#a)" x="0" y="0" width="2476" height="1673"/>
  <path d="M2359 2042.16V713.76a65.33 65.33 0 0 0-65.3-65.3H189.3a65.33 65.33 0 0 0-65.3 65.3v1328.4a65.33 65.33 0 0 0 65.3 65.3h2104.82a65.33 65.33 0 0 0 64.88-65.3Zm-64.96 52.8H189.3a52.83 52.83 0 0 1-52.8-52.8v-42.45h2210v42.45a52.83 52.83 0 0 1-52.46 52.8Zm-1305.08-53.34v13.7a21.72 21.72 0 0 0 21.71 21.71h10.66a21.72 21.72 0 0 0 21.71-21.71v-13.7a4.17 4.17 0 0 0-8.34 0v13.7c0 7.38-5.99 13.38-13.37 13.38h-10.66c-7.38 0-13.37-6-13.37-13.38v-13.7a4.17 4.17 0 0 0-8.34 0Zm267.04 11.9v7.19c0 7.59-6.16 13.75-13.75 13.75h-47.57a13.76 13.76 0 0 1-13.75-13.75v-27.5c0-7.59 6.16-13.75 13.75-13.75h47.57c7.59 0 13.75 6.16 13.75 13.75v7.19l15.5-16.94v47l-15.5-16.94Zm207.9-18.94-15.01-15.01-11.78 11.78 15 15.01-15 15.01 11.78 11.78 15.01-15 15 15 11.79-11.78-15.01-15.01 15.01-15.01-11.79-11.78-15 15.01Zm-434.9-6.62a8.5 8.5 0 0 0-8.5-8.5h-9a8.5 8.5 0 0 0-8.5 8.5v27a8.5 8.5 0 0 0 8.5 8.5h9a8.5 8.5 0 0 0 8.5-8.5v-27Zm875.41-338.25v297.5h-434.5v-297.5h434.5Zm-447 0h-434.5v297.5h434.5v-297.5Zm-447 0h-434.5v297.5h434.5v-297.5Zm1148.21 236.61c20.89 11.48 54.97 45.07 48.98 60.89h138.9v-297.5h-429.59v297.5h74.08c.38-8.65 12.79-22.84 19.01-30.75 9.83-12.5 25.04-34 44-38 3.94-.83 8.65-1.54 13.88-2.09l1.12 2.09c11.05 20.24 19.06 23.39 65.16 21 8.18-.42 16.48-5.29 24.46-13.14ZM506.09 1689.71a4.15 4.15 0 0 1-7.03 0H137.49l-.08 1.4-.91-.04v296.14h426.9v-297.5H506.1ZM2127.5 1917.3a4.16 4.16 0 0 0 7.25 1.2c-2.36-.44-4.78-.84-7.25-1.2Zm-54.77-165.11c39.15-6.87 90.76-1.49 118.22 9.52-.09 3.43 16.64 6.91 21.32 13.75 5.64 8.25 11.8 27.41 16.76 39.47-5.73 3.19-13.61 5.09-19.78 4.72l-20.74 61.4c-9.16-1.61-40.7-8.11-43.49-21.46l-.03-.13c-3.06-15.74-6.75-10.58 0-43 2-9.59-.36-15.96-4.25-19.24l-.04-.04-.09-.07-.23-.19c-9.35-7.28-26.7 2.46-15.39 27.54 15.75 34.91-4.89 42.82-21.5 56-16.2 12.84-52.59-3.15-54.43-3.97a533.22 533.22 0 0 1-14.18-36.29l.26.75-.26-.75c9.12-7.95 17.78-28.22 22.11-46.74 6.14-26.22-.36-36.2 12-39.06 2.34-.54 3.48-1.32 3.74-2.21Zm115.78 128.86s.18-.38 0 0Zm-140.12-6.13.67 1.57-.77-1.8-.3-.69.4.92Zm-1.26-2.96.29.68-.51-1.21.22.53Zm-1.15-2.76.28.67-.45-1.06.17.39Zm-1.16-2.8.28.67-.39-.94.11.27Zm-1.15-2.82.27.65-.33-.81.06.16Zm-1.14-2.84.26.63-.29-.71.03.08Zm50.74-11.3h.21s7.24-12.5-.05-12.5c-2.67 0-3.78 2.29-4.85 3.33-.79.77-1.56 1.33-1.56 2.92 0 3.45 2.8 6.25 6.25 6.25Zm70-.46h.21s8.03-12.5-.01-12.5c-1.66 0-3.81 2.29-4.89 3.33-.79.77-1.56 1.33-1.56 2.92 0 3.45 2.8 6.25 6.25 6.25ZM939.26 1677.21h71.15v-297.5h-434.5v297.5h117.37l-.02 3.83 196.95 1.54c.15.89.28 1.46.37 1.47 3.44.57 10.27.13 13.57-1.21.04-.01.08-.07.11-.15l-14.05-.11c-.22-1.33-.47-3.38-.7-5.37h15.03c.03 3-.06 4.94-.28 5.48l35.32.28c-.1-1.92-.2-3.84-.32-5.76Zm1407.24-270.99v-26.51h-429.59v18.11c21.61-7.18 47.97-6.5 63.44-1.89 21.73 6.49 36.21 31.87 44.07 53.65 7.3 20.17 10.25 49.57 9.88 76.58-12.44 11.78-33.24 13.08-48.44 17.17-13.98 3.75-28.55 9.86-42.8 7.34a144.28 144.28 0 0 1-32.4-10.19v101.05c1.99.83 4.08 1.58 6.25 2.25v15.2c19.73-.37 63.96 5.93 79.09 9.48 4.08.95 11.14 5.06 15.37 8.75h166.2c1.74-6.39 9.04-15.67 14.43-18.25 12.12-5.8 40.42-9.04 61-10.32 6.47-.41 14.69-.94 23.72-1.44-20.58-3.88-43.41-15.05-55.6-27.53-16.44-16.84-19.84-47.27-22.91-72.39-1.56-12.82-3.02-28.28-3.02-43.35 12.35 1.77 30.2-.78 36.5-6.03 8.81-7.35 2.35-42.33 5.28-42.33 2.94 0 1.77 35.86 12.34 42.33 10.57 6.47 39.35-5 51.1-3.53 7.59.95 13.51 11.46 19.38 12.35 5.72.86 12.12-11.48 15.86-7.06 4.84 5.73 11.01 26.84 17.01 41.37V1410.6a71.3 71.3 0 0 0-6.16-4.38ZM563.4 1535.13v142.08h-58.2c-5.3-30.66-15.53-60.42-20.78-91.13-2.58-15.05-4.18-30.21-5.69-45.37 10.12-1.48 20.25-2.93 30.44-3.82 6.29-.55 12.57-.84 18.86-1.01l.26 1.53 9.78-1.74c8.45-.12 16.9-.19 25.34-.54Zm-160.16 56.12h22.34c0 28.74.27 57.29 1.47 85.96h6.55c-.74-39.09-1.45-78.12-1.45-117.23h12.5c0 39.11.7 78.14 1.45 117.23h20.73a2786.83 2786.83 0 0 1-21.04-48.63l23.03-9.74a2569.5 2569.5 0 0 0 25.1 57.69l-1.5.68h4.33c-5.34-30.17-15.37-59.48-20.55-89.72-2.59-15.11-4.19-30.34-5.71-45.58-11.68 1.69-23.38 3.23-35.19 3.8-17.6.86-35.29-.55-52.9-.34-40.18.48-80.36 1.78-120.58 2.24-29.4.33-58.75 1.74-88.12 2.6-1.92 12.84-3.33 25.75-5.5 38.56-5.02 29.56-10.53 58.51-12.19 88.44h13.35c4.46-36.67 7.48-73.63 9.72-110.48l12.2.74c-.06-1.25-.1-2.49-.14-3.74l12.5-.36c1.13 39.06 11.38 76.09 19.88 113.84h15.03c-13.3-37.1-27.52-72.01-34.74-111.71l12.3-2.24c7.37 40.51 22.21 75.92 35.71 113.95h7.1c-17.5-38.23-32.18-76.83-38.75-118.88l12.36-1.93c6.41 41.13 20.9 78.85 38.04 116.24-.1-17.77-.28-35.53-.45-53.29.29 1.34.7 2.63 1.18 3.77a9 9 0 0 0 1.6 2.61c.33.37 1.3.47 1.15.94-.67 2.06-6.23 5.33-2.44 7.22 1.4.7 2.68.73 3.83.32-.17 12.79 2.04 26.86 7.63 37.79l.02 5.21h109.46c10.45-23.85 13.35-46.03 4.28-66.37.4-.08.77-.19 1.12-.33 5.16-2.07 6.34-6.57 4.85-11.67-.2-.73-2.08-3.74-1.93-4.18.42-1.25 1.48-2.31 2.37-3.41Zm-255.58 85.96c1.65-30.4 7.22-59.81 12.32-89.83 2.08-12.27 3.47-24.64 5.27-36.94-3.8.1-7.59.18-11.38.25l-.17.98-5.05-.89c-3.67.05-7.34.09-11.01.11l-.01.13-1.13-.12v43.62c1.22-8.53 2.38-17.07 3.4-25.62l12.41 1.48c-4.25 35.63-11.02 71.04-13.96 106.83h9.31Zm63.04 0c-8.06-35.55-17.35-70.53-19.3-107.14-2.2 35.74-5.16 71.58-9.45 107.14h28.75Zm1221.7-87.73.01.03.14 2.92v.05l.12 3v.03l.01.06.02.68.03.79v.06l.05 1.52v.03l.01.08.02.7.02.73v.08l.01.04.04 1.51V1601.94l.02.71.02.68V1603.5l.04 1.49v.16l.02.72.01.62V1606.71l.03 1.46v.05l.01.13.01.72.01.57v.25l.02 1.41v.19l.01.71.01.52v.28l.01 1.36.01.05v1.31l.01.17v5.72l-.01 1.14v.12l-.01.67v.59l-.02 1.05V1625.27l-.01.64-.01.28v.24l-.02.94v.06l-.02.6-.01.23v.12l-.01.2v.17l-.01.1-.01.41v.04l-.03.52v.14l-.01.2-.01.17v.09l-.01.05-.02.46-.01.13v.05l-.01.07v.02l-.01.05v.06l-.01.01v.02l-.01.04v.05l-.01.02v.02l-.01.05v.04l-.01.02v.03l-.01.04-.01.03v.02l-.01.04-.01.05v.02l-.01.01c-.57 2.56-2.88 4.88-5.25 6.1-5.68 2.91-18.84 10.19-28.7 10.48-9.87.29-25.12-5.82-30.49-8.74-2.28-1.23-1.92-4.57-1.81-7.37l-.68-.15c.28-1.06.49-2.24.63-3.45l-.06-3.22c-.8 3.35-1.44 5.94-1.63 7.2-.92 5.87-14.86-.38-17.48 5.08-3.29 6.87 1.89 27.88-2.25 39.46h-218.16c6.82-26.94 15.63-50.3 34.06-69.95 18.45-19.68 61.68-21.81 79.55-21.1 20 .8 41.75 4.76 56.81 24.76 7.54 10.01 12.27 22.7 15.45 36.3 2.39.95 4.46 1.42 6.07 1.19 11.97-1.74 13.83-25.43 16.25-33.21 1.34-4.32-2.04-9.3-1.75-13.45.28-3.99-.02-9.56 3.49-11.47 2.41-1.31 8.24-3.12 12.72-2.56 1.67-2.31 4.32-3.78 7.45-4.5 3.04-.71 6.57-.69 9.37-.55.05-1.63.1-3.03.17-4.15.16-2.6.92-6.74 3.59-6.99 9.27-.87 41.86 1.17 52.02 1.75 3.04.17 8.42-1.18 8.97 1.75.54 2.9.97 8.19 1.29 14.45Zm472.01-209.77v297.5h-434.5v-297.5h434.5Zm442.09 243.08v23.79c-10.11-1.04-23.93-1.12-38.3-.74 13.27-4.2 27.25-12.79 38.3-23.05Zm-2076.52-18.65.03 3.38.05 4.97c.6-2.26 1.9-4.13 3.26-6.03.54-.75 1.82-1.36 1.6-2.26-.13-.58-1.15.4-1.75.36a19 19 0 0 1-3.19-.42Zm1975-12.64c5.14.6 15.43 1.78 22.11 1.78 6.09 0 14.14-1.19 18.17-1.8a3.68 3.68 0 0 0-1.09-7.27c-3.79.57-11.36 1.73-17.08 1.73-6.42 0-16.31-1.17-21.26-1.74a3.68 3.68 0 1 0-.85 7.3Zm-517.1-44.55 6.57 13.97 6.94-13.97h16.09l-12.1 22.55 12.69 22.56h-15.98l-7.64-14.33-7.4 14.33h-16.21l12.81-22.56-11.98-22.55h16.21Zm213.9 14.75c6.14-2.22 19.51 5.52 29.52 5.52 11.01 0 29.27-7.74 36.6-5.52 6.45 1.97 10.1 14.9 7.34 18.88-2.75 3.99-15.8 4.06-23.87 5.02-9.59 1.15-24.13 2.68-33.62 1.84-8.07-.71-20.65-2.56-23.31-6.86-2.66-4.28 1.2-16.65 7.34-18.88Zm-1671.93 24.8c2.24-1.42 4.67-2.58 6.6-3.65 1.35-.75 2.7-1.5 4-2.35.46-.3 1.52-.79 1.86-1.15v-.34l-.06-.02c-1.5-.57-2.84-.23-4.13-1.34-3.37-2.89-1.09-10.7.62-13.69a7.45 7.45 0 0 1 3.5-3.27v-3.82h-12.5c0 9.87.05 19.75.1 29.63Zm1000.89-44.73c-.12-.29-25.03 38.64-49.35 36.56-17.45-1.49-36.28-14.71-48.19-32.36-.17.39-.34.78-.53 1.17-5.02-.12-12.07 1.3-16.55-1.33-4.87-2.86-7.29-8.09-8.89-13.09-3.57-11.09-7.82-27.82-1.24-38.57 2.52-4.11 8.43-5.99 13.44-7.03 2.91-17.72 19.97-38.43 37.2-46.05 4.06-1.8 16.74-2.55 28.71-2.46h.2c1.99.01 3.95.05 5.85.11l1.42.05 2.06.09c4.15.2 7.82.51 10.5.93l.6.09c.65.11 1.23.23 1.74.36l.61.16c3.97 1.19 6.06 2.14 6.9 2.86 13.65 7.32 21.97 22.57 25.35 36.96 1.51.26 3.19.64 3.33.68 5.33 1.15 13.06 3.27 15.84 8.36 6.1 11.2 1.11 27.97-2.94 39.04-1.83 5-4.48 10.19-9.48 12.87-4.59 2.46-11.57.7-16.58.6Zm681.05 34.77c5.36.62 16.09 1.86 23.05 1.86 6.34 0 14.74-1.25 18.93-1.88a3.83 3.83 0 0 0-1.14-7.57c-3.94.59-11.83 1.8-17.79 1.8-6.7 0-17.01-1.22-22.17-1.82a3.83 3.83 0 0 0-.88 7.61Zm-271.54-8.28v-46.64h-12.5v46.64h12.5Zm24 0v-57.81h-12.5v57.81h12.5Zm-48 0v-34.16h-12.5v34.16h12.5Zm-1347.96-12.59c-2.35-.23-4.62-.12-6.44.56-2.71 1.02-4.13 4.37-3.63 7.12.18 1.01.52 2.01.93 2.96.25.58 1.4 1.73.77 1.73-2.02-.01-4.42-3.07-5.85-4.33-1.83-1.6-4.2-2.9-6.61-3.4V1552h20.83v3.67Zm60.67 3.41h-1.83c.34.74.73 1.45 1.28 2.06.21.24.17-.62.25-.93l.3-1.13Zm-40.7-4.37h-13.13v2.33c1.4.41 2.7.85 3.8 1.27 2.4.9 4.88 2.27 7.5 2.24 1.64-.02 1.17-3.05 1.38-4.13.12-.56.26-1.14.44-1.71Zm23.1 0h-5.11c1.03 1.07 3.66 4.56 5.11 4.16.84-.22-.11-1.73-.08-2.59.02-.52.04-1.05.08-1.57Zm1682.29-12.11-.05.73.07-.93-.02.2ZM136.5 1480.26v-23.79l2.47-.23a1381.32 1381.32 0 0 1 23.94-1.92c8.93-.64 17.87-1.19 26.8-1.68l.54-.03-2.62 9.43c-6.54 23.36-14.41 46.26-19.25 70.09-.68 3.3-1.28 6.62-1.83 9.95h-.07c2.8-25.64 8.46-50.86 11.1-76.53l-8.3-.86c-2.67 26.03-8.45 51.59-11.2 77.59l-2.73.05c4.5-25.61 8.42-49.98 9.03-76.65l-12.5-.29c-.6 26.84-4.7 51.28-9.26 77.13l-4.13.03c2.74-26.37 5.84-52.58 7.7-79.09l-8.3-.59c-.41 5.81-.88 11.6-1.4 17.39Zm1897.2 61.61-.02.28.05-.78-.03.5Zm-1576.76-96.16c-84.28 2.18-178.08 2.42-257.93 6.44-1.1 4.04-2.22 8.09-3.36 12.14-6.49 23.16-14.3 45.87-19.1 69.5a268.4 268.4 0 0 0-1.51 8.05l12.43-.4-6.04-.98c4.75-29.34 12.7-53.53 17.06-83.03l12.36 1.83c-4.3 29.13-12.1 53.11-16.88 81.95l10.74-.38-2.4-.4a723.16 723.16 0 0 0 8.02-66.1l12.46 1a733.75 733.75 0 0 1-7.82 65.14l6.83-.23c1.08-29.51 2.23-47.65 2.23-77.47h22.92c0 29.63-1.12 47.86-2.2 76.81 3.39-.08 6.77-.15 10.16-.21 3.09-27.45-.63-54.35-.63-81.95h18.75c0 27.52 3.47 54.35.76 81.69l5.4-.08c1.82-34.24-2.9-45.23-2.9-80.42h12.5c0 35.18 4.63 46.39 2.92 80.19l6.75-.13c-1.1-26.96-3.69-54.02-3.69-81h10.42c0 26.91 2.59 53.9 3.69 80.78l7.08-.15c-.53-31.25-7.03-46.49-7.03-78.89h12.5c0 32.3 6.47 47.53 7.03 78.61l3.22-.07c-1.76-12.49-7-35.18-7-51.2h6.24c0 16.03 5.34 38.78 7.04 51.07l7.26-.16c-4.23-25.93-7.85-24.94-7.85-54.49h12.5c0 29.18 3.76 27.63 7.96 54.25l7.62-.14c.02-30.68-4.16-31.65-3.95-65l12.5.08c-.18 28.77 2.9 33.47 3.74 53.88 8.34-24.44 15-33.28 22.7-63.59l20.2 5.14c-8.31 32.63-15.35 40.65-24.58 69.35l7.08.17c5.37-16.73 18.8-54.68 20.82-78l12.45 1.07c-1.96 22.64-14.18 58.64-20.23 77.23 1.86.03 3.72.05 5.58.05 9.08-36.52 17.52-39.56 20.57-78.69l12.46.97c-3.03 38.91-11.1 43-20.07 77.46l.18-.01c11.66-.57 23.22-2.09 34.77-3.76a836.83 836.83 0 0 0-3.86-33.56 1488.23 1488.23 0 0 0-8.87-54.36Zm1576.86 94.56-.03.47-.03.46.06-.93Zm.03-.61-.02.38.05-.75-.03.37Zm-281.58-1.05v-51.15h-12.5v52.17l1.64-1.02h10.86Zm281.67-.49-.03.47-.02.47.05-.94Zm-305.67.73v-40.23h-12.5v39.99h12.13l.37.24Zm305.7-1.41-.02.52.04-.81-.02.29Zm.11-2.46-.08 1.93.04-.96.04-.97Zm.03-.54-.02.31.04-.86-.02.55Zm.06-1.66-.02.5-.02.49.04-.99Zm.02-.61-.02.44.03-.87-.01.43ZM476.52 1519c.49 4.48.94 8.95 1.39 13.43l.9-.13-2.29-13.3Zm1557.69 11.56-.01.51-.02.51.03-1.02Zm-1470.8-89.52v24.44l-3.27-1.2a404.28 404.28 0 0 1-11.22 27.67 632.78 632.78 0 0 1-4.27-41.08l-7.6.5v-1.32h-12.5c0 12.57-.26 25.11-.15 37.62a472.59 472.59 0 0 1-1.36-34.4h-8.33c0 25.28 2.49 49.6 5.04 74.58-2.43.11-4.86.25-7.3.42-3.32-22.11-2.72-43.97-2.72-66.46h-12.5c0 21.59-.48 42.62 2.24 63.82-4.95-26.2-7.03-52.88-7.03-79.55h-8.34c0 28.3 2.31 56.61 7.81 84.36l-4.84.67c-4.5-25.94-9.24-52.01-9.24-78.37h-8.33c0 7.8.4 15.57 1.09 23.32-1.65-10.2-3.41-20.39-5.23-30.57 35.07-.97 68.34-2.32 98.05-4.45Zm1470.82 88.85-.01.61.02-.95-.01.34Zm.06-2.56-.05 2.05.03-1.02.02-1.03Zm-1497.23-29.77c.3 9.95.95 19.88 2.3 29.78l1.87-.03c-1.39-9.86-2.83-19.8-4.17-29.75Zm1497.23 29.26v.37l.01-1.03-.01.66Zm-1470.88-47.71v9.25l-1.9-.21a309.71 309.71 0 0 1-6.72 38.93l-.97.02c-1.52-10.83-3.12-21.75-4.58-32.7l6.38 2.93a375.53 375.53 0 0 0 7.79-18.22Zm1667.69 31.97v8.47a3.68 3.68 0 0 0 7.35 0v-8.47a3.68 3.68 0 0 0-7.35 0Zm49.94-.61v6.13a3.67 3.67 0 0 0 7.34 0v-6.13a3.67 3.67 0 1 0-7.34 0Zm-347.65-17.74v8.83a3.83 3.83 0 1 0 7.65 0v-8.83a3.83 3.83 0 0 0-7.65 0Zm52.05-.64v6.38a3.82 3.82 0 1 0 7.65 0v-6.38a3.83 3.83 0 0 0-7.65 0Zm-962.53-112.38v111.2l110.09-11.45-10.76-99.75h-99.33Zm155.19 88.61a124.5 124.5 0 0 1 12.13-15.6l.56-.59.74-.78.94-.95.93-.91.74-.69 1.04-.95.86-.73.95-.78.95-.72.83-.59.82-.54.79-.47.76-.4c5.29-2.61 37.28-2.06 45.09.55 12.44 4.17 18.88 12.61 21.99 22.74-7.45-7.1-17.55-12.35-29.25-15.98-22.05-6.85-45.19-.21-60.87 17.39Zm-967.6-88.61h-29.33v31.75c0 2.3-1.87 4.16-4.17 4.16h-40.5v6.82c17.48-.7 34.7-2.73 52.18-3.19l.22 8.33c-17.56.46-34.85 2.5-52.4 3.2v2.11c18.22-.13 36.4-.93 54.63-1.4l.32 12.5c-18.33.47-36.62 1.27-54.95 1.4v2.71l4.6-.42c17.01-1.49 34.05-2.61 51.1-3.52l.36-.02c5.85-21.52 11.51-43.03 17.95-64.43Zm11.75 0c2.68 20.93 6.8 41.86 10.28 62.66-10.6.39-21.02.83-31.22 1.33 5.8-21.39 11.45-42.74 17.9-63.99h3.04Zm13.74 0c2.23 21.24 8.47 41.23 12.85 62.1-5.18.16-10.32.34-15.43.53l11.47-1.92c-3.37-20.15-7.36-40.43-10.03-60.71H236Zm32.29 0-8.33 1.18c2.95 20.65 9.45 40.19 15.04 60.16l-9.24.25c-4.18-20.78-10.6-40.57-13-61.59h15.53Zm176.65 0c3.38 19.22 7.01 38.46 10.51 57.72l-12.83.31c4.75-3.67 7.18-8.63 5.1-14.51-2.59-7.29-11.52-13.39-25.71-13.39-14.19 0-23.9 6.05-25.7 13.39-1.69 6.86-.07 11.91 3.48 15.39-38.38.7-77.6 1.28-115.69 2.2l3.54-.97c-5.52-20.01-12.2-39.51-15.22-60.14h172.52Zm31.13 0h-5.98c1.72 18.59 6.5 36.37 9.35 54.8l-8.24 1.27c-2.9-18.85-7.8-37.03-9.48-56.07h-8.32c3.38 19.15 7 38.31 10.48 57.49 7.27-.2 14.47-.41 21.58-.65-3.99-18.98-8.29-37.29-9.39-56.84Zm9.16 9.5c1.77 15.94 5.37 31.24 8.68 47.05l.62-.02c11.58-.42 23.15-.9 34.72-1.49l.67-.03c-14.67-15.46-28.55-31.52-44.69-45.51Zm-189.25 45.52c27.33 0 54.3-.09 81.62 1.02l.5-12.49c-27.48-1.12-54.62-1.03-82.12-1.03v12.5Zm206.25-55.02-3.15 3.46c17.17 15.63 32.36 32.98 47.3 50.64l-7.73.45 4.22-4.1c-16.44-16.98-31.64-34.94-49.52-50.45h8.88Zm5.4 0h55.79v43.28a2278.08 2278.08 0 0 1-23.2-33.11l-10.3 7.1c5.94 8.59 11.9 17.17 17.92 25.69-12.75-14.93-25.82-29.53-40.22-42.96Zm-189.4 19.18c-10.5-.2-21.02-.34-31.56-.34v12.5c4.27 0 8.53.03 12.8.07v10.77c27.5 0 55.12-.62 82.63.12l.33-12.5c-6.03-.16-12.06-.26-18.1-.31l.18-6.86c11.44.55 22.9 1.35 34.55 2.49l1.21-12.44c-27.6-2.69-54.06-3.56-82.04-3.56v10.06ZM422 1385.94c4.97 0 9 4.56 9 10.16 0 5.62-4.03 10.17-9 10.17s-9-4.55-9-10.17c0-5.6 4.03-10.16 9-10.16Zm64.82-6.23-2.23 2.69c-.07-.89-.13-1.79-.18-2.69h2.41Zm364.09-8.21c.4 1.96 33.4 1.96 33.4 1.96l-.32-6.25h127.76v-297.5h-75.77c0 2.22-.33 4.59-.33 6.55 0 12.58.23 25.15.37 37.72.25 24.02 3.64 47.89 4.52 71.88 1.22 33.39 1.05 66.89 1.04 100.29 0 14.07.38 28.23-.43 42.27-.27 4.67-.2 13.82-4.88 16.66-2.57 1.55-27.79-.49-32.14-.44-4.26.05-13.1 1.46-21.41 2.25l-.24-3.39-.2-2.96-.17-2.28-.59-8.09-.4-5.51-.3-4.17-.26-3.64-.26-3.55-.17-2.38-.22-3.17-.2-2.94-.18-2.69-.17-2.67-.18-2.79-.09-1.39-.12-1.96-.14-2.39-.12-2.02-.13-2.33-.12-2.09-.11-2.23-.12-2.22-.1-1.97c-1.8-37.83-2.33-64.63-13.86-100.96-3.3-10.44-5.11-22.73-11.04-32.2l-.28-.45a30.16 30.16 0 0 0-3.11-4.02l-.1-.11c-10.21-10.97-27.06-12.36-41.32-12.24-35.18.3-77.93 14.55-92.2 50.08-12.96 32.29-5.98 69.31-2.38 102.68 1.86 17.21 1.2 34.26 1.78 51.55l.07 1.89.1 2.11.08 1.14.11 1.77.08 1.08.09 1.14.07.93h-48.23l-4.61 1.88c-8.81-1.56-7.6-15-10.06-21.99-10.18-28.99 8.01-60.79 7.88-89.99-.2-39.12-2.55-78.46-2.53-117.73 0-11.21-3.33-32.23 1.43-44.91h-82.85v297.5H717.9l.01 1.66 67.69 4.6-.03-.75.02.74s65.57-.73 65.32-1.96Zm-444.87-120.32c2.28-.25 4.6-.4 6.93-.42 12.71-.11 24.83 3.46 36.98 6.74 11.72 3.17 23.48 6.07 35.9 4.75 5.91-.63 11.02-2.73 16.03-5.1 5.3-2.51 10.5-5.32 16.32-7.24 17.3-5.68 30.5-3.81 46.55.15v-106.28c-.32.39-.65.73-.97 1.04.03-.3.05-.57.05-.77l.03-1.86c.3-.21.6-.44.89-.69v-2.86c-2.36 2.53-4.8 3.45-6.31 4.48-1.2.81.15-3.17.19-4.75.08-3.37.12-6.73.04-10.09-.25-9.58-2.45-20.12-7.04-28.26-.85-1.49.95 3.36 1.37 5.06a43.97 43.97 0 0 1 1.19 10.48c.03 10.23-1.94 22.87-5.72 32.05-.63 1.53-.07-3.38-.18-5.06a81.22 81.22 0 0 0-1.2-9.32c-1.79-9.59-4.74-19.7-9.87-27.75-.35-.56.56 1.24.82 1.87.52 1.25.97 2.53 1.36 3.84 1.16 3.82 2.06 7.76 2.78 11.72 1.42 7.71 1.22 16.35-2.38 23.32-.24.47-8.6 8.05-8.74 7.25-2.6-15.78-2.06-26.63-12.28-39.93-1.04-1.35.95 3.41 1.34 5.15a59.29 59.29 0 0 1 1.26 9.01c.54 8.63.48 22.54-3.46 30.04-.09.16-.02-.37-.03-.55a92.32 92.32 0 0 0-1.8-12.8c-1.77-8.79-4.46-18.61-9.02-26.07-.65-1.06.7 2.45 1.04 3.68.66 2.47 1.3 4.94 1.74 7.47.76 4.42-.03 33.66-5.54 32.7-.03-.01-.16-9.64-.22-10.38a64.27 64.27 0 0 0-4.73-18.94 85.61 85.61 0 0 0-3.69-7.8c-.47-.88-.96-3.46-1.47-2.61-.67 1.12.73 8.9.76 10.7.13 8.77-1.24 17.9-4.78 25.8a19.46 19.46 0 0 1-7.73 8.95c-1.93 1.2-3.9 2.37-5.8 3.66-.79.54-2.08 2.68-2.34 1.68-2.94-11.43-2.88-22.78-8.2-33.56-.19-.36-1.6-3.57-1.86-3.52-.02.01.24 2.03.26 2.21.3 2.46.62 4.92.82 7.41.51 6.52.65 13.84-.5 20.32-1.5 8.5-19.65 20.04-23.96 16.4-3.98-3.35 4.33-43.02 6.15-48.42 12.83-38.1 48.86-55.29 83.37-64.37h-393.9v175.83c36.3-9.39 77.88-24.87 115.6-16.64 10.73 2.34 20.96 7.05 31.06 12.33l.68 1.32.7 1.3.71 1.27.72 1.23.49.81.49.8c-11.63-6.3-23.33-12.29-35.73-14.99-37.47-8.17-78.76 7.65-114.71 16.87v37.64c17.26-9.38 35.72-21.65 54.37-29.99 20.74-9.27 41.72-13.67 61.65-4.58 18.8 8.58 36.14 32.45 53.88 51.19l-1 .48-.99.49-.97.48-.94.49c-17.05-18.23-33.61-41.08-51.71-49.34-18.82-8.58-38.63-4.16-58.22 4.59-19.27 8.62-38.32 21.45-56.07 30.92v75h156l166.43 6.25-.74-6.25h106.56v-65.57c-15.55-8.23-28.1-12.71-44.72-1.29-5.64 3.88-10.66 9.61-15.8 14.69-5.51 5.47-11.2 10.17-17.7 11.61-13.19 2.94-25.71-3.24-38.15-10.27l-4.78-2.72-.31-.53-.4-.67-.53-.83-.62-.94-.34-.52-.64-.93-.36-.5-.66-.9-.36-.47-.7-.89-.34-.43c4.04 2.1 8.06 4.43 12.09 6.7 11.5 6.5 23 12.55 35.2 9.84 5.79-1.29 10.75-5.64 15.68-10.51 5.3-5.26 10.53-11.16 16.36-15.16 17.5-12.03 30.89-8.26 47.08.03v-42.6c-15.69-3.94-28.44-6-45.25-.48-5.65 1.86-10.69 4.61-15.84 7.04-5.43 2.57-10.97 4.8-17.36 5.48-12.96 1.38-25.22-1.56-37.44-4.87-11.79-3.18-23.52-6.7-35.85-6.6-3.43.03-6.8.36-10.11.89l.81-1.14.8-1.14.84-1.26.7-1.09Zm379.5 120.85.02.39-.02-.45v.06Zm-.03-.71.01.32-.02-.42v.1Zm65.36.07v.01-.01Zm-.04-.14.03.09-.02-.06-.01-.03Zm-.04-.15.02.1-.01-.05-.01-.05Zm-.04-.17.02.11v-.04l-.02-.07Zm-65.28-.32.02.27-.02-.42v.15Zm65.24.13.02.13v-.03l-.02-.1Zm-.06-.27.04.21-.04-.21Zm-.04-.23.04.2-.03-.17v-.03Zm-.04-.24.03.16-.02-.11-.01-.05Zm-65.14-.11.02.24-.03-.43.01.19Zm65.1-.15.02.16-.01-.08-.01-.08Zm-.04-.29.02.18v-.06l-.02-.12Zm-65.1-.27.01.21-.03-.46.02.25Zm65.05-.05.03.22v-.04l-.03-.18Zm-.05-.39.04.32-.04-.32Zm-65.05-.26.01.17-.03-.51.02.34Zm64.97-.39v.11-.11Zm-65.02-.32.01.15-.05-.64.04.49Zm64.94-.38.01.13v-.05l-.01-.08Zm608.52-297.68h-434.5v297.5h434.5v-297.5Zm447 0v297.5h-434.5v-297.5h434.5Zm440.75 0h-428.25v297.5h428.25v-297.5ZM840.76 1245.79l-.05.69.02.98.07.8.08.7.2 1.2.17.94.31 1.44.55 2.38.14.62.12.64.15.86.14.95.11.78.18 1.39.09.71.1.88.18 1.73.09.85.08.87.11 1.13.18 1.96.08.97.1 1.16.15 1.85.15 1.95.14 1.84.16 2.22.12 1.67.2 2.79.17 2.68.17 2.59-.17-.34-.17-.33-.17-.34-.18-.33-.18-.33-.1-.19-.44-.8a32.22 32.22 0 0 0-5.14-7.02c-4.78-4.77-11.65-6.46-18.08-7.66-15.68-2.94-30.17-1.27-44.54 5.67-.63.31-1.34.64-2.08.98l-.64-2.64-.27-1.16-.4-1.7-.16-.73-.16-.73-.2-.94-.16-.77-.18-.89-.11-.56-.14-.75-.13-.68-.11-.66-.12-.71-.1-.62-.11-.72-.1-.6-.1-.73-.08-.58-.13-.99-.1-.81-.1-.78-.09-.84-.1-.92-.08-.79-.07-.75-.08-.95-.13-1.58-.06-.74-.12-1.77-.1-1.69-.07-1.12-.06-1.16a67.36 67.36 0 0 0 4.43 3.18l.7.47c17.08 11.29 38.8 10.59 57.03 2.65a27.66 27.66 0 0 0 9.2-6.77Zm-377.55-72.34c-.26 2.4-.47 4.7-.62 6.82a58.27 58.27 0 0 0-.14 8.64c.06.67.25 1.46.32 1.7.08.03.2-.02.3-.04.44-.07.9-.25 1.41-.49 2.26-1.05 4.95-3.1 7.46-4.62.24-1.82 1.1-5.78 1.83-10.01a2.35 2.35 0 0 1-1.48-1.69c-2.05-7.99-2.6-15.95-4.6-23.69.24 5.46.12 11.19-.8 16.39-.4 2.22-1.73 4.65-3.68 6.99Zm25.13-7.77a21.36 21.36 0 0 1-4.31 3.68c.57 2.11 1.05 4.33 1.7 7.55.26-.75.54-1.66.78-2.57.62-2.42 1.26-5.46 1.82-8.66Zm8.6-27.17.16.04c.59.2 1.3.66 1.69 1.84 1.92 5.97 3.34 23.18 3.96 31.83 3.3-1.16 10.1-3.59 11.51-4.14.31-.12.58-.19.8-.22a26.6 26.6 0 0 0 1.47-4.67c.2-1.06.39-2.22.55-3.44a2 2 0 0 1-1.09-1.1 2.1 2.1 0 0 1-.18-.63 9.6 9.6 0 0 1 0-.76c-.25-4.2-.95-8.35-1.77-12.45-.54-2.68-1.16-5.47-1.9-8.25-.13 7.64-1 18.73-3.14 23.82-1.25 2.98-3.2 4.17-5.04 3.85l-.14-.03a2.36 2.36 0 0 1-1.6-2.23c-.05-1.56-.15-9.33-.2-9.99v-.01a62.33 62.33 0 0 0-5-19.31l.02.45c.03 1.79 0 3.59-.1 5.4Zm42.15 11.31c.22 2.06.44 4.19.7 6.41a86.7 86.7 0 0 0 4-4.63l.02-.02a36.57 36.57 0 0 0 2.3-10.15c-.22-2.63-.6-5.23-1.08-7.82v-.02a32.85 32.85 0 0 1-3.38 13.6c-.08.14-.5.69-1.24 1.4-.36.35-.81.77-1.32 1.23Zm-15.43-17.48a151.33 151.33 0 0 1 3.81 17.9l.19 1.22c.14-1.59.24-3.21.3-4.83-1.05-7.86-1.8-14.59-4.7-21.43.08.79.15 1.58.2 2.38.09 1.46.16 3.07.2 4.76Zm32.02-6.24a100.1 100.1 0 0 1-1.86 11.18l.13.84.25 1.84c.74-4.57 1.23-9.32 1.48-13.86Zm456.07-366.4h-434.5v297.51h434.5v-297.5Zm1334.75 0h-428.25v297.51h428.25v-297.5Zm-887.75 0v297.51h-434.5v-297.5h434.5Zm447 0v297.51h-434.5v-297.5h434.5Zm-1341 0H136.5v297.51h428.25v-297.5Zm1526-91.63h.22a35.02 35.02 0 0 1 34.78 35 35.02 35.02 0 0 1-34.78 35h-.22c-19.32 0-35-15.69-35-35 0-19.32 15.68-35 35-35Zm96.99 0h.22a35.02 35.02 0 0 1 34.78 35 35.02 35.02 0 0 1-34.78 35h-.22c-19.32 0-35-15.69-35-35 0-19.32 15.68-35 35-35Zm87.61 0h.23a35.02 35.02 0 0 1 34.77 35 35.02 35.02 0 0 1-34.77 35h-.23c-19.31 0-35-15.69-35-35 0-19.32 15.69-35 35-35Zm-189.91 53.44h10.61v-12.22h12.21v-10.6h-12.21v-12.22h-10.61v12.22h-12.22v10.6h12.22v12.22Zm185.68-38.18h-13.07l9.66 18.17-10.32 18.19h13.07l5.97-11.56 6.15 11.56h12.88l-10.23-18.19 9.75-18.17h-12.97l-5.58 11.26-5.31-11.26Zm-66 16.12h-33.33v9.84h33.33v-9.84Z" style="fill:#794fa0" transform="translate(-3.75 -544.55)"/>
  <path d="M2188.52 1881.05c-14.93 31.45-34.97 57.41-54.36 58.41-46.1 2.39-54.11-.76-65.16-21-3.7-6.77-11.68-22.79-19.93-41.97 1.84.82 38.23 16.81 54.43 3.97 16.61-13.18 37.25-21.09 21.5-56-16.27-36.06 26.75-40.42 20-8s-3.06 27.26 0 43c2.61 13.44 34.33 19.97 43.52 21.59Zm-1371.65 57.41c46.78.09 74.71-36.84 74.71-100.47 0-63.26-28.12-99.82-74.71-99.82-46.6 0-74.62 36.46-74.72 99.82 0 63.54 27.94 100.47 74.72 100.47Zm-522.57-1.04h132.95v-29.36h-84.47v-1.33l33.43-33.99c37.69-36.17 48.1-53.79 48.1-75.66 0-32.48-26.41-56.25-65.43-56.25-38.45 0-65.72 23.86-65.72 60.7h33.43c0-19.79 12.5-32.2 31.82-32.2 18.46 0 32.2 11.27 32.2 29.55 0 16.19-9.86 27.74-28.98 47.15l-67.33 66.01v25.38Zm880.99 0h132.96v-29.36h-84.47v-1.33l33.42-33.99c37.69-36.17 48.11-53.79 48.11-75.66 0-32.48-26.42-56.25-65.43-56.25-38.45 0-65.73 23.86-65.73 60.7h33.43c0-19.79 12.5-32.2 31.82-32.2 18.47 0 32.2 11.27 32.2 29.55 0 16.19-9.85 27.74-28.98 47.15l-67.33 66.01v25.38Zm536.45-195.27h-33.43l-48.2 30.97v32.2l45.36-28.98h1.14v159.75h35.13v-193.94Zm413.55 167.86 2.05 5.33a4.16 4.16 0 1 0 8.23 1.24l3.1-5.26 6.18-1.7a4.15 4.15 0 1 0 .3-8.32l-27.08-1a4.16 4.16 0 1 0-.31 8.32l7.53 1.39Zm-1308.42-1.19c-24.15 0-39.3-24.24-39.2-70.83.09-46.21 15.14-70.55 39.2-70.55 24.14 0 39.2 24.34 39.3 70.55 0 46.59-15.06 70.83-39.3 70.83Zm1231.53-33.9.67 1.57-.77-1.8-.3-.69.4.92Zm-1.26-2.96.29.68-.51-1.21.22.53Zm-1.15-2.76.28.67-.45-1.06.17.39Zm-1.16-2.8.28.67-.39-.94.11.27Zm-1.15-2.82.27.65-.33-.81.06.16Zm-1.14-2.84.26.63-.29-.71.03.08Zm-7.65-20.54.26.75-.26-.75c9.12-7.95 17.78-28.22 22.11-46.74 6.14-26.22-.36-36.2 12-39.06 12.36-2.87-8.62-12.2-17-10.94-11.17 1.68-32.77 8.86-50 21-17.22 12.14 3.4 68.57 21.55 78.27 3.67 1.97 7.55.79 11.34-2.53Zm156.11-78.74c.95-3.51 17.96-9.25 27-7.06 10.33 2.5 30.79 8.93 35 22.06 4.33 13.51-5.5 51.5-9 59-2.6 5.57-9.13-8.57-12-14-5.29-10-12.89-36-19.72-46-4.79-7.01-22.23-10.49-21.28-14Zm-824.64-178.79c.05-1.63.1-3.03.17-4.15.16-2.6.92-6.74 3.59-6.99 9.27-.87 41.86 1.17 52.02 1.75 3.04.17 8.42-1.18 8.97 1.75 1.79 9.6 2.39 45.42 1.79 55.9-.17 2.9-2.73 5.63-5.38 6.99-5.68 2.91-18.84 10.19-28.7 10.48-9.87.29-25.12-5.82-30.49-8.74-2.28-1.23-1.92-4.57-1.81-7.37l-.68-.15c.28-1.06.49-2.24.63-3.45-.19-8.46-.36-25.25-.25-37.69a32.38 32.38 0 0 0-5.96.09c-.89.12-1.76.29-2.54.58-.62.24-1.21.51-1.51 1.06a11 11 0 0 0-.62 1.4c-2.62-.92-5.85-1.73-8.12-1.82.44-1.42.92-2.63 1.41-3.55 1.58-2.91 4.53-4.72 8.11-5.54 3.04-.71 6.57-.69 9.37-.55Zm-631.52-4.35c28.92-24.32 67.38-31.75 97.9-13.74-5.02 6.88-10.77 14.19-12.26 19.62-3.38 12.33.34 30.28-5 37.7-5.16 7.19-18.94 10.85-27 6.89-9.12-4.48-17.52-23.19-27.66-33.73-5.17-5.37-16.83-11.2-25.98-16.74Zm619.03 24.1c-.21 1.86-.34 3.8-.39 5.68v.04c-2.57.8-5.71 2.69-8.21 4.69-.12-1.57-.16-3.22-.12-4.92.04-1.76.16-3.56.35-5.33 2.48.21 5.73.11 8.37-.16Zm-132.51-63.71c7.16-.67 14.25-1.85 21.37-2.83a2.07 2.07 0 0 0 1.78-2.34 2.07 2.07 0 0 0-2.34-1.78c-7.07.97-14.1 2.13-21.2 2.8a2.08 2.08 0 0 0 .39 4.15Zm-326.9-39.61c.87-21.99 3.82-38.7 8.31-46.69 15.23-27.1 37.33-11.79 20.46 11.29-5.52 7.55-5.04 26.84-3.03 48.35-4.1 2.7-9.7 3.9-13.2 1.41-3.3-2.35-8.55-7.89-12.53-14.36Zm306.81 2.2c.3 2.14.61 4.29 1.24 6.43a4.18 4.18 0 0 0 8-2.34c-.51-1.74-.74-3.49-.98-5.23a4.18 4.18 0 0 0-8.26 1.14Zm40.97-2.63-.07 5.85a4.17 4.17 0 1 0 8.33.07l.08-5.8a4.18 4.18 0 0 0-8.34-.12Zm-506.97-24.86c16.86-4.15 52.53-6.65 65.81-5.86-.17 4.17-1.4 8.63-3.08 11.51-3.82 6.5-16.24 14.66-24.9 17-8.67 2.33-21.25 2-27.1-3-4.09-3.49-10.08-12.6-10.73-19.65Zm326.33-84.2c18.55 6.67 21.01 20.84 15.87 32-5.12 11.16-17.84 19.32-29.64 13.98 45.42 24.82 68.79-26.9 13.77-45.98Zm-287.63-112.29c.74-.34 1.45-.67 2.08-.98 14.37-6.94 28.86-8.61 44.54-5.67 6.43 1.2 13.3 2.89 18.08 7.66 2.65 2.64 4.74 6.07 6.55 9.68 2.15 33.42 4.15 79.5 5.69 83.49.25 1.23-65.31 1.96-65.31 1.96-.49-15.26-3.78-29.78-5.79-44.88-1.58-11.92-1.02-24.1-2.64-35.96-.7-5.1-1.96-10.21-3.2-15.3Zm391.9 44.92h34.66l38.92-136.07h1.51l38.83 136.07h34.66l54.73-193.94h-37.78l-34.95 142.62h-1.7l-37.4-142.62h-34.38l-37.31 142.53h-1.8l-34.94-142.53h-37.79l54.74 193.94Zm460.11 0h126.89v-29.45h-91.76v-52.93h84.47v-29.45h-84.47v-52.65h91v-29.46h-126.13v193.94Zm409.62 0h78.5c44.42 0 66.2-22.63 66.2-52.84 0-29.35-20.84-46.59-41.48-47.63v-1.89c18.94-4.46 33.9-17.71 33.9-41.29 0-28.88-20.83-50.29-62.88-50.29h-74.24v193.94Zm35.13-29.35v-56.82h38.73c21.69 0 35.14 13.26 35.14 30.59 0 15.43-10.61 26.23-36.08 26.23h-37.79Zm-1301.32-46.63c-.52-10.5-.56-20.75-2.52-32.01-1.74-10-3.49-22.02.2-32.05 4.44-12.05 15.36-13.77 25.57-14.28 34.32-1.74 33.4-9.5 35.08-9.62 9.14-.59 16.66 80.7 13.36 86.36-.17.29-.28.68-.34 1.13a27.66 27.66 0 0 1-9.2 6.77c-18.22 7.94-39.94 8.64-57.02-2.65a71.4 71.4 0 0 1-5.13-3.65Zm11.48-22.54c1.9 6.55 6.04 10.02 13.2 11.62 3.85.87 8.74 1.14 14.78 1.12a4.17 4.17 0 0 0-.03-8.33c-5.28.02-9.56-.16-12.93-.92-3.7-.83-6.03-2.41-7.01-5.8a4.17 4.17 0 0 0-8 2.31Zm1289.84-12.93v-53.51h35.52c20.64 0 31.34 10.89 31.34 25.85 0 17.05-13.83 27.66-32.1 27.66h-34.76Zm-1288.07-12.57v5.18a4.17 4.17 0 0 0 8.34 0v-5.18a4.17 4.17 0 0 0-8.34 0Zm27.53-2.41v6.77a4.17 4.17 0 0 0 8.33 0v-6.77a4.16 4.16 0 0 0-8.33 0Zm-553.22 1.61c5.02-9.93 6.67-26.84 16.5-32.53 1.01-.59 4.67-10.24 5.16-17.43.84-12.2 11.1-30.75 22.82-36.03 12.4-5.58 40.35-2.52 54.9-3.08 10.88-.42 25.29-3.97 36.03-1.56 4.2.94 6.62 5.95 8.34 9.41 4.8 9.65 4.73 22.75 10.32 31.65 4.46 7.1 13.97 12.62 19.69 18.95 2.63 2.91 6.94 5.52 3.15 9.14-19.28 18.44-43.4 2.06-64.47 1.9-15.36-.12-28.7 9.53-44.15 8.14-10.78-.96-17.42-8.03-29.19-5.75-7.73 1.5-14.74 6.1-21.16 10.64-.1.07-1.63 5.36-1.45 8.92.2 3.96-13.31-3.45-16.48-2.37Zm1863.85-334.07h33.81c-.66-32.76-28.6-55.96-69.88-55.96-40.72 0-71.31 22.91-71.22 57.2 0 27.83 19.8 43.84 51.71 52.08l22.06 5.68c20.93 5.3 34.75 11.84 34.85 26.9-.1 16.57-15.82 27.65-38.73 27.65-21.97 0-39.02-9.85-40.44-30.21h-34.56c1.42 38.54 30.11 60.22 75.28 60.22 46.5 0 73.49-23.2 73.58-57.38-.09-33.62-27.84-48.96-57-55.87l-18.19-4.55c-15.91-3.78-33.14-10.51-32.95-26.7.09-14.58 13.16-25.28 35.13-25.28 20.93 0 34.76 9.75 36.55 26.22Zm-1370.8 141.63 16-47.83h72.91l16.1 47.83h37.5l-68.37-193.94h-43.37l-68.28 193.94h37.5Zm-454.92-1h35.13v-65.53h37.12c44.8 0 68.85-26.9 68.85-64.2 0-37.03-23.77-64.2-68.38-64.2H295.1v193.93Zm1411.01-193.94h-35.13v193.94h35.13V810.04Zm-519.69 193.94h35.14v-71.03h35.79l38.07 71.03h39.2l-41.95-76.9c22.83-9.18 34.85-28.69 34.85-55.01 0-37.03-23.86-62.03-68.37-62.03h-72.73v193.94Zm-410.94-75.04 26.24-78.13h1.5l26.24 78.13h-53.98Zm-445.25-19.37V839.4h32.2c26.32 0 37.97 14.2 37.97 34.85 0 20.64-11.65 35.32-37.78 35.32h-32.4Zm891.33-5.78v-64.4h32.19c26.23 0 37.98 12.03 37.98 32.68 0 20.64-11.75 31.72-37.78 31.72h-32.39Z" style="fill:#fff;fill-rule:nonzero" transform="translate(-3.75 -544.55)"/>
  <path d="M832.75 1564.58a79.67 79.67 0 0 1 22.27 19.86c12.63 16.16 22.18 40.27 28.3 61.86 2.32 8.13 4.14 16.5 5.5 25 .15.93.87 8.13 1.39 11.28l14.05.11c-.03.08-.07.14-.11.15-3.3 1.34-10.13 1.78-13.57 1.21-.1-.01-.22-.58-.37-1.47l-196.95-1.54c0-17.88.77-35.9 6.68-52.3a118.27 118.27 0 0 1 34.9-50.42c9.15 5.54 20.81 11.37 25.98 16.74 10.14 10.54 18.54 29.25 27.65 33.73 8.07 3.96 21.85.3 27-6.89 5.35-7.42 1.63-25.37 5-37.7 1.5-5.43 7.25-12.74 12.28-19.62Zm61.72-65.48c3.98 6.47 9.24 12.01 12.53 14.36 3.5 2.49 9.1 1.29 13.2-1.41 1.73 18.47 4.6 38.58 5.77 54.32 2.72 36.54 11.84 77.88 13.6 116.6l-35.3-.28c1.83-4.54-5.81-106.34-6.32-110.52-3.28-27.13-4.3-52.43-3.49-73.07Zm-571.83 167.07c1.07-.22 4.16-.55 5.99-.42 1.78.14 2.83.46 5 .45 2.13-.02 2.84-.38 4.58-.52 3.08-.23 6.18.07 8.9.31a2.08 2.08 0 0 0 .38-4.15c-2.94-.26-6.28-.56-9.6-.31-1.63.12-2.3.49-4.28.5-2.02.01-3-.3-4.67-.43-2.17-.17-5.84.23-7.13.48a2.09 2.09 0 0 0 .83 4.09Zm1588.02-125.69a144.28 144.28 0 0 0 32.4 10.19c14.25 2.52 28.82-3.59 42.8-7.34 15.2-4.09 36-5.39 48.44-17.17a303.8 303.8 0 0 1-.7 17.17c-2.14 30.96.31 76.68-22.03 92.02-19.64 13.48-70.75 18.68-100.91 6.18v-101.05Zm-1572.84 83.86a2 2 0 0 0-1.31-.29c-4.67.54-9.34.8-14.03 1.05a16.7 16.7 0 0 0-32.7 4.35c-2.97.39-5.95.77-8.93 1.18a2.09 2.09 0 0 0 .57 4.13c2.93-.41 5.86-.78 8.79-1.16a16.7 16.7 0 0 0 32.95-4.37c4.62-.24 9.23-.51 13.83-1.04.4-.05.78-.22 1.07-.46a16.7 16.7 0 1 0 32.42-7.75c.38.36.89.57 1.44.56 7.48-.12 14.97-.12 22.43-.73a2.09 2.09 0 0 0-.34-4.16c-7.36.61-14.77.61-22.15.72a2.1 2.1 0 0 0-2.04 1.83 16.7 16.7 0 0 0-32 6.14Zm-19.16 2.6a12.53 12.53 0 1 0 .25 1.37 2.12 2.12 0 0 1-.25-1.37Zm35.85-14.61a12.53 12.53 0 1 1 0 25.06 12.53 12.53 0 0 1 0-25.06Zm-29-28.62c-2.96 7.3-.28 13.38 7.8 13.99 3.93.29 7.39-.03 9.5-3.76.8-1.41 1.32-2.78 1.8-4.32.24-.74.32-2.75.86-2.18.97 1.03.83 3.1 1.1 4.41.48 2.2 1.85 3.5 3.9 4.34 1.08.44 2.15.85 3.29 1.12 1.03.25 2.2.37 3.28.41 2.82.11 5.63-1.75 7.68-3.52.66-.58 1.26-1.22 1.8-1.92.29-.36.67-1.58.8-1.13.88 2.86-.8 6.31-.2 9.23.88 4.07 8.83 4.79 11.94 3.95 2.24-.61 3.04-1.61 4.56-3.18.23-.24 1.44-1.34 1.85-1.17 1.4.57.79 4.8 1.2 6.07 1.3 3.95 7.65 5.91 11.28 4.46 5.16-2.07 6.34-6.57 4.85-11.67-.2-.73-2.08-3.74-1.93-4.18.56-1.7 2.33-3.04 3.2-4.61 1.69-3.02 2.11-7.06 1.83-10.47-.33-4.09-3.74-7.35-7.7-8.2-1.4-.3-5.05.87-5.38.15-2.14-4.65 4.93-16.4-2.41-18.05-4.9-1.11-13.26-1.48-17.86.65-1.87.86-2.77 2.39-3.4 4.3-.19.59-.34 1.19-.5 1.78-.07.31-.02 1.17-.24.93-1.01-1.11-1.49-2.59-2.07-3.95-1.75-4.11-6.3-13.26-12.08-8.6a7.8 7.8 0 0 0-1.76 1.96c-1.05 1.71-1.15 3.77-1.22 5.73-.03.86.92 2.37.08 2.59-1.5.41-4.22-3.29-5.2-4.25-3.34-3.27-8.24-7.69-13.39-5.61-2.92 1.17-4.37 4.51-4.96 7.41-.21 1.08.26 4.11-1.39 4.13-2.6.03-5.1-1.34-7.48-2.24-4.5-1.69-12.31-3.87-17.09-2.08-2.71 1.02-4.13 4.37-3.63 7.12.18 1.01.52 2.01.93 2.96.25.58 1.4 1.73.77 1.73-2.02-.01-4.42-3.07-5.85-4.33-4.34-3.81-11.82-5.87-15.33.25-1.7 2.99-3.99 10.8-.62 13.69 1.3 1.11 2.63.77 4.13 1.34.73.27-1.15 1.08-1.8 1.51-1.3.85-2.65 1.6-4 2.35-4.04 2.24-10.32 4.9-12.36 9.45-2.18 4.86-.1 10.09 5.04 11.61 1.32.39 2.67.58 4.05.65.6.04 1.61-.94 1.75-.36.21.9-1.07 1.51-1.6 2.26-1.46 2.03-2.85 4.03-3.4 6.5-.7 3.21.12 7.16 1.37 10.16a9 9 0 0 0 1.6 2.61c.33.37 1.3.47 1.15.94-.67 2.06-6.23 5.33-2.44 7.22 5.94 2.96 9.76-6.06 9.88-10.16.06-1.94-.03-3.73-.47-5.61-.15-.66-.3-1.32-.5-1.96-.1-.3-.52-1.12-.3-.89 3.23 3.4 7.1.34 9.02-2.94 1.56-2.68 2.24-5.58 2.64-8.63.13-.99.22-1.97.26-2.96.02-.47-.15-1.84.04-1.41.7 1.62 1.05 3.36 2.35 4.65 5.4 5.33 12.52-.43 14.74-5.91a17.28 17.28 0 0 0 1.2-5.3c.04-.65.1-1.28.13-1.93 0-.3-.28-.91.03-.91.05 0 .65 1.15.7 1.26.78 1.53 2.57 5.93 6.31 5.74 7.73-.41 5.36-9.64 7.86-13.22Zm-21.44 43.31v4.8a2.08 2.08 0 0 0 4.17 0v-4.8a2.09 2.09 0 1 0-4.17 0Zm1128.68 4.91a7.1 7.1 0 0 1-2.66.9 9.17 9.17 0 0 1-5.75-1.11 5.59 5.59 0 0 1-2.36-2.94h-.01c-.84-2.46-1.48-9.03-2.1-15.13-1.52 6.36-3.13 13.33-4.14 15.53a4.6 4.6 0 0 1-2.58 2.47 4.84 4.84 0 0 1-4.29-.39 9.81 9.81 0 0 1-2.96-2.95 10 10 0 0 1-1.57-3.78c-.56-3.91-1.01-12.63-1.34-20.84-.15.45-.33.89-.55 1.29-.82 1.49-2.49 3.03-4.79 4.3-3.52 1.95-8.74 3.51-12.05 4.46.28 5.04.58 9.85.8 13.44a4.16 4.16 0 1 1-8.31.51c-.66-10.67-1.97-32.01-1.76-38.82a5.92 5.92 0 0 1 2.23-4.35 7.73 7.73 0 0 1 5.44-1.68l.01.01c1.56.19 4.64.61 7.48 1.55 2.37.78 4.56 1.96 6 3.47a25.8 25.8 0 0 1 5.25 8.99l-.2-5.98a4.17 4.17 0 0 1 8.33-.27c.17 5.51.45 14.42.85 21.84 1.25-5.34 2.5-10.66 3.34-12.77.72-1.81 3.03-3.43 5.64-3.45 2.88-.01 5.2 1.85 5.75 3.93.44 1.65.83 5.19 1.22 9.18-.09-6.7-.31-13.72-.46-18.47a4.18 4.18 0 0 1 5.04-4.2c.88 14.62 1.1 36.45.65 44.26-.02.34-.07.67-.15 1Zm-1080.34-9.26v3.47a2.09 2.09 0 1 0 4.17 0v-3.47a2.08 2.08 0 0 0-4.17 0Zm1032.23-31.33c.02 3.39.22 8.43.49 13.86a55.89 55.89 0 0 0 7.2-2.56c.85-.39 1.63-.8 2.26-1.25.18-.12.36-.21.48-.33a9.81 9.81 0 0 0-.29-1.74 16.11 16.11 0 0 0-3.32-5.69c-.6-.63-1.59-.99-2.59-1.32-1.46-.48-3-.78-4.23-.97Zm557.14-29.64c6.14-2.22 19.51 5.52 29.52 5.52 11.01 0 29.27-7.74 36.6-5.52 6.45 1.97 10.1 14.9 7.34 18.88-2.75 3.99-15.8 4.06-23.87 5.02-9.59 1.15-24.13 2.68-33.62 1.84-8.07-.71-20.65-2.56-23.31-6.86-2.66-4.28 1.2-16.65 7.34-18.88Zm-1140.7-93.75.75.05c3.1-15.24 10.94-37.01 11.3-37.1 5.6-1.43 12.24 10.15 15.41 14.18 12.28 15.6 21.21 41.04 23.91 60.86 10 73.26-139.2 92.21-156.42 24.57-3.04-11.93-5.02-41.58 2.02-65.8 2.5-8.56 9.66-28.96 10.74-28.44 10.78 5.23 22.73 38.6 22.79 38.58 1.1-.36 2.33-.7 3.69-1.04.65 7.05 6.64 16.16 10.73 19.65 5.85 5 18.43 5.33 27.1 3 8.66-2.34 21.08-10.5 24.9-17 1.69-2.88 2.91-7.34 3.08-11.51Zm-23.3 64.61c-.73-4.19.07-2.81-.24-8.03a3.13 3.13 0 0 0-6.24.37c.32 5.42-.4 4.32.23 8.13a18.74 18.74 0 0 0-3.61 2.92c-2.1 2.11-4.43 5.03-7.58 5.84a3.12 3.12 0 1 0 1.55 6.05c3.63-.93 6.64-3.61 9.2-6.2 1-1.02 1.93-2.01 2.82-2.74.32-.27.87-.59.97-.65.85-.02 1.68.57 2.6 1.18 1.5 1.01 3.04 2.32 4.54 3.45 2.86 2.14 5.76 3.46 8.24 3.05a3.13 3.13 0 0 0-1.03-6.17c-.49.09-.96-.25-1.5-.56-1.13-.63-2.28-1.56-3.46-2.48a33.19 33.19 0 0 0-5.2-3.6c-.43-.22-.86-.41-1.28-.56Zm381.65-45.44c2.91-17.72 19.97-38.43 37.2-46.05 4.06-1.8 16.74-2.55 28.71-2.46h.2c1.99.01 3.95.05 5.85.11l1.42.05 2.06.09c4.15.2 7.82.51 10.5.93l.6.09c.65.11 1.23.23 1.74.36l.61.16c3.97 1.19 6.06 2.14 6.9 2.86 13.65 7.32 21.97 22.57 25.35 36.96 1.51.26 3.19.64 3.33.68 5.33 1.15 13.06 3.27 15.84 8.36 6.1 11.2 1.11 27.97-2.94 39.04-1.83 5-4.48 10.19-9.48 12.87-4.59 2.46-11.57.7-16.58.6a31.6 31.6 0 0 1-.35-.87 226.57 226.57 0 0 0 8.06-22.33c7.15-23.02 2.12-39.88-10.23-51.66-3.11-10.13-9.55-18.57-21.99-22.74-7.81-2.61-39.8-3.16-45.09-.55l-.76.4-.79.47-.82.54-.83.59-.95.72-.95.78-.86.73-1.04.95-.74.69-.93.91-.94.95-.74.78-.56.59a124.5 124.5 0 0 0-12.13 15.6c-4.14 6.25-7.69 12.76-9.82 18.43 2.9 6.94 5.19 18.75 6.07 28.23 1.55 16.68 2.17 24.16-1.68 32.16-5.02-.12-12.07 1.3-16.55-1.33-4.87-2.86-7.29-8.09-8.89-13.09-3.57-11.09-7.82-27.82-1.24-38.57 2.52-4.11 8.43-5.99 13.44-7.03Zm1193.23 53.91V1410.6c-11.34-9.01-25.91-14.74-39.92-16.76-22.61-3.26-63.72-1.02-84.57 8.68-19.34 8.99-33.19 33.33-40.53 49.52-6.57 14.5-10.86 39.98-3.52 47.62 7.34 7.64 38.76 5.59 47.57-1.76 8.81-7.35 2.35-42.33 5.28-42.33 2.94 0 1.77 35.86 12.34 42.33 10.57 6.47 39.35-5 51.1-3.53 7.59.95 13.51 11.46 19.38 12.35 5.72.86 12.12-11.48 15.86-7.06 4.84 5.73 11.01 26.84 17.01 41.37Zm-1629.4-37.07c.37 6.23-.62 3.96.58 10.09a4.17 4.17 0 1 0 8.17-1.6c-1.06-5.45-.1-3.44-.42-8.98a4.17 4.17 0 0 0-8.32.49Zm87-9c.37 6.23-.62 3.96.58 10.09a4.17 4.17 0 1 0 8.17-1.6c-1.06-5.45-.1-3.44-.42-8.98a4.17 4.17 0 0 0-8.32.49Zm-92.35-126.09c0-12.28-1.89-24.25-2.3-36.48-.57-17.29.09-34.34-1.77-51.55-3.6-33.37-10.58-70.39 2.38-102.68 14.27-35.53 57.02-49.78 92.2-50.08 15.89-.13 34.98 1.6 44.53 16.37 6.15 9.52 7.97 22.05 11.32 32.65 11.53 36.33 12.06 63.13 13.87 100.96 1.56 32.63 4.56 62.89 6.17 95.4 0 0-33 0-33.4-1.96-2.22-5.76-5.4-99.35-8.62-115.75-.43-2.2-2.41-8.99-1.19-11.09 3.3-5.66-4.22-86.95-13.36-86.36-1.67.12-.76 7.88-35.08 9.62-10.21.51-21.13 2.23-25.56 14.28-3.7 10.03-1.95 22.05-.2 32.05 3.22 18.52 1.23 34.3 4.79 52.95 1.61 8.44 4.31 16.95 5.48 25.42 1.62 11.86 1.06 24.04 2.64 35.96 2.02 15.11 5.3 29.63 5.79 44.89l-67.69-4.6Zm-459.13-2.93c4.82-52.33 59.61-72.85 109.3-77.44 18.62-1.72 38.3-4.58 55.2 4.83 28.28 15.77 32.45 52.69 35.65 80.13l-200.16-7.52Zm14.71-167.91c.23-3.32 1.33-7.1 1.42-7.16 6.42-4.54 13.43-9.14 21.16-10.64 11.77-2.28 18.4 4.79 29.2 5.75 15.45 1.39 28.78-8.26 44.14-8.14 15.06.11 31.66 8.51 46.95 6.57a91.95 91.95 0 0 1 1.59 8.43c6.28 44.55-20.8 85.24-60.42 90.83-39.62 5.58-76.88-26.05-83.16-70.59-.17-1.17-.3-2.33-.43-3.48 9.53-1.77 29.97-6.72 31.76-3.9 1.99 2.34 2.63 18.38 8.88 22.77 5 3.52 29.82 3.28 34.82 0 11.44-7.52 4.11-27.3 10-27.75 3.88-.3 5.3.46 7.78.13 6.4-.83 6.9 21.9 9.6 24.54 2.81 2.75 30.58 2.05 34.9-2.2 4.75-4.65 3.42-20.75 3.17-23.56-.32-3.6 3.91-.74-.03-5.49-2.17-2.62-31.97-.93-35.87-.91-19.43.08-38.04.1-57.55 1.8-19.41 1.69-36.32 6.41-47.85 9.1a90.27 90.27 0 0 1-.09-4.22v-.07l.03-1.81Zm65.25 53.46c19.4 6.27 38.3 5.91 57.4-.72a4.18 4.18 0 0 0-2.73-7.88c-17.34 6.02-34.5 6.36-52.1.67a4.17 4.17 0 0 0-2.57 7.93Zm442.15-27.77c1.9 6.55 6.04 10.02 13.2 11.62 3.85.87 8.74 1.14 14.78 1.12a4.17 4.17 0 0 0-.03-8.33c-5.28.02-9.56-.16-12.93-.92-3.7-.83-6.03-2.41-7.01-5.8a4.17 4.17 0 0 0-8 2.31Zm1.77-25.5v5.18a4.17 4.17 0 0 0 8.34 0v-5.18a4.17 4.17 0 0 0-8.34 0Zm27.53-2.41v6.77a4.17 4.17 0 0 0 8.33 0v-6.77a4.16 4.16 0 0 0-8.33 0Z" style="fill:#e53b96" transform="translate(-3.75 -544.55)"/>
  <defs>
    <linearGradient id="a" x1="0" y1="0" x2="0" y2="1">
      <stop offset="0" style="stop-color:hsl(270,20%,6%);stop-opacity:1"/>
      <stop offset="1" style="stop-color:hsl(270,40%,15%);stop-opacity:1"/>
    </linearGradient>
  </defs>
</svg>
