<svg width="1053" height="108" xmlns="http://www.w3.org/2000/svg">
  <g fill="none" fill-rule="evenodd">
    <path fill="#1D0927" d="m484.03 18.91-7.42 11.95-8.46-11.8h-9.26l-8.6 12.1-7.17-12.25H408.7l10.87 69.87h35.15l8.85-8.16 8.86 8.16h35.15l10.87-69.87zM619.25 37.88V18.9h-95.93v69.87h95.93V69.8h-74.17v-6.78h67.45V44.86h-67.45v-6.98h74.17ZM614 32.57h-74.17v17.6h67.45v7.55h-67.45v17.4h74.17v8.35h-85.4V24.22h85.4v8.35ZM706.72 41.27a22.22 22.22 0 0 0-22.15-22.36h-59.1v69.87h59.1a22.13 22.13 0 0 0 22.15-22.26c0-4.89-1.78-9.28-4.85-12.77a18.02 18.02 0 0 0 4.85-12.48Zm-60-3.1h34.39c1.88 0 3.46 1.6 3.46 3.6s-1.68 3.6-3.46 3.6h-34.39v-7.2Zm34.09 31.35h-34.09v-7.79h34c2.27 0 3.85 2.1 3.85 3.9a3.8 3.8 0 0 1-3.76 3.89Z"/>
    <path d="M646.72 38.18h34.39c1.88 0 3.46 1.6 3.46 3.59 0 2-1.68 3.6-3.46 3.6h-34.39v-7.2Zm34.09 31.34h-34.09v-7.79h34c2.27 0 3.85 2.1 3.85 3.9a3.8 3.8 0 0 1-3.76 3.89Z" fill="#FF00B3"/>
    <path d="m465.86 46.84.8 1.44.11.2-.19.12-1.4.85c2.75 4.85 5.53 9.68 8.3 14.52l.12.21-.2.12c-.4.24-.8.47-1.18.72l-.21.13-.13-.22c-.26-.48-.53-.95-.81-1.42-1.62.93-3.25 1.86-4.85 2.83l2.81 4.91c.48-.26.96-.52 1.42-.83l.24-.17.12.29c.2.5.52.96.79 1.43.46-.23.91-.5 1.36-.75l.2-.12.12.19c.66.97 1.2 2 1.8 3.01l1.41-.78.2-.12.13.2c.59 1.02 1.16 2.03 1.76 3.04.47-.27.96-.52 1.41-.82l.24-.15.11.25c.5 1.06 1.16 2.04 1.73 3.06l1.38-.78.2-.12.13.2c.92 1.56 1.8 3.14 2.72 4.7 2.68-1.52 5.35-3.07 8-4.62 2.73-1.6 5.46-3.15 8.15-4.8-.94-1.55-1.7-3.19-2.65-4.71l-.14-.22.23-.12c.46-.26.91-.53 1.36-.81-.87-1.57-1.76-3.12-2.65-4.68l-.1-.2.17-.12c.44-.31.9-.6 1.37-.86-.98-1.75-2-3.47-2.95-5.24v-.01c-1.26-2.06-2.42-4.17-3.64-6.25l-1.38.8-.2.1-.13-.2c-.27-.45-.54-.91-.8-1.38-.48.26-.94.55-1.43.8l-.18.1-.12-.18c-.31-.46-.57-.96-.85-1.44-1.01.58-2 1.17-3.02 1.74l-.2.12-.12-.2-.8-1.39c-1.59.82-3.1 1.77-4.65 2.65l-.2.11-.12-.2c-.3-.45-.58-.92-.85-1.4-1 .57-2 1.17-3.01 1.73l-.2.1-.12-.2c-1.23-2.09-2.42-4.2-3.64-6.3a105.86 105.86 0 0 0-1.4.8l-.2.13-.13-.22a15.4 15.4 0 0 0-.87-1.42c-1.05.62-2.1 1.24-3.17 1.85Z" fill="#FFFFFE"/>
    <path d="m460.71 56.53 1.6-.93 1.86 3.23 1.61-.95.95 1.65-1.62.94-.9-1.58-1.63.94-.94-1.64-.93-1.66Zm-6.57-11.45-.93-1.64 1.62-.94.94 1.65.93 1.63-1.6.94.94 1.64.93 1.63.94 1.64.92 1.62 1.88 3.28-1.6.96-1.89-3.28-.94-1.65-.92-1.62-.95-1.64-.93-1.64 1.6-.94-.94-1.64Zm7.81 2.32.95 1.65.92 1.62.94 1.65-1.62.94-.93-1.63-.94-1.65-.93-1.62-.94-1.64 1.62-.95.93 1.63Zm12.43-11.98-1.6.97-1.86-3.27-1.6.93-1.6.94-.94-1.63-1.61.94-1.6.93-1.62.94-1.6.94-3.24 1.87-.93-1.66 4.84-2.8 1.6-.93 1.61-.94 1.61-.94.94 1.63 1.6-.94 1.62-.94.93 1.62 1.6-.93.94 1.65.91 1.62 1.58-1.01 2.86 5.01.93 1.62.94 1.65.94 1.64-1.6.93.93 1.64-1.62.95-.94-1.65 1.6-.93-.93-1.64-.93-1.63-.94-1.65-2.82-4.93Zm-1.11 5.42.94 1.64.93 1.62.94 1.65-1.62.94-.93-1.63-.94-1.65-.93-1.62-.94-1.64 1.62-.95.93 1.64Zm-5.15-1.4 1.6-.93.95 1.65-1.62.94-.93-1.63-1.6.93-1.61.94-1.61.94-1.6.92.94 1.64-1.62.94-.94-1.65 1.6-.93-.93-1.64 1.62-.94 1.6-.93 1.6-.93 1.62-.95.93 1.64Zm-11.01-.46.95 1.63-1.62.95-1.61.94-.95-1.65 1.62-.94.26-.15 1.35-.78Z" fill="#FFF"/>
    <path d="M480.23 75.68c.5-.35 1.05-.63 1.58-.93.64 1.08 1.25 2.17 1.87 3.26.54-.32 1.08-.63 1.63-.92.63 1.08 1.23 2.18 1.87 3.26l12.9-7.5c-.62-1.1-1.26-2.18-1.87-3.28.54-.32 1.09-.65 1.66-.94 1.02 1.58 1.8 3.31 2.78 4.92-2.69 1.66-5.43 3.22-8.15 4.8-2.66 1.56-5.32 3.1-8 4.62-.96-1.62-1.88-3.27-2.84-4.89l-1.59.9c-.61-1.1-1.33-2.15-1.84-3.3Zm-9.52-5.38c.47-.38 1.02-.66 1.55-.95l.95 1.64 1.62-.93c.64 1.09 1.25 2.19 1.88 3.27a93.2 93.2 0 0 1 1.6-.92c.62 1.1 1.33 2.16 1.84 3.3-.5.36-1.04.63-1.57.93-.64-1.07-1.25-2.16-1.88-3.23l-1.62.9c-.64-1.07-1.2-2.19-1.91-3.2-.52.3-1.04.59-1.57.86-.31-.54-.7-1.06-.89-1.67Zm-4.49-3.96c1.6-.97 3.22-1.9 4.85-2.83.32.54.64 1.08.94 1.63-1.06.65-2.14 1.26-3.2 1.89.57 1.1 1.3 2.14 1.84 3.26-.5.38-1.07.66-1.62.96l-2.8-4.9Zm3.81-19.71a78.9 78.9 0 0 1 1.6-.94c1.26 2.18 2.49 4.36 3.76 6.53 1.08-.6 2.14-1.24 3.21-1.85.31.54.62 1.08.96 1.6 1.63-.9 3.2-1.9 4.86-2.76.3.54.6 1.07.92 1.6 1.08-.61 2.14-1.25 3.22-1.87.31.54.6 1.11.96 1.62.56-.26 1.08-.6 1.62-.9.3.54.6 1.07.92 1.6.54-.3 1.07-.6 1.6-.92 1.21 2.08 2.37 4.2 3.63 6.25.94 1.78 1.97 3.5 2.95 5.25-.53.3-1.06.61-1.55.99.92 1.62 1.85 3.24 2.76 4.87-.52.32-1.04.65-1.58.93-1-1.61-1.92-3.28-2.85-4.94.54-.3 1.07-.61 1.6-.93l-6.57-11.49-1.6.93c-.33-.51-.6-1.07-.95-1.57-.58.2-1.09.58-1.62.89.93 1.65 1.9 3.27 2.8 4.93l-1.57.93c-1.3-2.17-2.51-4.38-3.78-6.57l-3.24 1.89c.94 1.64 1.9 3.27 2.82 4.92-.53.33-1.06.64-1.6.94a454.79 454.79 0 0 1-3.75-6.58l-3.24 1.9c1.24 2.2 2.51 4.37 3.76 6.56-.53.33-1.07.64-1.62.94-2.82-4.91-5.63-9.83-8.43-14.75Zm-4.84 2.82c.53-.32 1.07-.63 1.59-.97l10.34 18.07c-.53.32-1.07.64-1.62.94a54.3 54.3 0 0 1-.93-1.62c-.55.3-1.08.61-1.62.92-.33-.54-.65-1.09-.94-1.65.52-.33 1.06-.64 1.6-.96-2.82-4.9-5.64-9.8-8.42-14.73Zm.67-2.6a389.1 389.1 0 0 0 3.17-1.86c.36.51.67 1.05.97 1.6-1.07.64-2.15 1.25-3.22 1.9l-.92-1.65Z" fill="#0E0D0B"/>
    <g>
      <path d="M71.97 100.45h100.4V6.05H71.97v94.4Zm30.33-81.7L83.92 89h22.06l2.88-11.14h26.52L138.26 89h22.16l-18.38-70.27H102.3Z" fill="#1D0927"/>
      <path d="M51.56 18.74H.5v70.27h21.85V72.95h29.21c17.78 0 29.5-12.15 29.5-27.1 0-14.96-11.72-27.1-29.5-27.1Zm0 34.83h-29.2V38.12h29.2a7.7 7.7 0 0 1 7.65 7.73 7.7 7.7 0 0 1-7.65 7.72Z" fill="#FF00B3"/>
      <path d="M167.5 89h21.95V72.96h12.41L211.3 89h25.33l-13.7-20.98a26.07 26.07 0 0 0 11.92-22.18c0-14.96-11.73-27.1-29.5-27.1h-37.86V89Zm21.95-35.43V38.12h15.9a7.7 7.7 0 0 1 7.64 7.73 7.7 7.7 0 0 1-7.65 7.72h-15.9ZM243.59 89.01h21.85V18.74h-21.85z" fill="#1D0927"/>
      <path d="M346.83 48.78h-39.34c-4.47 0-6.16-1.6-6.16-3.71s1.89-4.42 10.13-4.42h26.73c7.15 0 9.83 2.5 10.23 5.42h21.95c0-6.83-3.47-24.4-31.59-24.4h-27.32c-24.53.1-32.38 12.25-32.38 24.5 0 12.45 8.74 20.48 26.02 20.48h37.66c5.06 0 6.75 1.7 6.75 3.71 0 2.71-3.28 4.32-11.13 4.32h-26.62c-7.05 0-11.22-1.9-11.82-5.42h-21.96c0 9.43 4.57 25.1 32.39 25.1h28.01c23.35-.3 33.48-9.94 33.48-24.4 0-12.45-8.54-21.18-25.03-21.18Z" fill="#FF00B3"/>
      <path d="M342.73 44.64h-39.34c-4.47 0-6.16-1.6-6.16-3.71s1.89-4.42 10.13-4.42h26.73c7.15 0 9.83 2.5 10.23 5.42h21.95c0-6.83-3.47-24.4-31.59-24.4h-27.32c-24.53.1-32.38 12.25-32.38 24.5 0 12.45 8.74 20.48 26.03 20.48h37.65c5.06 0 6.75 1.7 6.75 3.71 0 2.71-3.28 4.32-11.12 4.32h-26.63c-7.05 0-11.22-1.9-11.82-5.42H273.9c0 9.43 4.57 25.1 32.38 25.1h28.02c23.34-.3 33.47-9.94 33.47-24.4 0-12.45-8.54-21.18-25.03-21.18Z" fill="#1D0927"/>
      <path fill="#FF00B3" d="m113.82 58.29 5.17-20.17h6.16l5.17 20.17zM254.52 1c9.69 0 17.55 7.95 17.55 17.74 0 9.8-7.86 17.74-17.55 17.74a17.66 17.66 0 0 1-17.56-17.74c0-9.79 7.87-17.74 17.56-17.74Z"/>
    </g>
    <g>
      <path d="M872.76 90.37h.3c22.35 0 36.43-15.49 36.43-35.72 0-20.14-14.08-35.73-36.43-35.73h-.3c-22.35 0-36.43 15.6-36.43 35.73 0 20.23 14.08 35.72 36.43 35.72Zm0-20.92c-8.86 0-14.38-5.92-14.38-14.8 0-8.79 5.52-14.8 14.38-14.8h.3c8.86 0 14.37 6.01 14.37 14.8 0 8.88-5.51 14.8-14.37 14.8h-.3ZM828.46 49.6l-53.77.8c-9.48.53-21.76 6.64-21.76 20.73v18.06h90.88A40.58 40.58 0 0 1 831 71.13H774.1c0-1.88 1.08-3.85 4.63-4.05l50.8-.91a51.81 51.81 0 0 1-1.07-16.57Zm86.67 21.53a40.56 40.56 0 0 1-12.8 18.06h133.79V71.13h-121Zm-14.41-52.21a40.56 40.56 0 0 1 14.24 18.85h48.34c5.9 0 7.58 2.27 7.58 4.94 0 2.66-2.37 4.63-5.81 4.83l-47.55.72a51.33 51.33 0 0 1-.57 16.34l53.93-.97c15.46-.99 22.05-8.88 22.05-21.12 0-12.14-8.17-23.59-29.63-23.59h-62.58Zm-55.3 0h-60.69c-26.88 0-30.33 18.26-30.33 24.97h21.77c.2-3.26 2.46-6.12 8.56-6.12h46.44a40.55 40.55 0 0 1 14.24-18.85Z" fill="#1D0927"/>
      <path d="M873.36 45.17a9.48 9.48 0 0 1 0 18.97 9.48 9.48 0 0 1 0-18.97Z" fill="#FF00B3"/>
      <path fill="#1D0927" d="m1025.88 19.61-11.03 3.95v18.95l11.03-3.95V88.7h23.3V19.61z"/>
      <path fill="#FF00B3" d="M1032.08 82.75h10.68V26.52h-10.68z"/>
    </g>
  </g>
</svg>
