<svg xmlns="http://www.w3.org/2000/svg" width="628" height="222" viewBox="0 0 628 222">
    <g fill="none" fill-rule="nonzero">
        <path fill="#EF5C2F" d="M299.234 11.224c-23.533 0-39.135 17.168-39.135 41.767 0 19.057 10.758 29.059 11.16 29.328.571.46 1.288.704 2.018.677 3.092 0 6.454-4.463 6.454-7.975 0-1.354-.54-2.3-2.017-1.894-.54-.407-7.127-7.975-7.127-20.95 0-14.328 5.92-30.544 28.245-30.544 17.884 0 25.55 15.004 25.55 33.252 0 27.027-11.97 47.845-22.193 47.845-5.379 0-7.529-3.924-7.529-11.351V38.26c0-3.243-3.092-5.945-7.533-5.945-1.884 0-3.499.942-3.499 2.295 0 .947.54 1.757.54 4.331v51.765c0 14.327 4.574 22.436 17.216 22.436 14.793 0 33.756-20.95 33.756-59.338 0-21.764-10.89-42.581-35.906-42.581M414.707 42.99h.035c4.481 0 8.166-3.685 8.166-8.166v-.076c0-4.728-3.499-8.245-8.201-8.245-4.437 0-8.069 3.517-8.069 8.245 0 4.46 3.628 8.242 8.069 8.242m63.208 0h.031c4.481 0 8.17-3.69 8.17-8.17v-.072c0-4.728-3.499-8.245-8.2-8.245-4.438 0-8.07 3.517-8.07 8.245 0 4.46 3.632 8.242 8.07 8.242"/>
        <path fill="#EF5C2F" d="M611.86 100.434c-3.8 0-9.368-2.508-13.973-4.689a57.67 57.67 0 0 0 1.6-5.047c.027-.093.04-.168.058-.252a4.92 4.92 0 0 0 .345-.965c1.752-6.49 3.097-11.085 5.251-16.354 4.702 4.866 9.679 10.542 9.679 19.057 0 3.388-1.477 6.494-2.96 8.25zM522.7 88.946c-3.097-4.052-5.114-9.727-5.114-15.81 0-4.189.81-6.357 2.287-6.357 2.83 0 3.229 6.76 3.229 15.947a50.61 50.61 0 0 1-.403 6.22zM347.326 84.62c-.27-5.676 1.748-20.548 8.339-20.548 1.751 0 2.826 1.756 2.826 4.73 0 8.112-4.304 15.14-11.028 18.246 0-.805-.137-1.614-.137-2.428zm40.887-55.149c0-2.159.536-5.405 2.017-5.405 2.15 0 3.632 4.056 3.632 12.978 0 7.432-2.826 25.277-5.649 30.952V29.471zm235.214 68.534c.403-1.486.668-3.242.668-4.87 0-12.837-8.201-17.703-14.522-28.921.132-.814 3.224-5.273 3.224-9.192 0-3.65-1.61-6.083-4.843-6.083-3.628 0-11.43 6.083-11.43 10.679 0 2.3.809 4.326 2.153 6.352-2.424 7.166-5.25 14.868-6.59 20.817l-.014.08c-.168.455-.3.929-.39 1.407a64.924 64.924 0 0 1-1.043 4.374 2.467 2.467 0 0 0-.438-.053c-2.128 0-4.605 3.712-3.37 8.162-1.147 1.296-2.513 2.114-4.159 2.114-3.5 0-3.5-5.003-3.5-6.215V62.325c0-3.243-2.826-5.95-7.263-5.95-1.884 0-4.304.54-4.304 1.487 0 .946 1.345 1.216 1.345 5.135v21.76c-1.61 9.466-5.644 18.247-11.028 18.247-3.901 0-6.184-3.92-6.184-11.218 0-11.351 1.482-17.3 3.902-27.302.535-2.026 4.436-7.436-2.15-7.436-7.127 0-6.184 2.702-7.127 5.003 0 0-4.476 14.867-4.821 28.748-1.593 2.756-4.207 4.636-7.958 4.636-.942 0-1.748 0-2.685-.27 1.344-4.596 1.88-9.599 1.88-14.602 0-13.107-5.11-22.706-11.43-22.706-7.264 0-10.896 7.299-10.896 15.814 0 9.732 3.366 18.655 9.683 24.056-1.752 3.11-4.167 5.135-7.936 5.135-5.246 0-9.678-5.675-9.678-17.03 0-13.382 4.034-18.38 6.184-21.627 3.494-2.3.81-9.466-2.69-9.466-2.96 0-13.717 12.032-13.717 31.898 0 1.831.11 3.627.34 5.366-1.41 5.277-3.822 10.855-8.144 10.855-3.494 0-3.494-5.003-3.494-6.215V62.312c0-3.243-2.827-5.95-7.264-5.95-1.884 0-3.499.947-3.499 2.3 0 .947.54 1.756.54 4.326v22.844c-1.615 8.24-6.458 17.03-16.947 17.03-7.935 0-13.717-5.95-13.717-16.623 0-12.165 4.707-22.171 9.683-22.171 4.574 0 4.844 5.003 5.516 7.299-.81 4.729 8.471 2.026 8.471-3.11 0-4.729-3.499-13.244-12.78-13.244-12.775 0-21.918 15.677-21.918 31.226 0 1.906.155 3.707.438 5.41-1.394 5.379-3.818 11.213-8.237 11.213-3.499 0-3.499-5.003-3.499-6.215v-34.33c0-3.243-2.826-5.95-7.263-5.95-1.885 0-3.5.946-3.5 2.3 0 .946.54 1.756.54 4.326V87.38a11.57 11.57 0 0 0-.27 1.022c-1.207 5.95-5.785 14.465-11.97 14.465-4.976 0-7.126-3.92-7.126-9.325v-7.834c1.747-1.624 13.987-28.926 13.987-48.796 0-7.57-.132-21.76-11.97-21.76-6.728 0-12.24 7.162-12.24 17.3v53.389c-1.614 8.24-5.914 17.03-16.407 17.03-6.993 0-10.625-3.782-12.51-8.382 13.045-3.92 19.906-15.815 19.906-25.816 0-8.109-4.574-13.651-12.102-13.651-10.356 0-20.579 12.837-20.579 30.005 0 16.893 11.568 26.762 23.803 26.762 9.507 0 15.677-3.782 19.636-8.626 2.38 5.38 7.153 8.626 14.12 8.626 6.202 0 10.953-3.512 14.448-7.918 1.486 4.596 5.18 7.918 10.568 7.918 6.91 0 11.567-4.344 14.708-9.745 4.388 6.401 11.453 9.745 18.778 9.745 8.971 0 15.084-3.375 19.18-7.83 1.51 4.552 5.19 7.83 10.542 7.83 6.498 0 10.997-3.835 14.124-8.78 3.168 5.325 8.33 8.78 15.73 8.78 7.662 0 12.78-3.92 16.138-9.732 2.017.677 4.167.947 6.586.947 3.088 0 5.755-.703 8.007-1.907 2 6.746 6.556 10.825 13.111 10.825 5.92 0 10.223-4.052 13.448-9.727.942 5.405 4.977 9.594 11.028 9.594 4.592 0 8.188-1.924 11.006-4.795 3.083 2.345 8.732 4.795 13.74 4.795 5.511 0 9.948-2.026 13.177-4.866 8.36-.54 11.586-10.271 5.264-8.918z"/>
        <path fill="#2F2614" d="M269.048 137.211h13.527v68.791h-13.527v-68.79zm42.935 0l16.885 41.511.181-.181c-.818-3.287-1.092-6.844-1.092-10.404V137.21h13.527v68.791h-12.802l-16.703-41.515-.182.186.637 6.932.093 2.826v31.571h-13.523v-68.79h12.98zm73.984 15.51c-2.725-2.372-6.082-4.38-9.802-4.38-4.176 0-6.808 2.552-6.808 6.75 0 11.316 20.605 11.953 20.605 30.563 0 12.227-6.99 21.44-19.699 21.44-3.813 0-8.533-1.185-11.616-3.463v-12.956c3.176 2.185 6.264 3.645 10.258 3.645 4.358 0 7.808-2.92 7.808-7.48 0-5.287-4.176-7.295-7.989-10.038-7.808-5.29-12.62-10.4-12.62-20.432 0-10.856 6.263-20.256 17.88-20.256 4.357 0 8.258 1.19 11.983 3.38v13.226zm18.61-15.51h13.527v68.791h-13.527v-68.79zm73.896 30.47v5.379c0 14.602-3.544 34.03-21.972 34.03-18.429 0-24.418-19.888-24.418-35.123 0-15.876 5.082-35.853 24.418-35.853 10.44 0 17.247 6.57 20.154 16.328l-13.165 5.109c-.637-3.464-1.725-8.847-6.9-8.847-9.166-.549-10.073 16.42-10.073 22.9 0 7.114.455 22.901 10.435 22.901 6.9 0 7.993-9.307 7.993-14.053h-8.626V167.68h22.154zm27.505-30.47v26.913h13.704v-26.913h13.528v68.791h-13.528v-29.111h-13.704v29.111h-13.527v-68.79h13.527zm75.073 0v12.771h-10.714v56.02h-13.523v-56.02h-10.626v-12.77h34.863zm41.121 15.51c-2.72-2.372-6.082-4.38-9.807-4.38-4.171 0-6.808 2.552-6.808 6.75 0 11.316 20.605 11.953 20.605 30.563 0 12.227-6.99 21.44-19.694 21.44-3.813 0-8.537-1.185-11.62-3.463v-12.956c3.176 2.185 6.263 3.645 10.253 3.645 4.358 0 7.812-2.92 7.812-7.48 0-5.287-4.175-7.295-7.993-10.038-7.808-5.29-12.62-10.4-12.62-20.432 0-10.856 6.263-20.256 17.884-20.256 4.357 0 8.259 1.19 11.984 3.38v13.226h.004z"/>
        <g>
            <path fill="#F59D44" d="M100.536 5.626C63.296-8.031 22.093 11.242 8.507 48.667a72.36 72.36 0 0 0 5.325 60.888C29.801 81.808 62.536 67.75 93.834 75.886a71.848 71.848 0 0 1 45.785-35.753 71.602 71.602 0 0 0-39.083-34.507M139.63 40.14l-.003-.007h-.004l.007.01v-.003"/>
            <path fill="#F6B361" d="M181.617 42.355a71.074 71.074 0 0 0-41.99-2.222 72.299 72.299 0 0 1 3.741 57.984 72.924 72.924 0 0 1-5.328 11.467 72.347 72.347 0 0 1 5.328 60.887 73.282 73.282 0 0 1-4.246 9.515c35.356 9.194 72.554-9.944 85.327-45.136 13.586-37.43-5.591-78.837-42.832-92.495"/>
            <path fill="#A76130" d="M138.04 109.58a71.86 71.86 0 0 1-44.707 33.8 71.672 71.672 0 0 0 45.79 36.598 73.712 73.712 0 0 0 4.245-9.514 72.34 72.34 0 0 0-5.328-60.884"/>
            <path fill="#EF5C2F" d="M132.42 177.891a71.647 71.647 0 0 1-39.087-34.507h.007c-13.44 3.39-28 2.911-42-2.222a71.63 71.63 0 0 1-37.504-31.603 72.589 72.589 0 0 0-5.325 11.467c-13.587 37.425 5.591 78.837 42.828 92.487 33.939 12.446 71.162-2.46 87.783-33.527a72.175 72.175 0 0 1-6.702-2.095"/>
            <path fill="#A76130" d="M138.04 109.58a72.924 72.924 0 0 0 5.328-11.467 72.299 72.299 0 0 0-3.741-57.984 71.855 71.855 0 0 0-45.79 35.753 71.63 71.63 0 0 1 44.203 33.698"/>
            <path fill="#FFF" d="M55.993 76.45a71.841 71.841 0 0 0-42.157 33.105 71.614 71.614 0 0 0 41.753 33.002 106.974 106.974 0 0 1 .404-66.107"/>
            <path fill="#3AB3CC" d="M85.232 109.491c-5.293-.625-9.323-5.169-9.312-10.5v-.019c0-5.79 4.764-10.55 10.55-10.55.686 0 1.371.067 2.042.198a72.858 72.858 0 0 1 5.325-12.734 71.038 71.038 0 0 0-37.844.56 106.993 106.993 0 0 0-.4 66.122 71.067 71.067 0 0 0 37.733.809 72.48 72.48 0 0 1-8.094-33.886"/>
            <path fill="#2F2614" d="M100.536 77.977a73.517 73.517 0 0 0-6.699-2.091 73.246 73.246 0 0 0-5.325 12.734c4.91 1.001 8.464 5.36 8.453 10.37v.021c0 5.787-4.76 10.548-10.547 10.548-.398 0-.792-.022-1.186-.068a72.459 72.459 0 0 0 8.101 33.89 71.86 71.86 0 0 0 44.707-33.801 71.586 71.586 0 0 0-37.504-31.603"/>
            <path fill="#FFF" d="M96.965 98.99v.028c0 5.776-4.747 10.534-10.523 10.548-5.776-.014-10.522-4.772-10.522-10.548v-.028c-.014-5.787 4.736-10.561 10.522-10.576 5.787.015 10.537 4.79 10.523 10.576"/>
        </g>
    </g>
</svg>
