<svg xmlns="http://www.w3.org/2000/svg" xmlns:xlink="http://www.w3.org/1999/xlink" width="83" height="110" viewBox="0 0 83 110"><defs><path id="a" d="M0 0h83v110H0z"/></defs><clipPath id="b"><use xlink:href="#a" overflow="visible"/></clipPath><path clip-path="url(#b)" fill="#EF5C2F" d="M8.904 65.611c-5.32 0-8.847 3.881-8.847 9.442 0 4.308 2.432 6.569 2.523 6.63a.686.686 0 0 0 .456.153c.699 0 1.459-1.009 1.459-1.803 0-.306-.122-.52-.456-.428-.122-.092-1.611-1.803-1.611-4.736 0-3.239 1.338-6.905 6.385-6.905 4.043 0 5.776 3.392 5.776 7.517 0 6.11-2.706 10.816-5.017 10.816-1.216 0-1.702-.887-1.702-2.566V71.723c0-.733-.699-1.344-1.703-1.344-.426 0-.791.213-.791.519 0 .214.122.397.122.979v11.702c0 3.239 1.034 5.072 3.892 5.072 3.344 0 7.631-4.736 7.631-13.414 0-4.92-2.462-9.626-8.117-9.626m26.104 7.181a1.846 1.846 0 0 0 1.854-1.863c0-1.069-.791-1.864-1.854-1.864-1.003 0-1.824.795-1.824 1.864 0 1.008.82 1.863 1.824 1.863m14.289 0a1.847 1.847 0 0 0 1.854-1.863c0-1.069-.791-1.864-1.854-1.864-1.003 0-1.824.795-1.824 1.864 0 1.008.821 1.863 1.824 1.863"/><path clip-path="url(#b)" fill="#EF5C2F" d="M79.577 85.778c-.859 0-2.118-.567-3.159-1.06.145-.391.264-.777.362-1.141.006-.021.009-.038.013-.057.031-.064.058-.137.078-.218.396-1.467.7-2.506 1.187-3.697 1.063 1.1 2.188 2.383 2.188 4.308 0 .766-.334 1.468-.669 1.865m-20.156-2.597c-.7-.916-1.156-2.199-1.156-3.574 0-.947.183-1.437.517-1.437.64 0 .73 1.528.73 3.605 0 .458-.031.917-.091 1.406zm-39.645-.978c-.061-1.283.395-4.645 1.885-4.645.396 0 .639.397.639 1.069 0 1.834-.973 3.423-2.493 4.125 0-.182-.031-.365-.031-.549zm9.243-12.467c0-.488.121-1.222.456-1.222.486 0 .821.917.821 2.934 0 1.68-.639 5.714-1.277 6.997v-8.709zm53.173 15.493c.091-.336.151-.733.151-1.101 0-2.902-1.854-4.002-3.283-6.538.03-.184.729-1.192.729-2.078 0-.825-.364-1.375-1.095-1.375-.82 0-2.584 1.375-2.584 2.414 0 .52.183.978.487 1.436-.548 1.62-1.187 3.361-1.49 4.706l-.003.018a1.99 1.99 0 0 0-.088.318c-.063.308-.141.648-.236.989a.552.552 0 0 0-.099-.012c-.481 0-1.041.839-.762 1.845-.259.293-.568.478-.94.478-.791 0-.791-1.131-.791-1.405v-7.761c0-.733-.639-1.345-1.642-1.345-.426 0-.973.122-.973.336s.304.275.304 1.161v4.919c-.364 2.14-1.276 4.125-2.493 4.125-.882 0-1.398-.886-1.398-2.536 0-2.566.335-3.911.882-6.172.121-.458 1.003-1.681-.486-1.681-1.611 0-1.398.611-1.611 1.131 0 0-1.012 3.361-1.09 6.499-.36.623-.951 1.048-1.799 1.048-.213 0-.395 0-.607-.061.304-1.039.425-2.17.425-3.301 0-2.963-1.155-5.133-2.584-5.133-1.642 0-2.463 1.65-2.463 3.575 0 2.2.761 4.217 2.189 5.438-.396.703-.942 1.161-1.794 1.161-1.186 0-2.188-1.283-2.188-3.85 0-3.025.912-4.155 1.398-4.889.79-.52.183-2.14-.608-2.14-.669 0-3.101 2.72-3.101 7.211 0 .414.025.82.077 1.213-.319 1.193-.864 2.454-1.841 2.454-.79 0-.79-1.131-.79-1.405V77.16c0-.733-.639-1.345-1.642-1.345-.426 0-.791.214-.791.52 0 .214.122.397.122.978v5.164c-.365 1.863-1.46 3.85-3.831 3.85-1.794 0-3.101-1.345-3.101-3.758 0-2.75 1.064-5.012 2.189-5.012 1.034 0 1.095 1.131 1.247 1.65-.183 1.069 1.915.458 1.915-.703 0-1.069-.791-2.994-2.889-2.994-2.888 0-4.955 3.544-4.955 7.059 0 .431.035.838.099 1.223-.315 1.216-.863 2.535-1.862 2.535-.791 0-.791-1.131-.791-1.405v-7.761c0-.733-.639-1.345-1.642-1.345-.426 0-.791.214-.791.52 0 .214.122.397.122.978v5.513a2.554 2.554 0 0 0-.061.231c-.273 1.345-1.308 3.27-2.706 3.27-1.125 0-1.611-.886-1.611-2.108v-1.771c.395-.367 3.162-6.539 3.162-11.031 0-1.711-.03-4.919-2.706-4.919-1.521 0-2.767 1.619-2.767 3.911v12.069c-.365 1.863-1.337 3.85-3.709 3.85-1.581 0-2.402-.855-2.828-1.895 2.949-.886 4.5-3.575 4.5-5.836 0-1.833-1.034-3.086-2.736-3.086-2.341 0-4.652 2.902-4.652 6.783 0 3.819 2.615 6.05 5.381 6.05 2.149 0 3.544-.855 4.439-1.95.538 1.216 1.617 1.95 3.192 1.95 1.402 0 2.476-.794 3.266-1.79.336 1.039 1.171 1.79 2.389 1.79 1.562 0 2.615-.982 3.325-2.203.992 1.447 2.589 2.203 4.245 2.203 2.028 0 3.41-.763 4.336-1.77.341 1.029 1.173 1.77 2.383 1.77 1.469 0 2.486-.867 3.193-1.985.716 1.204 1.883 1.985 3.556 1.985 1.732 0 2.889-.886 3.648-2.2.456.153.942.214 1.489.214.698 0 1.301-.159 1.81-.431.452 1.525 1.482 2.447 2.964 2.447 1.338 0 2.311-.916 3.04-2.199.213 1.222 1.125 2.169 2.493 2.169 1.038 0 1.851-.435 2.488-1.084.697.53 1.974 1.084 3.106 1.084 1.246 0 2.249-.458 2.979-1.1 1.89-.122 2.619-2.322 1.19-2.016z"/><path clip-path="url(#b)" fill="#2F2614" d="M2.08 94.092h3.058v15.551H2.08zm9.706 0l3.817 9.384.041-.041c-.185-.743-.247-1.547-.247-2.352v-6.991h3.058v15.551h-2.894l-3.776-9.385-.041.042.144 1.567.021.639v7.137H8.852V94.092h2.934m16.725 3.506c-.616-.536-1.375-.99-2.216-.99-.944 0-1.539.577-1.539 1.526 0 2.558 4.658 2.702 4.658 6.909 0 2.764-1.58 4.847-4.453 4.847-.862 0-1.929-.268-2.626-.783v-2.929c.718.494 1.416.824 2.319.824.985 0 1.765-.66 1.765-1.691 0-1.195-.944-1.649-1.806-2.269-1.765-1.196-2.853-2.351-2.853-4.619 0-2.454 1.416-4.579 4.042-4.579.985 0 1.867.269 2.709.764v2.99m4.207-3.506h3.058v15.551h-3.058zm16.705 6.888v1.216c0 3.301-.801 7.693-4.967 7.693-4.166 0-5.52-4.496-5.52-7.94 0-3.589 1.149-8.105 5.52-8.105 2.36 0 3.899 1.485 4.556 3.691l-2.976 1.155c-.144-.783-.39-2-1.56-2-2.072-.124-2.277 3.712-2.277 5.177 0 1.608.103 5.177 2.359 5.177 1.56 0 1.807-2.104 1.807-3.177h-1.95v-2.887h5.008m6.218-6.888v6.084h3.098v-6.084h3.058v15.551h-3.058v-6.581h-3.098v6.581h-3.058V94.092h3.058m16.971 0v2.887H70.19v12.664h-3.057V96.979h-2.402v-2.887h7.881m9.296 3.506c-.615-.536-1.375-.99-2.217-.99-.943 0-1.539.577-1.539 1.526 0 2.558 4.658 2.702 4.658 6.909 0 2.764-1.58 4.847-4.452 4.847-.862 0-1.93-.268-2.627-.783v-2.929c.718.494 1.416.824 2.318.824.985 0 1.766-.66 1.766-1.691 0-1.195-.944-1.649-1.807-2.269-1.765-1.196-2.853-2.351-2.853-4.619 0-2.454 1.416-4.579 4.043-4.579.985 0 1.867.269 2.709.764v2.99"/><path clip-path="url(#b)" fill="#F59D44" d="M40.995 1.347C30.505-2.5 18.899 2.929 15.072 13.471a20.369 20.369 0 0 0 1.5 17.151c4.498-7.816 13.719-11.776 22.535-9.484a20.23 20.23 0 0 1 12.897-10.071 20.163 20.163 0 0 0-11.009-9.72m11.012 9.722l-.001-.002h-.001l.002.003v-.001"/><path clip-path="url(#b)" fill="#F6B361" d="M63.834 11.693a20.022 20.022 0 0 0-11.828-.626A20.356 20.356 0 0 1 53.06 27.4a20.522 20.522 0 0 1-1.501 3.23 20.365 20.365 0 0 1 1.501 17.151c-.34.935-.741 1.829-1.196 2.68 9.959 2.59 20.437-2.801 24.035-12.714 3.827-10.543-1.575-22.207-12.065-26.054"/><path clip-path="url(#b)" fill="#A76130" d="M51.559 30.629a20.237 20.237 0 0 1-12.593 9.521 20.176 20.176 0 0 0 12.898 10.309c.455-.852.856-1.746 1.196-2.68a20.367 20.367 0 0 0-1.501-17.15"/><path clip-path="url(#b)" fill="#EF5C2F" d="M49.976 49.871a20.176 20.176 0 0 1-11.01-9.72h.002c-3.786.955-7.887.82-11.831-.626a20.17 20.17 0 0 1-10.564-8.902 20.519 20.519 0 0 0-1.5 3.23c-3.827 10.542 1.575 22.207 12.064 26.052 9.56 3.506 20.045-.693 24.727-9.444a20.349 20.349 0 0 1-1.888-.59"/><path clip-path="url(#b)" fill="#A76130" d="M51.559 30.629a20.522 20.522 0 0 0 1.501-3.23 20.356 20.356 0 0 0-1.054-16.333 20.231 20.231 0 0 0-12.898 10.071 20.168 20.168 0 0 1 12.451 9.492"/><path clip-path="url(#b)" fill="#FFF" d="M28.448 21.297a20.234 20.234 0 0 0-11.875 9.325 20.166 20.166 0 0 0 11.761 9.296 30.129 30.129 0 0 1 .114-18.621"/><path clip-path="url(#b)" fill="#3AB3CC" d="M36.684 30.604a2.972 2.972 0 0 1-2.623-2.958 2.972 2.972 0 0 1 3.547-2.921 20.508 20.508 0 0 1 1.5-3.587 20.01 20.01 0 0 0-10.66.158 30.134 30.134 0 0 0-.113 18.625 20.019 20.019 0 0 0 10.629.228 20.416 20.416 0 0 1-2.28-9.545"/><path clip-path="url(#b)" fill="#2F2614" d="M40.995 21.727a20.726 20.726 0 0 0-1.887-.589 20.628 20.628 0 0 0-1.5 3.587 2.975 2.975 0 0 1 2.381 2.921 2.971 2.971 0 0 1-3.305 2.958 20.41 20.41 0 0 0 2.282 9.546 20.237 20.237 0 0 0 12.593-9.521 20.162 20.162 0 0 0-10.564-8.902"/><path clip-path="url(#b)" fill="#FFF" d="M39.989 27.646a2.971 2.971 0 0 1-2.964 2.979 2.971 2.971 0 0 1-2.964-2.979 2.972 2.972 0 0 1 2.964-2.979 2.972 2.972 0 0 1 2.964 2.979"/></svg>