<svg xmlns="http://www.w3.org/2000/svg" width="204" height="38" viewBox="0 0 204 38">
    <g fill="none" fill-rule="nonzero">
        <path fill="#221F20" d="M53.988 13.32c-.78.56-1.41 1.3-1.839 2.157h-.084l-.127-2.51h-1.082V26.88h1.273v-7.667a6.135 6.135 0 0 1 1.139-3.813 3.526 3.526 0 0 1 2.93-1.51c.612-.002 1.22.07 1.813.217l.245-1.217a10.993 10.993 0 0 0-1.903-.18 4.324 4.324 0 0 0-2.365.61zm12.387-.62a5.445 5.445 0 0 0-4.438 2c-1.099 1.333-1.648 3.111-1.648 5.333 0 2.223.568 3.968 1.705 5.237 1.137 1.247 2.721 1.87 4.753 1.87.741.005 1.481-.057 2.211-.187.753-.15 1.487-.383 2.187-.696v-1.154c-.74.31-1.508.55-2.294.717a11.78 11.78 0 0 1-2.104.167c-1.637 0-2.895-.504-3.775-1.51-.88-1.007-1.326-2.466-1.34-4.377h10.073v-1.033c0-1.963-.476-3.518-1.427-4.667-.951-1.149-2.252-1.716-3.903-1.7zm-4.67 6.273c.137-1.664.613-2.937 1.428-3.82a4.2 4.2 0 0 1 3.242-1.333c1.14-.05 2.23.46 2.921 1.363.704.91 1.056 2.17 1.056 3.784h-8.643l-.003.006zm23.576-7.003c0 1.033.026 2.087.077 3.16h-.077a5.211 5.211 0 0 0-1.98-1.88 5.83 5.83 0 0 0-2.622-.55c-1.93 0-3.4.636-4.412 1.907-1.011 1.27-1.517 3.11-1.517 5.516 0 2.287.51 4.028 1.53 5.224 1.021 1.195 2.496 1.793 4.426 1.793a5.183 5.183 0 0 0 4.579-2.38h.104l.335 2.123h.837V6.967h-1.26v5l-.02.003zm0 8.153c0 2.1-.368 3.606-1.105 4.517-.737.911-1.895 1.368-3.474 1.37-3.08 0-4.619-1.971-4.619-5.913 0-2.031.384-3.58 1.152-4.647.768-1.067 1.915-1.6 3.44-1.6 1.622 0 2.794.471 3.518 1.413.723.943 1.085 2.49 1.085 4.64v.217l.003.003zm6.586-12.25c-.54 0-.81.41-.81 1.23 0 .82.27 1.234.81 1.24.252.007.49-.12.623-.333.164-.274.242-.591.224-.91a1.564 1.564 0 0 0-.224-.91.721.721 0 0 0-.623-.317zm-.63 5.097h1.273v13.913h-1.273V12.97zm9.095.35c-.78.56-1.411 1.3-1.84 2.157h-.09l-.127-2.51h-1.082V26.88h1.273v-7.667a6.135 6.135 0 0 1 1.146-3.813 3.526 3.526 0 0 1 2.93-1.51c.611-.002 1.22.07 1.813.217l.244-1.217a10.993 10.993 0 0 0-1.902-.18 4.324 4.324 0 0 0-2.365.61zm12.387-.62a5.445 5.445 0 0 0-4.438 2c-1.099 1.333-1.648 3.111-1.648 5.333 0 2.223.57 3.968 1.708 5.237 1.137 1.247 2.721 1.87 4.753 1.87.742.005 1.482-.057 2.211-.187.753-.15 1.487-.383 2.188-.696v-1.154c-.74.31-1.51.55-2.295.717a11.78 11.78 0 0 1-2.104.167c-1.637 0-2.895-.504-3.775-1.51-.88-1.007-1.326-2.466-1.34-4.377h10.076v-1.033c0-1.963-.475-3.518-1.427-4.667-.951-1.149-2.254-1.716-3.909-1.7zm-4.67 6.273c.137-1.664.613-2.937 1.428-3.82a4.2 4.2 0 0 1 3.242-1.333c1.14-.05 2.23.46 2.921 1.363.704.91 1.055 2.17 1.055 3.784h-8.642l-.003.006zm19.603-5.12c1.076.033 2.14.236 3.153.6l.335-1.126a9.757 9.757 0 0 0-3.474-.627c-2.041 0-3.65.642-4.824 1.927-1.174 1.284-1.762 3.079-1.762 5.383 0 2.244.566 3.993 1.699 5.247 1.132 1.253 2.695 1.88 4.69 1.88a8.05 8.05 0 0 0 3.51-.667v-1.177a9.13 9.13 0 0 1-3.538.667c-1.585 0-2.82-.531-3.704-1.593-.885-1.063-1.331-2.533-1.34-4.41 0-1.98.446-3.497 1.34-4.55.893-1.054 2.198-1.571 3.915-1.554zm8.683 11.39c-.377-.51-.566-1.3-.566-2.366v-8.81h4.103v-1.1h-4.103V9.603h-.67l-.63 3.147-2.07.577v.74h2.07v9c0 1.409.294 2.44.881 3.096.587.656 1.499.99 2.734 1a6.78 6.78 0 0 0 2.133-.306v-1.024a9.596 9.596 0 0 1-2.11.204 2.058 2.058 0 0 1-1.772-.794zm6.907-12.273h1.273v13.913h-1.273V12.97zm.63-5.097c-.54 0-.81.41-.81 1.23 0 .82.27 1.234.81 1.24.252.007.49-.12.623-.333.164-.274.242-.591.224-.91a1.564 1.564 0 0 0-.224-.91.721.721 0 0 0-.623-.317zm10.73 4.827c-1.93 0-3.448.633-4.553 1.9-1.106 1.267-1.664 3.036-1.675 5.307a9.18 9.18 0 0 0 .76 3.826 5.674 5.674 0 0 0 2.148 2.534c.972.6 2.098.906 3.242.883 1.947 0 3.474-.638 4.58-1.913 1.105-1.276 1.663-3.054 1.674-5.334 0-2.235-.547-3.995-1.641-5.28-1.095-1.284-2.606-1.925-4.536-1.923zm3.557 11.667c-.845 1.07-2.038 1.606-3.581 1.606-1.543 0-2.737-.535-3.581-1.606-.844-1.071-1.266-2.563-1.266-4.474 0-1.91.417-3.402 1.252-4.473.836-1.053 2.026-1.58 3.571-1.58 1.546 0 2.744.529 3.595 1.587.853 1.057 1.28 2.546 1.28 4.466 0 1.92-.425 3.416-1.274 4.487l.004-.013zM170.884 12.7c-2.324 0-3.941.726-4.85 2.177h-.077l-.245-1.907h-1.095v13.913h1.273v-7.666c0-1.887.388-3.25 1.166-4.09.777-.84 2.005-1.26 3.684-1.26 1.244 0 2.162.317 2.754.953.592.636.887 1.653.887 3.053v9.024h1.26V17.78c.002-3.387-1.583-5.08-4.757-5.08zm10.06 11.93c-.686 0-1.029.418-1.029 1.253 0 .836.343 1.254 1.029 1.254.703 0 1.055-.418 1.055-1.254 0-.835-.352-1.253-1.055-1.253zm6.116-16.757c-.54 0-.81.41-.81 1.23 0 .82.27 1.235.81 1.244.253.006.49-.12.623-.334.164-.274.242-.59.225-.91a1.564 1.564 0 0 0-.225-.91.721.721 0 0 0-.623-.32zm-.626 5.097h1.273v13.913h-1.273V12.97zm15.881 1.657c-1.094-1.285-2.602-1.927-4.522-1.927-1.92 0-3.438.633-4.552 1.9-1.117 1.267-1.675 3.036-1.675 5.307a9.18 9.18 0 0 0 .76 3.826 5.674 5.674 0 0 0 2.147 2.534c.973.6 2.099.906 3.243.883 1.947 0 3.474-.638 4.579-1.913 1.105-1.276 1.664-3.054 1.675-5.334-.011-2.233-.563-3.992-1.655-5.276zm-.965 9.753c-.844 1.071-2.037 1.607-3.58 1.607-1.544 0-2.737-.536-3.581-1.607-.845-1.071-1.267-2.562-1.267-4.473s.418-3.403 1.253-4.474c.835-1.053 2.026-1.58 3.571-1.58 1.545 0 2.743.53 3.594 1.587.853 1.058 1.28 2.547 1.28 4.467 0 1.92-.423 3.41-1.27 4.473z"/>
        <ellipse cx="19.05" cy="18.957" fill="#03A9F4" rx="19.05" ry="18.957"/>
        <path fill="#FFF" d="M29.052 23.33a1.188 1.188 0 0 0-1.996.52c-.109.413.014.85.322 1.147l.14.14c-2.499-.46-4.823-2.03-6.666-4.53l-1.062-1.44 1.062-1.44c1.846-2.5 4.17-4.07 6.666-4.53l-.14.14a1.175 1.175 0 0 0 .013 1.653 1.189 1.189 0 0 0 1.661.013l2.298-2.286a1.17 1.17 0 0 0 0-1.667l-2.298-2.287a1.189 1.189 0 0 0-1.661.014 1.175 1.175 0 0 0-.013 1.653l.368.367c-3.32.416-6.468 2.386-8.8 5.55l-.623.846-.623-.846c-2.633-3.614-6.324-5.654-10.12-5.654-.599.064-1.053.567-1.053 1.167 0 .6.454 1.103 1.053 1.167 3.082 0 6 1.666 8.224 4.666l1.062 1.44-1.062 1.44c-2.224 3-5.142 4.667-8.224 4.667-.599.064-1.053.567-1.053 1.167 0 .6.454 1.102 1.053 1.166 3.796 0 7.487-2.053 10.127-5.633l.623-.847.623.847c2.345 3.16 5.48 5.13 8.8 5.55l-.369.367a1.175 1.175 0 0 0 .524 1.987c.413.108.854-.015 1.151-.32l2.298-2.287a1.17 1.17 0 0 0 0-1.667l-2.305-2.24z"/>
    </g>
</svg>
