<svg
  xmlns="http://www.w3.org/2000/svg" viewBox="0 0 221.6 41.6" width="222" height="42" class="c-logo__svg">
  <title>redirection.io logo</title>
  <desc>Manage your http redirections</desc>
  <path d="M58.7 14.6c-.7.4-1.4 1.2-2 2.4h-.1l-.1-2.7h-1.2v15.2h1.4v-8.4c0-1.7.4-3.1 1.2-4.2.8-1.1 1.9-1.6 3.2-1.6.7 0 1.3.1 2 .3l.3-1.3c-.7-.1-1.4-.2-2.1-.2-1.1-.2-1.9.1-2.6.5zm13.4-.7c-2 0-3.6.7-4.8 2.2-1.2 1.5-1.8 3.4-1.8 5.8s.6 4.4 1.9 5.7c1.2 1.4 2.9 2 5.2 2 .9 0 1.7-.1 2.4-.2s1.5-.4 2.4-.8v-1.3c-1 .4-1.8.7-2.5.8-.7.1-1.4.2-2.3.2-1.8 0-3.1-.5-4.1-1.6-1-1-1.5-2.6-1.5-4.7h11v-1.1c0-2.2-.5-3.8-1.6-5.1-1.1-1.3-2.5-1.9-4.3-1.9zm-5 6.9c.1-1.8.7-3.2 1.6-4.2.9-.9 2.1-1.5 3.5-1.5 1.3 0 2.4.5 3.2 1.5.8 1 1.1 2.4 1.1 4.1l-9.4.1zm25.6-7.7c0 1.1 0 2.3.1 3.5h-.1c-.6-1-1.3-1.6-2.1-2s-1.8-.6-2.9-.6c-2.1 0-3.7.7-4.8 2.1-1.1 1.4-1.6 3.4-1.6 6 0 2.5.5 4.4 1.7 5.7 1.1 1.3 2.7 2 4.8 2 2.1 0 3.8-.9 5-2.6h.1l.4 2.3h.9V7.6h-1.4l-.1 5.5zm0 9c0 2.3-.4 3.9-1.2 5-.8 1-2.1 1.5-3.8 1.5-3.3 0-5-2.2-5-6.5 0-2.2.4-3.9 1.2-5.1.8-1.2 2.1-1.8 3.7-1.8 1.7 0 3 .5 3.8 1.5.8 1 1.2 2.7 1.2 5.1l.1.3zm7.1-13.4c-.6 0-.8.4-.8 1.3s.3 1.4.9 1.4c.3 0 .5-.1.7-.4s.3-.6.3-1-.1-.8-.3-1c-.3-.2-.5-.3-.8-.3z"></path>
  <path d="M99.1 14.2H100.5V29.4H99.1z"></path>
  <path d="M109 14.6c-.7.4-1.4 1.2-2 2.4h-.1l-.1-2.7h-1.2v15.2h1.4v-8.4c0-1.7.4-3.1 1.2-4.2.8-1.1 1.9-1.6 3.2-1.6.7 0 1.3.1 2 .3l.3-1.3c-.7-.1-1.4-.2-2.1-.2-1-.2-1.9.1-2.6.5zm13.5-.7c-2 0-3.6.7-4.8 2.2-1.2 1.5-1.8 3.4-1.8 5.8s.6 4.4 1.9 5.7c1.2 1.4 2.9 2 5.2 2 .9 0 1.7-.1 2.4-.2s1.5-.4 2.4-.8v-1.3c-1 .4-1.8.7-2.5.8-.7.1-1.4.2-2.3.2-1.8 0-3.1-.5-4.1-1.6s-1.5-2.7-1.5-4.8h11v-1.1c0-2.2-.5-3.8-1.6-5.1-1.1-1.1-2.5-1.8-4.3-1.8zm-5.1 6.9c.1-1.8.7-3.2 1.6-4.2.9-.9 2.1-1.5 3.5-1.5 1.3 0 2.4.5 3.2 1.5.8 1 1.1 2.4 1.1 4.1l-9.4.1zm21.3-5.6c1 0 2.1.2 3.4.7l.4-1.2c-1.2-.5-2.5-.7-3.8-.7-2.2 0-4 .7-5.2 2.1-1.3 1.4-1.9 3.4-1.9 5.9 0 2.4.6 4.4 1.9 5.7 1.2 1.4 2.9 2 5.1 2 1.6 0 2.8-.3 3.8-.7v-1.3c-1.2.5-2.5.7-3.9.7-1.7 0-3.1-.6-4-1.8-.9-1.2-1.5-2.8-1.5-4.8 0-2.2.5-3.8 1.5-5 .9-1 2.3-1.6 4.2-1.6zm9.5 12.5c-.4-.5-.6-1.4-.6-2.6v-9.6h4.4v-1.2h-4.4v-3.7h-.7l-.7 3.4-2.3.6v.8h2.3v9.9c0 1.5.3 2.7.9 3.4.7.7 1.6 1.1 3 1.1.9 0 1.6-.1 2.3-.3v-1.1c-.7.1-1.4.2-2.3.2s-1.5-.4-1.9-.9z"></path>
  <path d="M155.7 14.2H157.1V29.4H155.7z"></path>
  <path d="M156.3 8.7c-.6 0-.9.4-.9 1.4s.3 1.4.9 1.4c.3 0 .5-.1.7-.4.1-.3.3-.6.3-1s-.1-.8-.3-1c-.1-.3-.4-.4-.7-.4zm11.7 5.2c-2.1 0-3.7.7-4.9 2.1-1.2 1.4-1.8 3.3-1.8 5.8 0 1.6.3 3 .8 4.2.5 1.2 1.3 2.1 2.3 2.8 1 .7 2.2.9 3.5.9 2.1 0 3.8-.7 5-2.1 1.2-1.4 1.8-3.3 1.8-5.8 0-2.4-.6-4.4-1.8-5.8-1.2-1.4-2.8-2.1-4.9-2.1zm3.8 12.8c-.9 1.2-2.2 1.8-3.9 1.8-1.7 0-3-.6-3.9-1.8s-1.4-2.8-1.4-4.9c0-2.1.4-3.8 1.3-4.9.9-1.2 2.2-1.7 3.9-1.7 1.7 0 3 .6 3.9 1.8s1.4 2.8 1.4 4.9c.1 2-.3 3.7-1.3 4.8zm13.9-12.8c-2.5 0-4.3.8-5.3 2.4h-.1l-.3-2.1h-1.2v15.2h1.4V21c0-2.1.4-3.5 1.3-4.5.8-.9 2.2-1.4 4-1.4 1.3 0 2.4.4 3 1.1.7.7.9 1.8.9 3.4v9.9h1.4v-10c0-3.7-1.7-5.6-5.1-5.6zM196.6 27c-.7 0-1.1.5-1.1 1.4s.4 1.4 1.1 1.4 1.1-.5 1.1-1.4-.3-1.4-1.1-1.4zm6.7-18.3c-.6 0-.9.4-.9 1.4s.3 1.4.9 1.4c.3 0 .5-.1.7-.4.1-.3.3-.6.3-1s-.1-.8-.3-1c-.2-.3-.5-.4-.7-.4z"></path>
  <path d="M202.6 14.2H204V29.4H202.6z"></path>
  <path d="M219.8 16c-1.2-1.4-2.8-2.1-4.9-2.1-2.1 0-3.7.7-4.9 2.1-1.2 1.4-1.8 3.3-1.8 5.8 0 1.6.3 3 .8 4.2.5 1.2 1.3 2.1 2.3 2.8 1 .7 2.2.9 3.5.9 2.1 0 3.8-.7 5-2.1 1.2-1.4 1.8-3.3 1.8-5.8 0-2.4-.6-4.3-1.8-5.8zm-1 10.7c-.9 1.2-2.2 1.8-3.9 1.8-1.7 0-3-.6-3.9-1.8s-1.4-2.8-1.4-4.9c0-2.1.4-3.8 1.3-4.9.9-1.2 2.2-1.7 3.9-1.7 1.7 0 3 .6 3.9 1.8s1.4 2.8 1.4 4.9c0 2-.4 3.7-1.3 4.8z"></path>
  <path class="c-logo__color c-header__logo-color" d="M20.7 0C9.3 0 0 9.3 0 20.8s9.3 20.8 20.7 20.8 20.7-9.3 20.7-20.8S32.1 0 20.7 0zm2 19.4L21.5 21l1.2 1.6c2 2.7 4.5 4.5 7.2 5l-.1-.1c-.5-.5-.5-1.3 0-1.8s1.3-.5 1.8 0l2.5 2.5c.3.3.4.6.4.9 0 .3-.1.7-.4.9l-2.5 2.5c-.3.3-.6.4-.9.4-.3 0-.7-.1-.9-.4-.5-.5-.5-1.3 0-1.8l.4-.4c-3.6-.5-7-2.6-9.6-6.1l-.7-.9-.7.9c-2.9 3.9-6.9 6.2-11 6.2-.7-.1-1.2-.7-1.2-1.4s.6-1.3 1.3-1.3c3.3 0 6.5-1.8 9-5.1l1.2-1.6-1.2-1.6c-2.4-3.3-5.6-5.1-8.9-5.1-.8 0-1.4-.6-1.4-1.3s.6-1.3 1.3-1.3c4.1 0 8.1 2.3 11 6.2l.7.9.7-.9c2.5-3.5 6-5.6 9.6-6.1l-.4-.4c-.5-.5-.5-1.3 0-1.8s1.3-.5 1.8 0l2.4 2.5c.3.3.4.6.4.9s-.1.7-.4.9l-2.5 2.5c-.3.3-.6.4-.9.4s-.7-.1-.9-.4c-.5-.5-.5-1.3 0-1.8l.1-.1c-2.7.5-5.2 2.2-7.2 4.9z"></path>
</svg>