<svg xmlns="http://www.w3.org/2000/svg" width="192" height="52" viewBox="0 0 192 52">
    <g fill="none" fill-rule="nonzero">
        <path fill="#FF586C" d="M40.224 37.45h49.491c4.042 0 7.32 3.247 7.32 7.25 0 4.004-3.278 7.251-7.32 7.251H40.224c-4.042 0-7.32-3.247-7.32-7.25 0-4.004 3.278-7.251 7.32-7.251z"/>
        <path fill="#FFF" d="M40.051 47.02l-1.503-5.908c0-.05-.025-.098-.025-.147 0-.146.173-.22.518-.22h.172c.32 0 .493.074.543.245l.862 3.49.123.587.124.561c.024-.17.098-.464.197-.879l.074-.293.887-3.54c.025-.122.173-.17.444-.17h.296c.27 0 .419.048.443.17l.887 3.54c.05.196.099.464.173.782l.074.39.271-1.196.863-3.467c.049-.146.222-.244.542-.244h.099c.345 0 .517.073.517.22l-.025.146-1.528 5.908c-.024.074-.074.122-.148.122-.098.025-.197.05-.32.05h-.591c-.1 0-.222-.025-.32-.05a.252.252 0 0 1-.149-.122l-.838-3.344-.172-.83-.173.83-.862 3.344c0 .05-.05.098-.148.122-.099.025-.198.05-.296.05h-.567c-.246.024-.394-.025-.444-.147zM47.495 46.605c-.395-.415-.592-1.026-.592-1.807 0-.83.197-1.465.567-1.88.394-.415.937-.61 1.627-.61.665 0 1.158.22 1.479.635.32.415.493 1 .493 1.733a.452.452 0 0 1-.173.293c-.123.122-.197.195-.246.195h-2.54c0 .318.124.635.346.88.246.194.542.292.838.268.345 0 .69-.098 1.01-.244.05-.025.124-.05.173-.074.074 0 .173.074.271.244a.958.958 0 0 1 .148.367c0 .122-.099.22-.271.317-.197.098-.42.195-.666.22a3.797 3.797 0 0 1-.739.073c-.74.024-1.33-.17-1.725-.61zm2.44-2.246a1.313 1.313 0 0 0-.197-.806c-.148-.195-.37-.317-.617-.293-.566 0-.912.366-.985 1.099h1.799zM51.783 42.6c-.074-.023-.098-.072-.123-.146 0-.073.025-.17.074-.244.099-.22.173-.464.246-.683.074-.293.1-.586.1-.88a.39.39 0 0 1 .122-.268c.099-.073.247-.097.37-.097h.148a.7.7 0 0 1 .37.097.3.3 0 0 1 .123.244c0 .342-.074.66-.197.953a2.241 2.241 0 0 1-.493.756c-.124.147-.296.269-.469.293a.494.494 0 0 1-.27-.024zM54.075 46.922v-2.978c0-.293 0-.61-.049-.904-.024-.122-.05-.22-.05-.341 0-.098.1-.147.297-.196.172-.049.37-.073.542-.073a.26.26 0 0 1 .222.122c.049.098.074.171.098.269.025.097.025.17.05.195.27-.464.616-.684 1.035-.684a.535.535 0 0 1 .419.122.448.448 0 0 1 .123.293c0 .147-.025.293-.074.44-.05.17-.123.244-.172.244a.46.46 0 0 1-.173-.049c-.099-.024-.173-.049-.271-.049a.783.783 0 0 0-.468.171 1.2 1.2 0 0 0-.296.318v3.076c0 .17-.173.268-.493.268h-.173c-.394.025-.567-.049-.567-.244zM57.797 46.605c-.394-.415-.591-1.026-.591-1.807 0-.83.197-1.465.567-1.88.394-.415.936-.61 1.626-.61.666 0 1.159.22 1.479.635.32.415.493 1 .493 1.733a.452.452 0 0 1-.173.293c-.098.122-.197.195-.246.195h-2.539c0 .318.124.635.345.88.247.194.543.292.838.268.345 0 .69-.098 1.01-.244.05-.025.124-.05.173-.074.074 0 .173.074.272.244a.958.958 0 0 1 .147.367c0 .122-.098.22-.27.317-.198.098-.42.195-.666.22a3.797 3.797 0 0 1-.74.073c-.739.024-1.33-.17-1.725-.61zm2.44-2.246a1.313 1.313 0 0 0-.197-.806c-.148-.195-.37-.317-.616-.293-.567 0-.912.366-.986 1.099h1.8zM64.748 46.922v-5.908c0-.17.172-.268.493-.268h.246c.32 0 .493.097.493.268v2.368h2.785v-2.368c0-.17.173-.268.493-.268h.246c.32 0 .493.097.493.268v5.908c0 .171-.172.269-.493.269h-.246c-.32 0-.493-.098-.493-.269v-2.49H65.98v2.49c0 .171-.173.269-.493.269h-.246c-.345 0-.493-.074-.493-.269zM71.378 41.405v-.586c0-.196.197-.293.591-.293.395 0 .592.097.592.293v.586c0 .097-.05.195-.148.22a1.448 1.448 0 0 1-.468.073c-.395.024-.567-.098-.567-.293zm0 5.541V42.65c0-.171.172-.269.493-.269h.172c.32 0 .493.098.493.269v4.272c0 .171-.172.269-.493.269h-.172c-.32 0-.493-.074-.493-.245zM73.842 46.922v-2.978c0-.293 0-.61-.049-.904-.025-.122-.05-.22-.05-.341 0-.098.1-.147.297-.196.172-.049.37-.073.542-.073a.26.26 0 0 1 .222.122c.049.098.074.171.098.269.025.097.025.17.05.195.295-.464.616-.684 1.035-.684a.535.535 0 0 1 .419.122.448.448 0 0 1 .123.293c0 .147-.025.293-.074.44-.05.17-.099.244-.173.244a.46.46 0 0 1-.172-.049c-.099-.024-.173-.049-.271-.049a.923.923 0 0 0-.493.171 1.2 1.2 0 0 0-.296.318v3.076c0 .17-.172.268-.493.268h-.172c-.37.025-.543-.049-.543-.244zM77.194 41.405v-.586c0-.196.198-.293.592-.293.394 0 .591.097.591.293v.586c0 .097-.049.195-.147.22a1.448 1.448 0 0 1-.469.073c-.37.024-.567-.098-.567-.293zm0 5.541V42.65c0-.171.173-.269.493-.269h.173c.32 0 .493.098.493.269v4.272c0 .171-.173.269-.493.269h-.173c-.32 0-.468-.074-.493-.245zM79.66 46.922v-2.978c0-.293 0-.61-.05-.904-.025-.122-.05-.22-.05-.341 0-.098.1-.147.296-.196.173-.049.37-.073.542-.073a.26.26 0 0 1 .222.122c.05.098.074.171.099.269.025.097.025.146.05.195.172-.195.369-.366.615-.488.247-.122.518-.196.789-.196.937 0 1.405.489 1.405 1.49v3.1c0 .073-.05.171-.123.195a.997.997 0 0 1-.37.074h-.173c-.32 0-.492-.098-.492-.269v-2.954c0-.44-.222-.683-.69-.683a.758.758 0 0 0-.494.17 1.493 1.493 0 0 0-.394.391v3.076c0 .171-.172.269-.493.269h-.172c-.37 0-.518-.074-.518-.269zM84.44 47.899c0-.245.075-.464.222-.66.173-.195.37-.341.617-.439v-.049a.846.846 0 0 1-.296-.293.796.796 0 0 1-.099-.415c0-.342.222-.683.542-.83a1.692 1.692 0 0 1-.566-.537c-.148-.244-.198-.513-.198-.806-.024-.439.173-.878.518-1.171.394-.293.887-.415 1.38-.391.222 0 .444.024.666.073h1.552c.074 0 .148.025.198.098.049.098.074.195.049.293v.146c0 .098 0 .196-.05.293a.208.208 0 0 1-.172.098c-.172 0-.32 0-.493-.024l-.025.024c.05.073.1.17.124.268a1.451 1.451 0 0 1-.468 1.49c-.395.293-.863.44-1.356.415-.444 0-.666.122-.666.39a.29.29 0 0 0 .247.293c.246.073.493.122.74.147.172.024.32.049.418.073.37.049.715.17 1.035.39.272.22.42.538.37.88 0 .439-.222.854-.616 1.098-.419.269-.961.39-1.676.39-1.282-.024-1.996-.439-1.996-1.244zm3.007.17a.418.418 0 0 0 .272-.39c0-.171-.099-.269-.296-.342a5.769 5.769 0 0 0-.937-.17c-.098 0-.222-.025-.394-.05a.83.83 0 0 0-.394.245.48.48 0 0 0-.148.341c0 .171.123.318.295.366.247.098.518.123.79.123a1.89 1.89 0 0 0 .812-.123zm-.221-3.588a.597.597 0 0 0 .221-.537c.025-.22-.073-.415-.221-.562a.912.912 0 0 0-.617-.17.99.99 0 0 0-.591.17c-.296.318-.296.806 0 1.099.173.122.394.17.591.17.222 0 .42-.073.617-.17zM89.961 46.922v-.757c0-.17.173-.244.493-.244h.247c.32 0 .493.073.493.244v.757c0 .171-.173.269-.493.269h-.247c-.345 0-.493-.074-.493-.269zm.247-1.782c-.05-.049-.099-.122-.099-.195v-3.93c0-.172.173-.27.493-.27h.32c.321 0 .494.074.494.245l-.395 3.955c0 .073-.049.146-.098.195a.661.661 0 0 1-.296.073h-.099a.376.376 0 0 1-.32-.073z"/>
        <g fill="#510099">
            <path d="M15.971 41.283C7.37 41.356.321 34.496.221 25.976L.05 6.176l.025-.024C.345 2.978 2.908.464 6.112.22l.025-.025 8.848-.097c8.627-.074 15.651 6.787 15.75 15.331l.172 19.555v.024c-.123 3.174-2.563 5.786-5.767 6.177l-9.169.098zM2.711 7.3l.173 18.48c.074 7.08 5.915 12.768 13.063 12.72l8.06-.098h.246a4.158 4.158 0 0 0 3.992-4.15L28.098 15.6c-.074-7.08-5.916-12.768-13.063-12.72l-8.183.098a4.195 4.195 0 0 0-4.14 4.102v.22z"/>
            <path d="M25.312 34.13a1.27 1.27 0 0 1-1.207 1.171l-6.507.05-4.042.048a1.502 1.502 0 0 1-1.578-1.391c-.049-.806.592-1.514 1.405-1.563h.124l8.28-.073h.05a.45.45 0 0 0 .444-.39l-.074-8.326c-.05-.805.591-1.513 1.43-1.562a1.49 1.49 0 0 1 1.577 1.416v.122l.098 10.498zm-3.45-.733l-8.725-2.368-4.018.049a1.502 1.502 0 0 1-1.577-1.392c-.05-.805.592-1.513 1.405-1.562h.123l8.355-.073a.45.45 0 0 0 .444-.39l-.074-8.326c0-.83.64-1.489 1.479-1.513.789 0 1.454.586 1.503 1.367v.122l.099 10.497a1.27 1.27 0 0 1-1.208 1.172l-6.507.05 8.7 2.367zm.05 0l4.238-1.953-4.239 1.953zM11.706 23.51c-.813 0-1.503-.66-1.503-1.465l-.099-10.498A1.253 1.253 0 0 1 11.19 10.4l.024-.024 10.648-.098a1.487 1.487 0 0 1 1.454 1.538c-.025.781-.64 1.392-1.43 1.44l-8.33.05a.45.45 0 0 0-.444.39l.074 8.3c.025.83-.64 1.49-1.479 1.514 0-.025 0-.025 0 0zm-4.411-4.297c-.814.025-1.48-.635-1.504-1.44v-.025L5.693 7.251a1.27 1.27 0 0 1 1.208-1.172l10.55-.098c.812 0 1.503.66 1.503 1.465 0 .806-.666 1.49-1.48 1.49l-8.355.072a.425.425 0 0 0-.419.367l.074 8.3c0 .83-.64 1.49-1.478 1.49v.048zM54.544 11.499l-2.218 4.54c-2.44-1.416-5.521-2.392-7.395-2.392-1.528 0-2.538.561-2.538 1.66 0 3.955 12.225 1.709 12.225 9.96 0 4.566-4.092 7.007-9.243 7.007-3.87 0-7.813-1.44-10.573-3.662l2.267-4.492c2.366 2.05 5.94 3.442 8.355 3.442 1.849 0 3.007-.683 3.007-2.001 0-4.053-12.225-1.636-12.225-9.741 0-4.224 3.673-6.91 9.218-6.91 3.328.025 6.729 1.05 9.12 2.589zM73.275 18.237l-4.09 2.44a4.29 4.29 0 0 0-3.6-1.83c-2.218 0-3.721 1.807-3.721 4.443 0 2.71 1.528 4.468 3.722 4.468 1.626 0 2.859-.66 3.623-2.002l4.165 2.417c-1.454 2.588-4.313 4.077-8.084 4.077-5.472 0-9.169-3.589-9.169-8.96 0-5.42 3.722-9.057 9.243-9.057 3.5.024 6.359 1.49 7.911 4.004zM91.81 20.58V32.08h-5.595v-2.026c-1.158 1.513-3.031 2.294-5.447 2.294-3.795 0-6.112-2.294-6.112-5.517 0-3.345 2.415-5.298 6.827-5.322h4.683v-.244c0-1.733-1.159-2.783-3.475-2.783-1.48 0-3.426.512-5.324 1.465L75.74 16.21c2.76-1.27 5.275-2.002 8.257-2.002 4.93 0 7.788 2.393 7.813 6.372zm-5.62 5.518v-1.563h-3.573c-1.726 0-2.564.586-2.564 1.904 0 1.319.937 2.1 2.514 2.1 1.75-.024 3.254-1.001 3.624-2.441zM95.877 32.079V7.837h5.718v24.242zM122.89 24.804h-12.52c.566 2.1 2.07 3.271 4.19 3.271a6 6 0 0 0 4.263-1.806l3.007 2.905c-1.824 1.953-4.486 3.1-7.764 3.1-5.816 0-9.44-3.589-9.44-8.96 0-5.468 3.771-9.057 9.268-9.057 6.285 0 9.39 4.102 8.996 10.547zm-5.472-3.052c0-2.148-1.38-3.564-3.426-3.564-1.971 0-3.327 1.44-3.697 3.564h7.123zM141.967 32.079l-3.5-11.181-3.5 11.18h-5.669l-6.507-17.625h5.817l3.648 12.206 3.574-12.182h5.447l3.672 12.182 3.598-12.182h5.57l-6.506 17.602zM171.173 20.58V32.08h-5.57v-2.026c-1.158 1.513-3.031 2.294-5.447 2.294-3.796 0-6.112-2.294-6.112-5.517 0-3.345 2.415-5.298 6.827-5.322h4.683v-.244c0-1.733-1.159-2.783-3.475-2.783-1.48 0-3.426.512-5.3 1.465l-1.626-3.736c2.76-1.27 5.274-2.002 8.256-2.002 4.905 0 7.74 2.393 7.764 6.372zm-5.595 5.518v-1.563h-3.598c-1.725 0-2.563.586-2.563 1.904 0 1.319.936 2.1 2.514 2.1 1.75 0 3.278-.977 3.647-2.441zM184.212 33.91c-1.331 3.198-3.574 4.785-6.852 4.785a8.004 8.004 0 0 1-5.176-1.807l2.366-3.857c.813.66 1.528.952 2.341.952a2.27 2.27 0 0 0 2.219-1.416l.443-.879-7.394-17.235h5.866l4.363 11.693 3.87-11.693h5.668l-7.714 19.457z"/>
        </g>
    </g>
</svg>
