<svg viewBox="0 0 800 800" xmlns="http://www.w3.org/2000/svg" fill-rule="evenodd" clip-rule="evenodd" stroke-linejoin="round" stroke-miterlimit="2"><g transform="translate(-978.86) scale(10.0404)"><circle cx="5674.52" cy="1770.25" r="819.28" fill="#fefffe" transform="translate(-108.428 -36.676) scale(.04324)"/><clipPath id="a"><path d="M137.33 0c22.004 0 39.84 17.836 39.84 39.838 0 22.002-17.836 39.839-39.84 39.839-22.002 0-39.838-17.837-39.838-39.839S115.328 0 137.33 0z"/></clipPath><g clip-path="url(#a)"><path fill="url(#_Radial2)" fill-rule="nonzero" d="M92.492-5h89.678v89.677H92.492z"/></g><g transform="matrix(.4893 0 0 .4893 114.839 7.804)"><clipPath id="b"><path d="M12.193 30.227c0-.97-.291-1.751-.874-2.345-.584-.593-1.361-.889-2.329-.889H5.607V38.89H8.99c.89 0 1.646-.316 2.269-.949a3.145 3.145 0 00.934-2.284v-5.43zM8.84 21.266c2.731 0 4.906.861 6.529 2.581 1.503 1.643 2.254 3.739 2.254 6.29v5.4c0 2.454-.856 4.55-2.567 6.29-1.711 1.742-3.782 2.611-6.216 2.611H5.607v14.004H0V21.266h8.84z"/></clipPath><g clip-path="url(#b)"><path fill="#fff" fill-rule="nonzero" d="M-5 16.266h27.623v47.176H-5z"/></g><clipPath id="c"><path d="M54.885 30.227c0-2.156-1.068-3.234-3.205-3.234h-3.381V38.89h3.381c.891 0 1.648-.316 2.269-.949a3.143 3.143 0 00.936-2.284v-5.43zm-3.352-8.961c3.123 0 5.418.861 6.883 2.581 1.285 1.504 1.928 3.601 1.928 6.29v5.4c0 2.631-.998 4.857-2.996 6.675l4.152 16.23h-6.064l-3.399-14.004h-3.738v14.004H42.69V21.266h8.843z"/></clipPath><g clip-path="url(#c)"><path fill="#fff" fill-rule="nonzero" d="M37.69 16.266H66.5v47.176H37.69z"/></g><clipPath id="d"><path d="M64.7 21.267h5.607v37.176H64.7z"/></clipPath><g clip-path="url(#d)"><path fill="#fff" fill-rule="nonzero" d="M59.7 16.267h15.607v47.176H59.7z"/></g><clipPath id="e"><path d="M91.933 49.186c.039 2.591-.635 4.806-2.018 6.646-.91 1.245-2.197 2.125-3.857 2.64-.891.277-1.928.415-3.115.415-2.196 0-4.016-.543-5.459-1.632-1.207-.889-2.162-2.1-2.864-3.633-.703-1.534-.427-4.463-.427-4.463l4.537-1.19c.238 2.168.81 3.738 1.721 4.711.671.736 1.443 1.084 2.314 1.045 1.227-.039 2.205-.643 2.938-1.811.375-.575.562-1.396.562-2.466 0-1.543-.701-3.078-2.105-4.603l-4.985-4.721c-1.859-1.8-3.176-3.415-3.947-4.84-.83-1.604-1.246-3.346-1.246-5.227 0-3.385 1.138-5.949 3.412-7.691 1.404-1.049 3.144-1.575 5.223-1.575 1.998 0 3.709.446 5.132 1.336 1.108.692 2.004 1.661 2.686 2.908.682 1.246.428 3.498.428 3.498l-4.569 1.782c-.158-1.523-.591-2.709-1.304-3.56-.514-.613-1.256-.92-2.225-.92-1.029 0-1.811.455-2.344 1.365-.435.732-.652 1.641-.652 2.73 0 1.701.73 3.432 2.195 5.193.553.671 1.383 1.463 2.492 2.373 1.305 1.087 2.166 1.849 2.582 2.284 1.383 1.385 2.452 2.75 3.204 4.093.355.634.642 1.217.861 1.752.533 1.325.81 2.512.83 3.561z"/></clipPath><g clip-path="url(#e)"><path fill="#fff" fill-rule="nonzero" d="M68.982 15.791h27.952v48.096H68.982z"/></g><clipPath id="f"><path d="M28.087 48.666l-4.257 2.085 3.085-14.465 8.038 12.418-4.718-.434 3.148 10.172h6.346l-6.23-37.175h-9.32l-6.321 37.175h10.855l-.626-9.776z"/></clipPath><g clip-path="url(#f)"><path fill="#fff" fill-rule="nonzero" d="M12.858 16.267h31.871v47.175H12.858z"/></g></g><path d="M158.928 61.153c.571-1.055.856-2.34.856-3.85 0-.612-.045-1.164-.132-1.66-.18-.967-.452-1.753-.821-2.364-.56-.902-1.24-1.506-2.038-1.811.482-.215.9-.527 1.257-.934.85-.965 1.279-2.249 1.279-3.851 0-.979-.116-1.823-.345-2.535-.42-1.334-1.119-2.32-2.097-2.955-1.144-.75-2.428-1.124-3.85-1.124h-5.398v23.905h6.676c.902 0 1.81-.28 2.725-.838a5.157 5.157 0 001.888-1.983zM145.164 43.69v-3.622h-10.258v23.905h10.258v-3.623h-6.654v-6.519h4.862V50.21h-4.862v-6.518h6.654zm-15.476 20.283l3.737-23.887h-3.78l-1.75 12.782-1.885-12.782h-3.775L120.5 52.88l-1.887-12.792h-3.774l4 23.887h3.446l1.918-13.141 2.055 13.141h3.43zm23.35-10.694c.888 0 1.563.279 2.02.838.509.61.763 1.582.763 2.918 0 .559-.083 1.054-.25 1.486-.469 1.258-1.313 1.887-2.534 1.887h-1.505V53.28h1.505zm2.248-5.09c-.38 1.092-1.13 1.639-2.249 1.639h-1.506v-6.1h1.506c.711 0 1.289.235 1.735.705.483.508.723 1.258.723 2.25 0 .596-.07 1.1-.21 1.506z" fill="#fff"/></g><defs><radialGradient id="_Radial2" cx="0" cy="0" r="1" gradientUnits="userSpaceOnUse" gradientTransform="matrix(133.576 0 0 79.677 137.331 79.677)"><stop offset="0" stop-color="#ff3d91"/><stop offset=".16" stop-color="#ef3e90"/><stop offset=".31" stop-color="#c2418c"/><stop offset=".51" stop-color="#7d55a3"/><stop offset=".62" stop-color="#6f7ebd"/><stop offset=".71" stop-color="#6a8ec8"/><stop offset="1" stop-color="#1cc6ff"/></radialGradient></defs></svg>