<svg clip-rule="evenodd" fill-rule="evenodd" stroke-linejoin="round" stroke-miterlimit="2" viewBox="0 0 800 360" xmlns="http://www.w3.org/2000/svg" xmlns:xlink="http://www.w3.org/1999/xlink"><radialGradient id="a" cx="0" cy="0" gradientTransform="matrix(133.576 0 0 79.677 137.331 79.677)" gradientUnits="userSpaceOnUse" r="1"><stop offset="0" stop-color="#ff3d91"/><stop offset=".16" stop-color="#ef3e90"/><stop offset=".31" stop-color="#c2418c"/><stop offset=".51" stop-color="#7d55a3"/><stop offset=".62" stop-color="#6f7ebd"/><stop offset=".71" stop-color="#6a8ec8"/><stop offset="1" stop-color="#1cc6ff"/></radialGradient><clipPath id="b"><path clip-rule="evenodd" d="m137.33 0c22.004 0 39.84 17.836 39.84 39.838s-17.836 39.839-39.84 39.839c-22.002 0-39.838-17.837-39.838-39.839s17.836-39.838 39.838-39.838zm27.842 51.6c.736-1.358 1.102-3.013 1.102-4.959 0-.787-.057-1.498-.17-2.138-.231-1.244-.582-2.257-1.057-3.044-.721-1.161-1.596-1.939-2.625-2.332.621-.277 1.16-.678 1.619-1.203 1.096-1.243 1.647-2.896 1.647-4.96 0-1.26-.149-2.347-.444-3.264-.541-1.719-1.441-2.988-2.701-3.806-1.473-.965-3.127-1.448-4.959-1.448h-6.951v30.788h8.598c1.162 0 2.332-.361 3.509-1.08 1.047-.638 1.858-1.491 2.432-2.554zm-17.727-22.489v-4.665h-13.211v30.788h13.211v-4.666h-8.57v-8.396h6.262v-4.666h-6.262v-8.395zm-19.931 26.123 4.812-30.764h-4.869l-2.252 16.461-2.429-16.461h-4.862l-2.234 16.475-2.43-16.475h-4.861l5.152 30.764h4.438l2.47-16.925 2.647 16.925zm30.071-13.773c1.145 0 2.014.359 2.602 1.079.656.786.984 2.038.984 3.758 0 .72-.107 1.358-.322 1.914-.604 1.62-1.692 2.431-3.264 2.431h-1.939v-9.182zm2.896-6.556c-.49 1.407-1.455 2.111-2.896 2.111h-1.94v-7.856h1.94c.916 0 1.66.303 2.234.908.623.654.932 1.62.932 2.898 0 .768-.09 1.416-.27 1.939z"/></clipPath><clipPath id="c"><path clip-rule="evenodd" d="m12.193 30.227c0-.97-.291-1.751-.874-2.345-.584-.593-1.361-.889-2.329-.889h-3.383v11.897h3.383c.89 0 1.646-.316 2.269-.949.622-.633.934-1.396.934-2.284zm-3.353-8.961c2.731 0 4.906.861 6.529 2.581 1.503 1.643 2.254 3.739 2.254 6.29v5.4c0 2.454-.856 4.55-2.567 6.29-1.711 1.742-3.782 2.611-6.216 2.611h-3.233v14.004h-5.607v-37.176z"/></clipPath><clipPath id="d"><path clip-rule="evenodd" d="m54.885 30.227c0-2.156-1.068-3.234-3.205-3.234h-3.381v11.897h3.381c.891 0 1.648-.316 2.269-.949.623-.633.936-1.396.936-2.284zm-3.352-8.961c3.123 0 5.418.861 6.883 2.581 1.285 1.504 1.928 3.601 1.928 6.29v5.4c0 2.631-.998 4.857-2.996 6.675l4.152 16.23h-6.064l-3.399-14.004h-3.738v14.004h-5.609v-37.176z"/></clipPath><clipPath id="e"><path clip-rule="evenodd" d="m64.7 21.267h5.607v37.176h-5.607z"/></clipPath><clipPath id="f"><path clip-rule="evenodd" d="m91.933 49.186c.039 2.591-.635 4.806-2.018 6.646-.91 1.245-2.197 2.125-3.857 2.64-.891.277-1.928.415-3.115.415-2.196 0-4.016-.543-5.459-1.632-1.207-.889-2.162-2.1-2.864-3.633-.703-1.534-.427-4.463-.427-4.463l4.537-1.19c.238 2.168.81 3.738 1.721 4.711.671.736 1.443 1.084 2.314 1.045 1.227-.039 2.205-.643 2.938-1.811.375-.575.562-1.396.562-2.466 0-1.543-.701-3.078-2.105-4.603-1.108-1.049-2.77-2.622-4.985-4.721-1.859-1.8-3.176-3.415-3.947-4.84-.83-1.604-1.246-3.346-1.246-5.227 0-3.385 1.138-5.949 3.412-7.691 1.404-1.049 3.144-1.575 5.223-1.575 1.998 0 3.709.446 5.132 1.336 1.108.692 2.004 1.661 2.686 2.908.682 1.246.428 3.498.428 3.498l-4.569 1.782c-.158-1.523-.591-2.709-1.304-3.56-.514-.613-1.256-.92-2.225-.92-1.029 0-1.811.455-2.344 1.365-.435.732-.652 1.641-.652 2.73 0 1.701.73 3.432 2.195 5.193.553.671 1.383 1.463 2.492 2.373 1.305 1.087 2.166 1.849 2.582 2.284 1.383 1.385 2.452 2.75 3.204 4.093.355.634.642 1.217.861 1.752.533 1.325.81 2.512.83 3.561z"/></clipPath><clipPath id="g"><path clip-rule="evenodd" d="m28.087 48.666-4.257 2.085 3.085-14.465 8.038 12.418-4.718-.434 3.148 10.172h6.346l-6.23-37.175h-9.32l-6.321 37.175h10.855z"/></clipPath><g transform="scale(4.51544)"><circle cx="136.951863648" cy="39.8741586" fill="#fefffe" r="35.427633472" stroke-width=".0432424"/><g clip-path="url(#b)"><path d="m92.492-5h89.678v89.677h-89.678z" fill="url(#a)" fill-rule="nonzero"/></g><g clip-path="url(#c)"><path d="m-5 16.266h27.623v47.176h-27.623z" fill="#fff" fill-rule="nonzero"/></g><g clip-path="url(#d)"><path d="m37.69 16.266h28.81v47.176h-28.81z" fill="#fff" fill-rule="nonzero"/></g><g clip-path="url(#e)"><path d="m59.7 16.267h15.607v47.176h-15.607z" fill="#fff" fill-rule="nonzero"/></g><g clip-path="url(#f)"><path d="m68.982 15.791h27.952v48.096h-27.952z" fill="#fff" fill-rule="nonzero"/></g><g clip-path="url(#g)"><path d="m12.858 16.267h31.871v47.175h-31.871z" fill="#fff" fill-rule="nonzero"/></g></g></svg>